<mxfile host="65bd71144e">
    <diagram id="nuFV8PSFyIOPUW-26pnO" name="技术架构">
        <mxGraphModel dx="955" dy="1000" grid="1" gridSize="10" guides="1" tooltips="1" connect="1" arrows="1" fold="1" page="1" pageScale="1" pageWidth="827" pageHeight="1169" math="0" shadow="0">
            <root>
                <mxCell id="0"/>
                <mxCell id="1" parent="0"/>
                <mxCell id="32" value="" style="rounded=0;whiteSpace=wrap;html=1;fillColor=#dae8fc;strokeColor=#6c8ebf;" vertex="1" parent="1">
                    <mxGeometry x="90" y="870" width="550" height="80" as="geometry"/>
                </mxCell>
                <mxCell id="6" style="edgeStyle=none;html=1;exitX=0.5;exitY=0;exitDx=0;exitDy=0;" edge="1" parent="1" source="3">
                    <mxGeometry relative="1" as="geometry">
                        <mxPoint x="270" y="830" as="targetPoint"/>
                    </mxGeometry>
                </mxCell>
                <mxCell id="3" value="多数据源" style="rounded=1;whiteSpace=wrap;html=1;" vertex="1" parent="1">
                    <mxGeometry x="100" y="880" width="340" height="60" as="geometry"/>
                </mxCell>
                <mxCell id="7" style="edgeStyle=none;html=1;exitX=0.5;exitY=0;exitDx=0;exitDy=0;entryX=0.846;entryY=1.004;entryDx=0;entryDy=0;entryPerimeter=0;" edge="1" parent="1" source="4">
                    <mxGeometry relative="1" as="geometry">
                        <mxPoint x="555.3" y="831.96" as="targetPoint"/>
                    </mxGeometry>
                </mxCell>
                <mxCell id="4" value="外部API" style="rounded=1;whiteSpace=wrap;html=1;" vertex="1" parent="1">
                    <mxGeometry x="480" y="880" width="150" height="60" as="geometry"/>
                </mxCell>
                <mxCell id="5" value="" style="rounded=0;whiteSpace=wrap;html=1;fillColor=#d5e8d4;strokeColor=#82b366;" vertex="1" parent="1">
                    <mxGeometry x="90" y="290" width="550" height="540" as="geometry"/>
                </mxCell>
                <mxCell id="9" value="" style="rounded=1;whiteSpace=wrap;html=1;" vertex="1" parent="1">
                    <mxGeometry x="120" y="640" width="500" height="75" as="geometry"/>
                </mxCell>
                <mxCell id="12" value="数据源管理" style="rounded=1;whiteSpace=wrap;html=1;" vertex="1" parent="1">
                    <mxGeometry x="140" y="660" width="90" height="40" as="geometry"/>
                </mxCell>
                <mxCell id="13" value="MyBatis持久层访问" style="rounded=1;whiteSpace=wrap;html=1;" vertex="1" parent="1">
                    <mxGeometry x="240" y="660" width="120" height="40" as="geometry"/>
                </mxCell>
                <mxCell id="14" value="安全加密访问" style="rounded=1;whiteSpace=wrap;html=1;" vertex="1" parent="1">
                    <mxGeometry x="368.5" y="660" width="90" height="40" as="geometry"/>
                </mxCell>
                <mxCell id="15" value="请求管控" style="rounded=1;whiteSpace=wrap;html=1;" vertex="1" parent="1">
                    <mxGeometry x="470" y="660" width="60" height="40" as="geometry"/>
                </mxCell>
                <mxCell id="16" value="请求管控" style="rounded=1;whiteSpace=wrap;html=1;" vertex="1" parent="1">
                    <mxGeometry x="540" y="660" width="70" height="40" as="geometry"/>
                </mxCell>
                <mxCell id="17" value="1、sql组合查询&lt;br&gt;2、多api组合查询，支持函数自定义编码&lt;br&gt;3、服务编排" style="shape=note;whiteSpace=wrap;html=1;backgroundOutline=1;darkOpacity=0.05;rounded=1;align=left;verticalAlign=top;" vertex="1" parent="1">
                    <mxGeometry x="720" y="830" width="440" height="100" as="geometry"/>
                </mxCell>
                <mxCell id="19" value="" style="rounded=1;whiteSpace=wrap;html=1;" vertex="1" parent="1">
                    <mxGeometry x="120" y="500" width="310" height="120" as="geometry"/>
                </mxCell>
                <mxCell id="20" value="API开发" style="rounded=1;whiteSpace=wrap;html=1;" vertex="1" parent="1">
                    <mxGeometry x="140" y="510" width="80" height="40" as="geometry"/>
                </mxCell>
                <mxCell id="21" value="服务编排" style="rounded=1;whiteSpace=wrap;html=1;" vertex="1" parent="1">
                    <mxGeometry x="230" y="510" width="80" height="40" as="geometry"/>
                </mxCell>
                <mxCell id="23" value="应用访问管理" style="rounded=1;whiteSpace=wrap;html=1;" vertex="1" parent="1">
                    <mxGeometry x="325" y="510" width="80" height="40" as="geometry"/>
                </mxCell>
                <mxCell id="24" value="API发布" style="rounded=1;whiteSpace=wrap;html=1;" vertex="1" parent="1">
                    <mxGeometry x="140" y="565" width="80" height="40" as="geometry"/>
                </mxCell>
                <mxCell id="25" value="" style="rounded=1;whiteSpace=wrap;html=1;" vertex="1" parent="1">
                    <mxGeometry x="450" y="500" width="170" height="120" as="geometry"/>
                </mxCell>
                <mxCell id="26" value="API监控运维" style="rounded=1;whiteSpace=wrap;html=1;" vertex="1" parent="1">
                    <mxGeometry x="460" y="511" width="150" height="45" as="geometry"/>
                </mxCell>
                <mxCell id="27" value="API访问统计" style="rounded=1;whiteSpace=wrap;html=1;" vertex="1" parent="1">
                    <mxGeometry x="460" y="565" width="150" height="45" as="geometry"/>
                </mxCell>
                <mxCell id="34" style="edgeStyle=none;html=1;exitX=0.1;exitY=1;exitDx=0;exitDy=0;entryX=0.5;entryY=0;entryDx=0;entryDy=0;exitPerimeter=0;" edge="1" parent="1" source="33" target="28">
                    <mxGeometry relative="1" as="geometry"/>
                </mxCell>
                <mxCell id="28" value="API应用市场" style="rounded=1;whiteSpace=wrap;html=1;" vertex="1" parent="1">
                    <mxGeometry x="120" y="420" width="90" height="60" as="geometry"/>
                </mxCell>
                <mxCell id="29" value="API申请" style="rounded=1;whiteSpace=wrap;html=1;" vertex="1" parent="1">
                    <mxGeometry x="230" y="565" width="80" height="40" as="geometry"/>
                </mxCell>
                <mxCell id="30" value="API审批" style="rounded=1;whiteSpace=wrap;html=1;" vertex="1" parent="1">
                    <mxGeometry x="325" y="565" width="80" height="40" as="geometry"/>
                </mxCell>
                <mxCell id="36" style="edgeStyle=none;html=1;exitX=0.75;exitY=0;exitDx=0;exitDy=0;entryX=0.821;entryY=1.056;entryDx=0;entryDy=0;entryPerimeter=0;" edge="1" parent="1" source="31" target="33">
                    <mxGeometry relative="1" as="geometry">
                        <mxPoint x="520" y="370" as="targetPoint"/>
                    </mxGeometry>
                </mxCell>
                <mxCell id="31" value="API网关" style="rounded=1;whiteSpace=wrap;html=1;align=center;" vertex="1" parent="1">
                    <mxGeometry x="240" y="420" width="380" height="60" as="geometry"/>
                </mxCell>
                <mxCell id="35" style="edgeStyle=none;html=1;exitX=0.5;exitY=1;exitDx=0;exitDy=0;entryX=0.33;entryY=0.013;entryDx=0;entryDy=0;entryPerimeter=0;" edge="1" parent="1" source="33" target="31">
                    <mxGeometry relative="1" as="geometry"/>
                </mxCell>
                <mxCell id="33" value="数据应用平台" style="rounded=1;whiteSpace=wrap;html=1;" vertex="1" parent="1">
                    <mxGeometry x="115" y="330" width="500" height="50" as="geometry"/>
                </mxCell>
                <mxCell id="38" value="" style="rounded=1;whiteSpace=wrap;html=1;" vertex="1" parent="1">
                    <mxGeometry x="120" y="730" width="500" height="70" as="geometry"/>
                </mxCell>
                <mxCell id="39" value="MySQL" style="rounded=1;whiteSpace=wrap;html=1;" vertex="1" parent="1">
                    <mxGeometry x="130" y="745" width="220" height="40" as="geometry"/>
                </mxCell>
                <mxCell id="40" value="Redis" style="rounded=1;whiteSpace=wrap;html=1;" vertex="1" parent="1">
                    <mxGeometry x="390" y="745" width="200" height="40" as="geometry"/>
                </mxCell>
            </root>
        </mxGraphModel>
    </diagram>
    <diagram id="mPTPsY8pACl_l-J5NQEs" name="业务架构">
        <mxGraphModel dx="955" dy="1000" grid="1" gridSize="10" guides="1" tooltips="1" connect="1" arrows="1" fold="1" page="1" pageScale="1" pageWidth="827" pageHeight="1169" math="0" shadow="0">
            <root>
                <mxCell id="0"/>
                <mxCell id="1" parent="0"/>
                <mxCell id="GjFo4K7LkgXdpPc__3d1-2" value="" style="rounded=0;whiteSpace=wrap;html=1;" vertex="1" parent="1">
                    <mxGeometry x="100" y="782.5" width="320" height="97.5" as="geometry"/>
                </mxCell>
                <mxCell id="GjFo4K7LkgXdpPc__3d1-3" value="数据源管理" style="rounded=1;whiteSpace=wrap;html=1;" vertex="1" parent="1">
                    <mxGeometry x="130" y="811.25" width="70" height="40" as="geometry"/>
                </mxCell>
                <mxCell id="GjFo4K7LkgXdpPc__3d1-8" value="" style="rounded=0;whiteSpace=wrap;html=1;fillColor=#dae8fc;strokeColor=#6c8ebf;" vertex="1" parent="1">
                    <mxGeometry x="100" y="450" width="325" height="310" as="geometry"/>
                </mxCell>
                <mxCell id="GjFo4K7LkgXdpPc__3d1-9" value="API开发" style="rounded=1;whiteSpace=wrap;html=1;" vertex="1" parent="1">
                    <mxGeometry x="123.75" y="472.5" width="80" height="30" as="geometry"/>
                </mxCell>
                <mxCell id="GjFo4K7LkgXdpPc__3d1-10" value="服务编排" style="rounded=1;whiteSpace=wrap;html=1;" vertex="1" parent="1">
                    <mxGeometry x="221.25" y="472.5" width="80" height="30" as="geometry"/>
                </mxCell>
                <mxCell id="GjFo4K7LkgXdpPc__3d1-11" value="应用管理" style="rounded=1;whiteSpace=wrap;html=1;" vertex="1" parent="1">
                    <mxGeometry x="322.5" y="472.5" width="80" height="30" as="geometry"/>
                </mxCell>
                <mxCell id="GjFo4K7LkgXdpPc__3d1-12" value="API发布" style="rounded=1;whiteSpace=wrap;html=1;" vertex="1" parent="1">
                    <mxGeometry x="123.75" y="522.5" width="80" height="30" as="geometry"/>
                </mxCell>
                <mxCell id="GjFo4K7LkgXdpPc__3d1-17" value="" style="rounded=0;whiteSpace=wrap;html=1;" vertex="1" parent="1">
                    <mxGeometry x="100" y="315" width="320" height="120" as="geometry"/>
                </mxCell>
                <mxCell id="GjFo4K7LkgXdpPc__3d1-18" value="API申请" style="rounded=1;whiteSpace=wrap;html=1;" vertex="1" parent="1">
                    <mxGeometry x="125" y="330" width="80" height="30" as="geometry"/>
                </mxCell>
                <mxCell id="GjFo4K7LkgXdpPc__3d1-19" value="API审批" style="rounded=1;whiteSpace=wrap;html=1;" vertex="1" parent="1">
                    <mxGeometry x="223.75" y="330" width="80" height="30" as="geometry"/>
                </mxCell>
                <mxCell id="GjFo4K7LkgXdpPc__3d1-27" value="第三方API" style="rounded=1;whiteSpace=wrap;html=1;" vertex="1" parent="1">
                    <mxGeometry x="322.5" y="811.25" width="80" height="40" as="geometry"/>
                </mxCell>
                <mxCell id="n54LEoc6PRH0DGUvS6pR-1" value="API开发" style="text;html=1;strokeColor=#A50040;fillColor=#d80073;align=center;verticalAlign=middle;whiteSpace=wrap;rounded=0;fontColor=#ffffff;" vertex="1" parent="1">
                    <mxGeometry x="40" y="582.5" width="60" height="30" as="geometry"/>
                </mxCell>
                <mxCell id="n54LEoc6PRH0DGUvS6pR-2" value="数据源" style="text;html=1;strokeColor=#A50040;fillColor=#d80073;align=center;verticalAlign=middle;whiteSpace=wrap;rounded=0;fontColor=#ffffff;" vertex="1" parent="1">
                    <mxGeometry x="40" y="815" width="60" height="30" as="geometry"/>
                </mxCell>
                <mxCell id="n54LEoc6PRH0DGUvS6pR-3" value="API市场" style="text;html=1;strokeColor=#A50040;fillColor=#d80073;align=center;verticalAlign=middle;whiteSpace=wrap;rounded=0;fontColor=#ffffff;" vertex="1" parent="1">
                    <mxGeometry x="40" y="360" width="60" height="30" as="geometry"/>
                </mxCell>
                <mxCell id="7n8m5rgnh0f6NuNOPZ9K-4" value="数据脱敏" style="rounded=1;whiteSpace=wrap;html=1;" vertex="1" parent="1">
                    <mxGeometry x="460" y="542.5" width="80" height="30" as="geometry"/>
                </mxCell>
                <mxCell id="7n8m5rgnh0f6NuNOPZ9K-5" value="访问控制" style="rounded=1;whiteSpace=wrap;html=1;" vertex="1" parent="1">
                    <mxGeometry x="550" y="542.5" width="80" height="30" as="geometry"/>
                </mxCell>
                <mxCell id="7n8m5rgnh0f6NuNOPZ9K-6" value="数据隔离" style="rounded=1;whiteSpace=wrap;html=1;" vertex="1" parent="1">
                    <mxGeometry x="640" y="542.5" width="80" height="30" as="geometry"/>
                </mxCell>
                <mxCell id="7n8m5rgnh0f6NuNOPZ9K-7" value="" style="rounded=0;whiteSpace=wrap;html=1;fillColor=#d5e8d4;strokeColor=#82b366;" vertex="1" parent="1">
                    <mxGeometry x="440" y="602.5" width="290" height="90" as="geometry"/>
                </mxCell>
                <mxCell id="7n8m5rgnh0f6NuNOPZ9K-8" value="监控运维" style="text;html=1;strokeColor=#A50040;fillColor=#d80073;align=center;verticalAlign=middle;whiteSpace=wrap;rounded=0;fontColor=#ffffff;" vertex="1" parent="1">
                    <mxGeometry x="730" y="632.5" width="60" height="30" as="geometry"/>
                </mxCell>
                <mxCell id="7n8m5rgnh0f6NuNOPZ9K-9" value="异常告警" style="rounded=1;whiteSpace=wrap;html=1;" vertex="1" parent="1">
                    <mxGeometry x="460" y="612.5" width="80" height="30" as="geometry"/>
                </mxCell>
                <mxCell id="7n8m5rgnh0f6NuNOPZ9K-10" value="监控报表" style="rounded=1;whiteSpace=wrap;html=1;" vertex="1" parent="1">
                    <mxGeometry x="550" y="612.5" width="80" height="30" as="geometry"/>
                </mxCell>
                <mxCell id="7n8m5rgnh0f6NuNOPZ9K-11" value="API运行收集" style="rounded=1;whiteSpace=wrap;html=1;" vertex="1" parent="1">
                    <mxGeometry x="640" y="612.5" width="80" height="30" as="geometry"/>
                </mxCell>
                <mxCell id="7n8m5rgnh0f6NuNOPZ9K-12" value="健康报告" style="rounded=1;whiteSpace=wrap;html=1;" vertex="1" parent="1">
                    <mxGeometry x="460" y="652.5" width="80" height="30" as="geometry"/>
                </mxCell>
                <mxCell id="7n8m5rgnh0f6NuNOPZ9K-20" value="" style="rounded=0;whiteSpace=wrap;html=1;fillColor=#dae8fc;strokeColor=#6c8ebf;" vertex="1" parent="1">
                    <mxGeometry x="440" y="532.5" width="290" height="50" as="geometry"/>
                </mxCell>
                <mxCell id="7n8m5rgnh0f6NuNOPZ9K-21" value="数据脱敏" style="rounded=1;whiteSpace=wrap;html=1;" vertex="1" parent="1">
                    <mxGeometry x="450" y="542.5" width="80" height="30" as="geometry"/>
                </mxCell>
                <mxCell id="7n8m5rgnh0f6NuNOPZ9K-22" value="访问控制" style="rounded=1;whiteSpace=wrap;html=1;" vertex="1" parent="1">
                    <mxGeometry x="540" y="542.5" width="80" height="30" as="geometry"/>
                </mxCell>
                <mxCell id="7n8m5rgnh0f6NuNOPZ9K-23" value="数据隔离" style="rounded=1;whiteSpace=wrap;html=1;" vertex="1" parent="1">
                    <mxGeometry x="630" y="542.5" width="80" height="30" as="geometry"/>
                </mxCell>
                <mxCell id="7n8m5rgnh0f6NuNOPZ9K-24" value="数据安全" style="text;html=1;strokeColor=#A50040;fillColor=#d80073;align=center;verticalAlign=middle;whiteSpace=wrap;rounded=0;fontColor=#ffffff;" vertex="1" parent="1">
                    <mxGeometry x="730" y="542.5" width="60" height="30" as="geometry"/>
                </mxCell>
                <mxCell id="7n8m5rgnh0f6NuNOPZ9K-25" value="" style="rounded=0;whiteSpace=wrap;html=1;fillColor=#f8cecc;strokeColor=#b85450;" vertex="1" parent="1">
                    <mxGeometry x="440" y="702.5" width="290" height="50" as="geometry"/>
                </mxCell>
                <mxCell id="7n8m5rgnh0f6NuNOPZ9K-26" value="访问统计" style="rounded=1;whiteSpace=wrap;html=1;" vertex="1" parent="1">
                    <mxGeometry x="450" y="712.5" width="80" height="30" as="geometry"/>
                </mxCell>
                <mxCell id="7n8m5rgnh0f6NuNOPZ9K-27" value="申请统计" style="rounded=1;whiteSpace=wrap;html=1;" vertex="1" parent="1">
                    <mxGeometry x="540" y="712.5" width="80" height="30" as="geometry"/>
                </mxCell>
                <mxCell id="7n8m5rgnh0f6NuNOPZ9K-28" value="发布统计等" style="rounded=1;whiteSpace=wrap;html=1;" vertex="1" parent="1">
                    <mxGeometry x="630" y="712.5" width="80" height="30" as="geometry"/>
                </mxCell>
                <mxCell id="7n8m5rgnh0f6NuNOPZ9K-29" value="API报表" style="text;html=1;strokeColor=#A50040;fillColor=#d80073;align=center;verticalAlign=middle;whiteSpace=wrap;rounded=0;fontColor=#ffffff;" vertex="1" parent="1">
                    <mxGeometry x="730" y="712.5" width="60" height="30" as="geometry"/>
                </mxCell>
                <mxCell id="7n8m5rgnh0f6NuNOPZ9K-30" value="" style="rounded=0;whiteSpace=wrap;html=1;" vertex="1" parent="1">
                    <mxGeometry x="440" y="782.5" width="290" height="95" as="geometry"/>
                </mxCell>
                <mxCell id="7n8m5rgnh0f6NuNOPZ9K-31" value="用户体系" style="text;html=1;strokeColor=#A50040;fillColor=#d80073;align=center;verticalAlign=middle;whiteSpace=wrap;rounded=0;fontColor=#ffffff;" vertex="1" parent="1">
                    <mxGeometry x="730" y="815" width="60" height="30" as="geometry"/>
                </mxCell>
                <mxCell id="7n8m5rgnh0f6NuNOPZ9K-32" value="用户" style="rounded=1;whiteSpace=wrap;html=1;" vertex="1" parent="1">
                    <mxGeometry x="460" y="797.5" width="70" height="30" as="geometry"/>
                </mxCell>
                <mxCell id="7n8m5rgnh0f6NuNOPZ9K-37" style="edgeStyle=none;html=1;exitX=0.25;exitY=1;exitDx=0;exitDy=0;entryX=0.5;entryY=0;entryDx=0;entryDy=0;" edge="1" parent="1" source="7n8m5rgnh0f6NuNOPZ9K-33" target="7n8m5rgnh0f6NuNOPZ9K-35">
                    <mxGeometry relative="1" as="geometry"/>
                </mxCell>
                <mxCell id="7n8m5rgnh0f6NuNOPZ9K-39" style="edgeStyle=none;html=1;exitX=0.75;exitY=1;exitDx=0;exitDy=0;entryX=0.25;entryY=0;entryDx=0;entryDy=0;" edge="1" parent="1" source="7n8m5rgnh0f6NuNOPZ9K-33" target="7n8m5rgnh0f6NuNOPZ9K-36">
                    <mxGeometry relative="1" as="geometry"/>
                </mxCell>
                <mxCell id="7n8m5rgnh0f6NuNOPZ9K-33" value="权限" style="rounded=1;whiteSpace=wrap;html=1;" vertex="1" parent="1">
                    <mxGeometry x="557.5" y="797.5" width="70" height="30" as="geometry"/>
                </mxCell>
                <mxCell id="7n8m5rgnh0f6NuNOPZ9K-34" value="地区" style="rounded=1;whiteSpace=wrap;html=1;" vertex="1" parent="1">
                    <mxGeometry x="652.5" y="797.5" width="70" height="30" as="geometry"/>
                </mxCell>
                <mxCell id="7n8m5rgnh0f6NuNOPZ9K-35" value="菜单权限" style="rounded=1;whiteSpace=wrap;html=1;" vertex="1" parent="1">
                    <mxGeometry x="510" y="847.5" width="70" height="30" as="geometry"/>
                </mxCell>
                <mxCell id="7n8m5rgnh0f6NuNOPZ9K-36" value="数据权限" style="rounded=1;whiteSpace=wrap;html=1;" vertex="1" parent="1">
                    <mxGeometry x="620" y="847.5" width="70" height="30" as="geometry"/>
                </mxCell>
                <mxCell id="7n8m5rgnh0f6NuNOPZ9K-40" value="开发测试" style="rounded=1;whiteSpace=wrap;html=1;" vertex="1" parent="1">
                    <mxGeometry x="221.25" y="522.5" width="80" height="30" as="geometry"/>
                </mxCell>
                <mxCell id="7n8m5rgnh0f6NuNOPZ9K-41" value="灰度发布" style="rounded=1;whiteSpace=wrap;html=1;" vertex="1" parent="1">
                    <mxGeometry x="322.5" y="522.5" width="80" height="30" as="geometry"/>
                </mxCell>
                <mxCell id="7n8m5rgnh0f6NuNOPZ9K-42" value="快速回滚" style="rounded=1;whiteSpace=wrap;html=1;" vertex="1" parent="1">
                    <mxGeometry x="126.25" y="572.5" width="80" height="30" as="geometry"/>
                </mxCell>
                <mxCell id="7n8m5rgnh0f6NuNOPZ9K-43" value="" style="rounded=0;whiteSpace=wrap;html=1;fillColor=#dae8fc;strokeColor=#6c8ebf;" vertex="1" parent="1">
                    <mxGeometry x="440" y="452.5" width="290" height="50" as="geometry"/>
                </mxCell>
                <mxCell id="7n8m5rgnh0f6NuNOPZ9K-44" value="流量控制" style="rounded=1;whiteSpace=wrap;html=1;" vertex="1" parent="1">
                    <mxGeometry x="450" y="462.5" width="80" height="30" as="geometry"/>
                </mxCell>
                <mxCell id="7n8m5rgnh0f6NuNOPZ9K-45" value="认证服务" style="rounded=1;whiteSpace=wrap;html=1;" vertex="1" parent="1">
                    <mxGeometry x="540" y="462.5" width="80" height="30" as="geometry"/>
                </mxCell>
                <mxCell id="7n8m5rgnh0f6NuNOPZ9K-46" value="限流熔断" style="rounded=1;whiteSpace=wrap;html=1;" vertex="1" parent="1">
                    <mxGeometry x="630" y="462.5" width="80" height="30" as="geometry"/>
                </mxCell>
                <mxCell id="7n8m5rgnh0f6NuNOPZ9K-47" value="数据访问" style="text;html=1;strokeColor=#A50040;fillColor=#d80073;align=center;verticalAlign=middle;whiteSpace=wrap;rounded=0;fontColor=#ffffff;" vertex="1" parent="1">
                    <mxGeometry x="730" y="462.5" width="60" height="30" as="geometry"/>
                </mxCell>
                <mxCell id="7n8m5rgnh0f6NuNOPZ9K-48" value="版本控制" style="rounded=1;whiteSpace=wrap;html=1;" vertex="1" parent="1">
                    <mxGeometry x="223.75" y="572.5" width="80" height="30" as="geometry"/>
                </mxCell>
                <mxCell id="0141DReeOx97SZ1ypNGt-1" value="数据缓存" style="rounded=1;whiteSpace=wrap;html=1;" vertex="1" parent="1">
                    <mxGeometry x="322.5" y="572.5" width="80" height="30" as="geometry"/>
                </mxCell>
                <mxCell id="0141DReeOx97SZ1ypNGt-2" value="跨库查询" style="rounded=1;whiteSpace=wrap;html=1;" vertex="1" parent="1">
                    <mxGeometry x="126.25" y="622.5" width="80" height="30" as="geometry"/>
                </mxCell>
                <mxCell id="0141DReeOx97SZ1ypNGt-4" value="数据转换" style="rounded=1;whiteSpace=wrap;html=1;" vertex="1" parent="1">
                    <mxGeometry x="223.75" y="622.5" width="80" height="30" as="geometry"/>
                </mxCell>
                <mxCell id="0141DReeOx97SZ1ypNGt-5" value="接口认证" style="rounded=1;whiteSpace=wrap;html=1;" vertex="1" parent="1">
                    <mxGeometry x="322.5" y="622.5" width="80" height="30" as="geometry"/>
                </mxCell>
                <mxCell id="0141DReeOx97SZ1ypNGt-8" value="函数开发" style="rounded=1;whiteSpace=wrap;html=1;" vertex="1" parent="1">
                    <mxGeometry x="125" y="672.5" width="80" height="30" as="geometry"/>
                </mxCell>
                <mxCell id="0141DReeOx97SZ1ypNGt-9" value="API店铺" style="rounded=1;whiteSpace=wrap;html=1;" vertex="1" parent="1">
                    <mxGeometry x="322.5" y="330" width="80" height="30" as="geometry"/>
                </mxCell>
                <mxCell id="0141DReeOx97SZ1ypNGt-10" value="个人API页面" style="rounded=1;whiteSpace=wrap;html=1;" vertex="1" parent="1">
                    <mxGeometry x="125" y="380" width="80" height="30" as="geometry"/>
                </mxCell>
                <mxCell id="0141DReeOx97SZ1ypNGt-11" value="调用统计" style="rounded=1;whiteSpace=wrap;html=1;" vertex="1" parent="1">
                    <mxGeometry x="220" y="380" width="80" height="30" as="geometry"/>
                </mxCell>
                <mxCell id="0141DReeOx97SZ1ypNGt-12" value="......" style="rounded=1;whiteSpace=wrap;html=1;" vertex="1" parent="1">
                    <mxGeometry x="320" y="380" width="80" height="30" as="geometry"/>
                </mxCell>
                <mxCell id="0141DReeOx97SZ1ypNGt-13" value="API网关" style="rounded=0;whiteSpace=wrap;html=1;" vertex="1" parent="1">
                    <mxGeometry x="440" y="315" width="290" height="120" as="geometry"/>
                </mxCell>
                <mxCell id="0141DReeOx97SZ1ypNGt-14" value="数据访问" style="text;html=1;strokeColor=#A50040;fillColor=#d80073;align=center;verticalAlign=middle;whiteSpace=wrap;rounded=0;fontColor=#ffffff;" vertex="1" parent="1">
                    <mxGeometry x="730" y="360" width="60" height="30" as="geometry"/>
                </mxCell>
            </root>
        </mxGraphModel>
    </diagram>
    <diagram id="b3HB1gcU2Cx4A7shBWrz" name="产品架构">
        <mxGraphModel dx="1736" dy="1818" grid="1" gridSize="10" guides="1" tooltips="1" connect="1" arrows="1" fold="1" page="1" pageScale="1" pageWidth="827" pageHeight="1169" math="0" shadow="0">
            <root>
                <mxCell id="0"/>
                <mxCell id="1" parent="0"/>
                <mxCell id="EQCq9Lw7K0WVJ8PrjlyP-3" value="" style="shape=image;verticalLabelPosition=bottom;labelBackgroundColor=default;verticalAlign=top;aspect=fixed;imageAspect=0;image=data:image/png,iVBORw0KGgoAAAANSUhEUgAABloAAAMoCAYAAACnHz0WAAAgAElEQVR4nOzdB5hU9dn38VtTll5dkKLSLDSJNBEFG1Y0EI1YsCbRV0L0iTESNT766kOM0STmjSHmImqMSiQqBlSsWEBEBUFRiihNRZCl12VNHn2v33/Pfzhz9kzZPrvz/VzXXrs75cw5ZxZm5vzOfd8GAAAAAAAAAAAAAAAAAAAAAAAAAAAAAAAAAAAAAAAAAAAAAAAAAAAAAAAAAAAAAAAAAAAAAAAAAAAAAAAAAAAAAAAAAAAAAAAAAAAAAAAAAAAAAAAAAAAAAAAAAAAAAAAAAAAAAAAAAAAAAAAAAAAAAAAAAAAAAAAAAAAAAAAAAAAAAAAAAAAAAAAAAAAAAAAAAAAAAAAAAAAAAAAAAAAAAAAAAAAAAAAAAAAAAAAAAAAAAAAAAAAAAAAAAAAAAAAAAAAAAAAAAAAAAAAAAAAAAAAAAAAAAAAAAAAAAAAAAAAAAAAAAAAAAAAAAAAAAAAAAAAAAAAAAAAAAAAAAAAAAAAAAAAAAAAAAAAAAAAAAAAAAAAAAAAAAAAAAAAAAAAAAAAAAAAAAAAAAAAAAAAAAAAAAAAAAAAAAAAAAAAAAAAAAAAAAAAAAAAA1I592O9V5+uvv64vmwIAAAAAAAAgBxTtTrkO3zazkcHXUWbWPrgMqIidZrbGzN41s3+Z2TQz+zK6nLaNiRTisFeqEEELAAAAAAAAgKqUImj5npndaWbd2NmoJsvN7Bdm9mR48QQt8fbNxZUCAAAAAAAAAJTxDTP7TXDwm5AF1Ul/X1OCv7dvsKfT+2YurxwAAAAAAAAAIOF2MxvH7kAN8n9vv2Cnp0ZFCwAAAAAAAADkvu8TsqCWjAv+/pACDdWqEDNaAAAAAAAAAFSlYEaLhtyvMLOO7FzUks/NrEvbxvuUGZAPKloAAAAAAAAAINedQ8iCWtbBzEbxJMQjaAEAAAAAAACA3DaS5wc5gL/DFAhaAAAAAAAAACC3DeD5QQ7oz5MQj6AFAAAAAAAAAHLb/jw/yAHteBLiEbQAAAAAAAAAQG4r4PlBDvg2T0I8ghYAAAAAAAAAAIAK+iY7DgAAAACqV9FudjBQn7RpxNMJAAD2ImgBAAAAgNqj9gsjg6+jzKw9LRmAWrPTzNaY2btm9i8zm2ZmX/J0AACATPZhD1Wdr7/+ur5sCgAAAIAqlKKi5XtmdqeZdWNfAzlpuZn9wsyejK4cFS0AalLwPoIDj8gJbRvvQ6YQgxktAAAAAFCzvmFmvwkO3hKyALlL/z6nBP9ev8HzBAAAUqF1GAAAAADUrNvNbBz7HKgz/L/XX/CUAQCAOFS0AAAAAEDN+T4hC1AnjQv+/QIAAJRB0AIAAAAANUND7u9mXwN11h+Cf8cAAABJCFoAAAAAoGacY2Yd2ddAndXBzEbx9AEAgCiCFgAAAACoGSPZz0Cdx79jAABQBkELAAAAANSMAexnoM7rz1MIAACiCFoAAAAAoGbsz34G6rx2PIUAACCKoAUAAAAAakYB+xmo8xiGDwAAyiBoAQAAAAAAAAAAqCCCFgAAAAAAAAAAgAoiaAEAAAAAAACAPDNxykz3FWfjlh12073T7JmZ79XJnaL11vrv3vNllS1Ty9Iy73rohSpbJuqPb/JcAgAAAAAAAED+WLryc7t9+gLr3Lyhtd+vedJ2dz2g0FZ8tsEembcydn/o+u5dOrhl6HZx10964Z2U9/eeu2mUW46n5Z02/rFyPwfR5Xh6/EE9ltgZx37HXaLw5Sd/fzXlci4c0MXGjxmR8vrb//acW+bY43q4dY1q1KDADmq/X7nXH/UDQQsAAAAAAAAA5AlVZvxpymy3sau2FZcJH359zmCb+OK77mcFC9HA5E+XHO+CDYUsccGFrg//vHbjNhfqDOrYyi48sY+9teSTtCGMAo9BPQ7K+GTELUeVOBu2bLe2rZuVrv/LC13woxDEu3F436Rwya9fOqr88Y814bUl7ituvdMFNajfCFoAAAAAAAAAIE88Mv1Nm750ravMuOzMwXbObZPchk//9Q+sUYNvu9ZYCmAUkvQ+uKMde9PDNrx7e5tw3blJO0iVIvrylSK6va8eUQjib+OqP6YvsG7tWiSuTxe0KGTxt8skupy33l+RFP68tWazq5IJhzdDjujmvisoUgijL0sTtChkURCjffCTs49Jus6HTaoMGtb/EP4J5TGCFgAAAAAAAADIE6rmUHXJ2FHHu2Dl2pGDXOXHhs3b7dK7nnAhi4IJH3b4qhRVi+zXsmm5dpJCGN1Xlq/b6n73IUwqWpdMt/HLixp0eFd77qbCxKXvLVtjNzw+p0yFjA9ItG0uaImh7f3D5FdcmKMg5dLTBsQuQ7QPVUXjW4rFtTJD/UbQAgAAAAAAAAB5YsfuElddopkjnn7/67Q3Er9v2bnHDX4PU+ggl484OutZJNHqkrfSzEgpL62zvsJtwRQEhcOgWx+c4b4rgFG1S7Y+WbsxETpZ0GLtnN9PS3nvaAu11Q9cU2XbibqBoAUAAAAA6rhHn3vbFq/+olwHPuK8Nm+pzXjnI7vxstPcGa7loTM4n5m9yEYN65e0Djpzdekn6+26i09JuzSdNbqruMTd12+P+pzPW7TSmjQqcGeG6qCHDgKNPqV/xjNFw8uoajrw1Lxxg4zblIl65E94rPTAjD+ruCr4s4V/et4JGc881rb07LS/nX/akWWu03OqYcZqhXLcgO5Vvh8BALVDr4+q0ojOKrGgbVcqrtJkzWb3OpwtBQ5+yL2fYZJxKP2JfbJuHZaO3gtofVW1Ut5KHL0fOf2Iztb9oLZuXaNtw15/d7lrJxatiNHsG7VlQ/4haAEAAACAOsz3DZc3PlpnD173/QqHLTt3l7gDLwe2edOuOPvYct1XBxw0GHZA9wOTHv+5ucvcAQf1gE93kOMndz9p63cUu/7wiQNAl31p4+5/0V3/6t1X2gcfr3GX6yBQpqDFL2P8mNLfFSik6wefWN+bRmXV7kPbelzfg21Ary4ZbxtHIct19/wrcTBm9fqtdtdV30sbtvgDVVFxw3f9fsp0oEq3uzDFdYUtm7nrdVYzQQsA1D+HHNjGvfZnQyc9qHpEwYUXfV1SIOHbcVWWP7kiG3EnVejkEdcyrGMrO+HIHhVaG39ChbapZZMGSe8P1DZMFLKEL9ftkJ8IWgAAAACgDvLVEDrgr7MsTxt4qDsQoDYXt1xwbIUOjOugvM5WVXBz4fCjsq6w0Lo8Onup618+sHfXpOu0XgoT1K4j3UH/K88caJfe+7xNe/XdxGX62Q/jDUvVSz0bqQ7+qAIkHMSkCjXC0rUQSRfY6ODRnZNedvtFZxOL9vmm2x+131w5PGNQ5gf6que97qfqmjANLnbb8Ml6O6N8u8cdmAofdNNzqvU8beZ7SberijONAQC1Q5WMFwYnWPhB7kcf0i7lurhQfkCXxP18qy4F8npd9a+h/vVJr9N+xopOdFBgb8EJIfo9brZKVOOGBWmra9Jxbb/ufd7dQsHQK28vSfm6le17Cr/unt8GVbCEwxXdDvmJoAUAUGFn/ybzWaHIb1N+UbGzfAEA6YUP1I89rkei7ZQOFvz4nqfdwYVfb9xuI44/okxYkk2AID1+PCHlddG+4zqA4QORcL93C3q8W4rBtr7VmYIaDZDVAZqmjQoS9xGdiart0m38/aPrH67o8ENo/TL0e7h3e7qAIK7ixR80ylY0sIlSKzRV6fj95ddHrVt8UKaBuunW01eqPBOEH/OXf2GdfnB3mdsphNNXdD9pX36ydkPicu0rv5/UOi5u/aMtXghaAKDu8u0i/WumQpZ0rTYfmVf6GhNtM6lKVf96EK2kHNZ/e+L1UycG6D1L26YN3WX6ujAIasLWb9oeu+zy0AkDt/5jZtI99BqmdWjaaG8gsiPLSh4gWwQtAACk11bHmjRnz8w6mdmBes9nZq31vtDMfEPbpsHr6n/0ni24bJuZ6SjGJrWeN7NPdWxKVcbqaKL3kex7AEB56AC5Qg1/0Dt8oF5UQaHWYQph1C5j2psf2i2XDkuqrPBnn4b5yojyhgoWzFb53dS33Nmwas0RDVN0lqeWm44O+vvwJHyQX9tgQbCiChF3EKdjK9e73YIDJ/pdM0S8aAjje8J70cG+Xqqza6Ptt/zcknRtueKCCu2nvz09xwUf2leP/2xEUtsxLUthk0IYbVc2M1bUlk3LunbUkMTBKb9P/D4KU9sXi+xv0cGv6ZH9lKoiJ9sWbACAukP/r/swpaqEK2tdoDN9gWs9li488RWVeg1MN8Mljn/d8iGLKkb13ubX5wy22YtW2ysLV9uIow5L3FMtRi147+QDpzh672UxYZSbh6ZWaWcfk/R6qdfJVbxO5iWCFgAA9lKAMjj46mdmh5tZm3LuH722tgx+bhmEM6kUmdn7OhHVzOYEXxt5PgAAcXSG5l+enutaYOhAejRA8VQholkfx7z6rgsqfNDgB8jHnSHqD4BkM9Mj6g+TX3HVGXoMVc/4gxCquolrgaXLLVjPvetc6A6QqN95+MCKtlMtxRRA+IMv/brtn1hH3VYHbcIHc7QcCw2j1e+q1Ijr864DS75dipajr3D1SxyFLLpfONxJx4djCqP8fkoVoCh4efzm0W6flh70Kh1UfNYJfcvcXvvRtx4LBzZ+n6R7Hv3+tiCI8gN+U+0nAED9Fh30HifT66On9ysWCk0sOKHDgpMangm1oozON1HLS3PVMIcknfjhh/DHDe/3fHXMFScfYYP7dLXde0rcextVyup90e7i0vX5zqEdEzPIRBWhOvnBv1+I8hWgqv4Mr7s/sUQz6vy8Fktz4gbqP4IWAEA+U93wUDM71cw05U5Hafapwf2hEGdY8CVf672lmb1gZmooO8vM9mRYBgAgD/he4woFVI2ig+nZtP9SW7Ftu/YEA+5bpJwZEj5AUB464BBX3aCDFgpJJt92SZnr1BrLguH2ngIaHdzwlTE92rd0IYKG4+vMVLXS8i0+1CbLQoFNtALHb6Pvlx7d5vDZqDp7N1W7FB9GhNuaqO2Xr6pJNQNn0OFd7bmbCt39LWir5qtMdPBH4Vc2FSE6A1cVSTobV8OKo4/3wpuL3fdTjuqZcVlR2t/Rwb2p/jYAAPXfkrVb3IkEmSgAib4e6YQCH6T4kyV0UkHca53CkrdCJ1ToPU349Uev8XofEK2G0f20zCvOPtZdptdjzUl7cMypZdYn2hbNEu8zSlup6sQFH5josXQShCo+U70O+opRV/25dG2Z6/U6DRhBCwAgDxUEwcq5Znamumjk0C7YJ2hTpi81v99pZk+b2T+D8IXQBQDylKo/dDBCB/HjKiFSnenpzxS9fMRGK2zVLOPO04GSZyJDzz0dhAgfzFDQ4Qfo6iBFmAIetchSu6zw+up3X9UR5g+YaFlqfearKlTdcct9z7qQZeKLpUPytZ16bHemahZ0AGjD5r0936Pbl+rsWs2aSRWIaB3iZqKE+Xkoaqf2JzP3XWfTNm2UfLZsuA1cmJ5rHSzSgaK4gz+Pzi49Y1jDgsP712IG9low+DjaWz8qfFAqOtzXY8gvANQ/fnZKKr7FaPQ2E6fMTAoa9Pp/XN+DXaXl+DF7b+fnw4VnqkXptV2vr1qGp9dwzZ7T+wNVg3o9u3V0VTg6CeXBSJuyTPQ4/sSO84/pnrT+fnD/hOvOTVw2b+mn7nu0pabeO+g1PHo5LTbzF0ELACBfqBXYj3SCS2iuSq5rEqzv+cG8l0fN7L6g1RgAIM+EW0FF20KpfYUOTgw5olvKdmLp+GqRdGdl6uBI+ECGP8D/56vOLFNd0/0gjThbYm+9vyJpXRctX+O+Rw/UKMTRgZVRw/q55ar6RqGRQhod7NABmlWPz0kEOB98vCZxXwUj6Qy/4QFXteIDgmjP91Rn10bblmgeis5k1YGd0wYemrQMv0xVofggxc9D0Rm0fh+Ef47eN1Wrr1Rn2N75w5NdOKU2Y/6g1YYtpYGSDpiF6YDPhWn2kcKm827+e+KM4XS0L49OewsAQF2TqeWkbzEapZM79HqtysuBvbsmqkYqYs7CFe5eA7of6L4rZLnunn+5EzRUudKoYUHihABV4nZq28Js6VpX+dq5Q2HG9zoWnNihWWh+mTtjBuLrtX5C8LNOYND7DlWlUvmJTAhaAAD1md7lqQH5f5lZ/zq+nQqHrgy+VNP9/8xMR7W+zIF1AwDUcRoSK0v+PDb2IElc9YZCkJnjL4o9sNH74I7uu3qtnxG6fN3G0iAgGo6ozdYZx/RyVSqPzZjvDmoo8PAHVNRWTL+rKkRtRVTB07ppg8R9PR2UmfvBCnf2qT+bVG3IRgzpXRo2RM6k1XalOrs2HCppuTr7VcaNPjFpm/06ajmZKkaqks4W9q1ZfnpeaeWQb2+iQfjhA2bRAcc6cKQQzPfC93N/tI99z3n1s6/MATMAQN1R0WH4qcKZVFUdcY/jK0JUuRpuG6bKUt+qS5UrUTrxwb8O/uIv0+2BG89P+bql1/EJj73q3l+IbznmK1pvfXCGC5u0LC3X+9vTc9xPel1NR3NpfGhD5Wf+ImgBANRHqgT5cRCwtK+H26fQ6GEz+00QuPw5aDMGAMgDca29/ODV6EBWC1pQxbUb83TQ3VdqlPfAeqqzR3W5Dpb4eSqeD3SiZ4Vq0Gy0KiZceRIOQ3Sww18XXWe15vKzbHxLM1XE+JZaFaWDM1qWKlai26wWWzL6lPTndPhwI5W45zXd2cXiAyRfOZQqyIrS7X3bN78ffZsUH7QQsgBA/sg0DF/vLaIVoelEq0LTCQ+xD7fX1GucX0b4dS36HqJnp7fd+wu9B0gZtBSXJCpTbrl0WGIZOoFj7Cfr3Tw7C95v6HHDtG90uyhVrur2Ohnko0+LkqqC9X4B+YegBQBQn+howVidbKr3a3nwzLYPwpbrgu+qcC7O4n4AgDos3YGOuNZfGsyeLmjxB/+j7bAqSy2mFAL4OS0+0IlrTeUHzz8ze1GimkUHVfyBneaN984KUXBkVroPzjnu8KTl6HG0HC1PZ8KuCs6m9S21dMAmWp0TPrs2VXXL6vWlQZYG2etgjvaVDrpo0L3fpkwtRbQO6Z67uOsyBS2+PZmvHNLwfItU+cTRuj8XzKLR/gjPYtGZuD6AAQDUb3odWP3ANRm3UbfL9JoUVp6ZKV60KlSVm9neL66iNLptcdupYOa6i09Juex012kb/XZqSL8f1I/8RdACAKgP9lU1sZmNN7N2efiM6tTau8zsZ6rSViW0mX2VA+sFAKgGcQcKfIuO6EDWTBR++IGwcWdrWmjAejjsyIZCDa3Tqs83uAAk1XwWCw506IzWZ99dlbQuvlpEbcUSt21YkKhWieutHrf9vsqnbevSs2bjztyNVtSEqdrj1qAiRW3LXCgSBCPRAb2ppDqY5YOfbA50eb7qxH/vWNjCtS3xQ4QzVaPo+rj9pOda+zU8iBgAAACZ7cs+AgDUcYPMbK6Z3Z+nIUtYu2A/zAv2CwAAad1y37PuwPq1IwelPDjvq0FKB9xnz7f58HNDNDfFEhUp8Y+jeSpanx4/nmA/uP1RVy2i9hvhUMBVqmwrLeBUSPTJ2o0Z10mD7KVnt9LZMarg0DLDX5koLNLZvJNvuySpKkfrooH0GrBbU7bs3OPCHgVZCkUG9+lqf3l6rnv0cChloaCsZ6f9M66dr24q73MNAACQ76hoAQDUVTol9dfBcHhOHEjWV50/zOwv6nJiZttzaeUAALlh4pSZibZX6dqB+GqQJqG+6alo2KzmrYiqTdQCTFUkCiF8b3QFKj68UV9zP/NEYcetPzrdOj09x91W1RmyePUX7v5qIaJ19kPt1UP9nN9Ps0vvesIevO77KefFxM2gUVDhh9hna2OoosUPj7921BB7d9lnrmWb1stflm27k4pS6zI/U8WC59JXs0RDI19J1DSL50/bZmnCMAAAAMQjaAEA1EVqlHqfOmXw7KWk8OnHZvZdM7vczJ7P0fUEAGRJw9IzDaJN1/7Kt6ZSGKLh7gozFD7ceNlpSbcLD23fsbvEzSVRe6yBvTMffI8bah+mMCB8vZ+JorZXqnjROokPLFQNo6oVhRhaVx+YaJ0VmijI0T5R2PLnq850IYOWpZBHs0bkyVdK59aE57loOdPTrKcoiHlv2RoX9CxftzUR/Ghf6HHV3kzroFDlrBP62t+CgEjhj7ZL7cT8bBzf2i2d6OyY6D5KRduroEfrNXbU8e5WCqamvf6Ba/emdmwWGSTsn+MdodZr4dZj6Wb6AAAAoCyClipUtLvebApQZ7RpxHOVZ9Qc/k7NizWzffJ9Z2RJYdSzanNvZuPMbE+dWGsAQBk6UK4D/FVBw90VWNx11ffKtAxzA+XnLnNhhAXzTMaNPjHj3A8LDbXPlipaPAUCNw7va0ccekBSRYiqK1SVMeOdj8qss6/EURjjB8D7wMYHIqrEiQZF2cxo0cyYiS++64b6d2vXwkYcdZh1O6AwtlpF+0wDc9W2a9IL77iKmXBYMaz/IbGzabKRqZJo3cbtbvtU1eP3S+cOpfti2649bv1v6X9ImUoXH9op1NL6NQ5m34wa1q9C6wkAAJDPOEhVhdbv+jpuYXqnOzL4OsrM2geXAUhtp5mpx8G7ZvYvM5tmZl/G3ZqgpXad/Zua60VuZoeZ2eNm1iuL2yLeIp3Qa2Yf1tT+mfKL6m2dAgB1RXBSVuwHBgB1zj58DgFQk3gfgVzStvE+ZAox6Glfvb6nlsJm9k8zO1/V4IQsQFaaBAfV9e/mseDf0Vnsurym5/9tQpZK6xXsR/49AQAAAAAAVBGClurxDTP7jdoBm1m3+riBQA3Tv6Mpwb+rb7Dz84rOkviVmT0RDL9H5TUL9uevqGwFAAAAAACoPIKW6nF70AcfQNUaF/z7Qn7QPJZ/mNmNBAJVbp9gvz4a7GcAAAAAAABUEEFL1fs+IQtQrcYF/85Qv7Uws5fM7Dye52p1brCfW9TjbQQAAAAAAKhWBC1VS/NX7q5PGwTkqD8w76hea2Nmr5jZMfm+I2rIMcH+bpMXWwsAAAAAAFDFCFqq1jlm1rE+bRCQozqY2SienHqpvZm9ZmZH5PuOqGFHBPu9fV5tNQAAAAAAQBUgaKlaI+vTxgA5jn9v9U+hmc0ws+75viNqSfdg/xfm5dYDAAAAAABU0DfZcVVqQD3aFiDX9ecZqleaB7NCCFlqV/fgeTjOzLbm845AblkzqRnPCNLqOHo7OwgAAABArSFoqVr716eNAXJcO56geqORmb1gZn3yfUfkCD0Pz5vZCWa2O993BlCD2ppZDzPrZmadzOxAM9vPzFoHlWbNg1VpGryH/4+Z7Qgu22ZmG8xsk5ltNLNPzWy1ma0ws8Vmtp4nEgAAAACqD0FL1SqoTxsD5DiG4dcP+5jZJDM7Mt93RI7R8/EPM/uemX2d7zsDqAYKUAYHX/3M7HAza1POh9H7+JbBzy2DcCaVIjN738zmm9mc4GsjTywAAAAAVA2CFgBAbRrPvJ2cNSJ4fn6Z7zsCqAINzGyomZ1qZqcEbfr2qcEdqxBnWPBlQYC6NKgmVAXbLDPbwxMNAAAAABXDMHwAQG0528xuYO/ntBuC5wlA+RUEgeU/grZeCjWuCdqD1WTIEmefYD2uCdZrQ7CeI4JQCAAAACi359543z5ctS7pbvr9D5NfTruo3Xu+dPedv3R1jex0rU90PeN89sUm27R1h7vtrAXL3M/6Xp5lIH9Q0QIAqA2HmdkDOXCwEentEzxPmvHwIfsKyIpagf3IzM4PzVXJdU2C9T0/mPfyqJndF7QaAwAAQD2loKCwZRNr3aJplWzgTf983cafO8QO69zOBSey7LMN9vCcD61ZowJr17qZu2xgz85lHlO30/0nXXOWu38qWufRdz+ZdK3uE71MtC6nHX140mVaL62PrFq7Iem6xg0LbGjfQxO/T3ntPXtv1Xo7d2gvm/fhZ7bgozXud91Gyzj0gMK064r8QkULAKCmafj9E2bWjD1fJ+h5etzMGub7jgDS0NywC81snpm9Y2ZX1qGQJap5sP7vBNtzIXPRAAAA6hdVZqgiQ+HE3MWrKr1tvupD1m3a7n5XMKHg5NOibTaiTyebtfhT97suVwVLWKMG37afnneiHdutnd0x+dUy18eZ/8exLmAJ02X+K46qUbQOehyFJJ4PeRSkeFoH3eaDdVvcOm/dVeLCFYUufltfmr/cbrt/uvt6fMY8/pXkOYIWAEBN+52Z9WSv1ym9zOzOfN8JQAxVgozTyXBm9rCZ9a9nO6l/sF2rgu1skgPrBAAAgEpQO6yTb37IZnxQdW26FNb4ipIJMxa632/+4XBr17SB9erUxv08tOeB7nf9fMD+rWOXM/qkvi7YmDm/cg0VFPRI5/Z7wxQFS9c8OMN6t2tpM5evs53FJa6yRhSgKAy6YuSQxO0/XbfJhS8ybeFqdx8Lqnaef3uJ+/mkft3c95VF26xtK84lzXe0DgMA1KThZvZ/2ON1kk4JelaV1vm+I4CgwmtsED4U5sEOaW9mvzGz64LvE8ysOAfWCwAAAOWk6hG11Dq232E2ZNxfq2T3qT2XvvpdPcEtWwGGWnQd0ralC17UMkzfVUmiyxWAxLXc2lVc4r7/c9aiMi2/ovRYcc745f3uUoU6aovmqTpl/LmFbrlaBwUmdzw11117/XcH2jnDBiQtTev3+p2X200Tn0mELApjRp3QNxG0aFk7g3UOtxxDfiJoAQDUFLWjmchcljprn+D5UzXS9nzfGchbqga/VO2e9dktD3fCfmZ2l5n9TCfzmdmDZvZVDqwXAAAAsqTZKJlCjMpQ8LB45VrXbqtF4wIXeCg4UUghulyzUOKCltfeXe4qTlTVosH4/bp3Srkmag8Wndei38eeXhqYtAlVmKjCReGOZrKozZcqVLReZx15qD359jIXuCz9pMgGHHaAu13jht92gdS19z5trRo3cB4rjJIAACAASURBVEHMm0s+s46Fze2xVxa4+7t1WLra3Q8wghYAQA26MzgrGnVXRzO7w8x+zHOIPDTIzP4UDLvPd/pUfH9Q1aOvt/J9hwAAAOQ7365LoYVCFbUI02XTbn7IhR+Zwh2FJAow7r50mD3wwnybPmdx2qAljkIXVc0o4NGy/DB8tTJTBYvWq/tBbWz44J5WtHm7u8zNdFm62hZ+vCYxV8ZX/Ggei6pzJkyZ5Vqg/eC7x7jWa3NXfuGqdXQf/ezDHeQ3gpZ67pO1G+2xGfNt1LB+dlD7/dzG3nTvNPf9xstOs1feXmK9D+6YuA7JtK96dtrfzj/tSHtt3lKXuA/o1aVe7iUN+dpdXGL7tWyauCy8/bp+wmOvJv0tAeWgA5SXs8PqhSuDmQ1v5vuOQN7QqXC/Dv72mW+YrK+ZvWFmfzGzG6h2AwAAyE8PPDXbtQaTiwYfZh32a5bU2kvhhZ93YkELLgUxYaoUUTWLb8GleSrD01S1xLUOU5WK5qYoHFHQ4qtaFLbomJ5vTaaQRYPs9XhqI+bu27qZ+xp79lBX9aNARcGLbqfWYQpwVA0j91410hat+NwmPDvP1u3YkzQLBvmLoCXHPPrc27Z49RflWqlh/Q+x4wZ0j71uzsIVNuG1Jdb9oLaJg+OPzFvpvo8YssZ+8vdXrXPzhvbgdd8vc/BcIc1fp70Ru9zmjRu45aZy4YAuNn7MiMS1nX5wd9pt0O39esVdF15WNsuL86dLjrczjv1Oue6jdbow+Pnx19636UvX2nM3jbLuXTqU+/GrWrrnJ5PLRxxd5vlW6Ka/B7+ftHxt/9jGDdz1i5evcc+5vh4cc2rKvzkghg5M3kPLsHpDz+MfzexIWgYhD5xiZvcF1VyIt29Q5fbdIFB/nv1Ut+lggw5O6ACDzkLVGaCZzkDVgQgdbPD91nW/DVt2xrYE0dmqattR3pYlcf3cZy1YZus3by/TUz3V/dXKJJvbarlWiV7r2kYdLIoeQAIAoL7qc3BHm9S7q6so0SwUvc4P6tXFRt4+OVFV4ueiaO6J2nKF6TpfzeJfg0e8u9xueeRle+y/Lypze0vROuyS4w934Yde8xW6dO+8t6mG3jP4Nl9bd5W48ERBi8IUT+sw6ZpC9z5IX5rH8vP7nk3MZrlj8quulZiG+et6PZYeJ+49D/IPQUsd8MZH62zVtmIb3r29tWzSIOsVVgXCxBffdT+fcGSPMterMkMHzC+993m79K4nYsMW2bJzjwsYBnVsZd3atXCXKbj50yVty9x2x+4Su+HxOS6ICdPBe3nk5YX21prNduPwvnb79AXue/v9mluTRgU2qMdBZZanA/+paH/85Oxj3LWnjX/MLWvIEd3K/L7isw1pl5OtcaNPtOk3PWy3PjjDJt92Scp7PTPzPXtrySduH1x38Smxt/FVRXF0v+P6HpxUOaNqmhnvfJQUkOzeU5IynMpk9Cn9y9xi6Sfr3XdVOMmqzze473quLfh7Ucj043uedn8zaspO2IIsXWRmZf/oUJfp+bw4mM8A1EcNgnaHPyEkzpreQDwbtFcbZ2Z76sh611k6sKABr/qQX1UUMOgAiD/AoP7q+t0HL2E6o9MfpBAdqPjBKf3cgYZpsxa6fufP/OqHZdZMw2PfW7U+ceantuHkmx8qc7vwma7aVt/uQ73TRWelTp292D5av8WaNCxI3C9uuK7agej+OhASvm2q26s/vGUZtPgwKmzZZxvcgZqOT812Z8aGxe1LAAByzR8mv2x9D+mY9UkHcVUnq9ZudN81n0UUSowd1qdMaOLff6gSJvx4lw0fZHPvmWq/nfRS0skLOmEjleHH9LG/v/q+a18WfazwyRaqwNF7mOvPOz7xPsC3LvN036It213FSrPGDWzOByvc7JiJY0rXRe8BdJ3eX+ikE4UvyG8ELTlGLZqidFB+1byVLlQoTyWFKhQU0ChwCP/HooBCwYkFB8p1lEwHzj/4eE1S0KKfVUkyb9FKm750ml14Yp+kipCNW3bYW++vsK4HFCbWa+nKz913f3De8/dTAKGgxQUi0xe47+m2KV1AsmnHHheieJ8WbY39fe3GbbH3V3ixc3dJmj1Yavm6rS48sWDf6XH1+6DDuya12fJ+N/Utt98lGph4PiBRtU6YQi1dp6qRcAWO1lOXhwMS7bfVD1yT+N1X+YQvsyD40X7MVImjx1SY5v8G1m0s7f7RNvThUPdXIKdg7tZ/zCRoQTYaBi13UP/crvfMZlbMc4t65jAVsppZL57YclModZWZ6Qybc/R5tY6tf52gD/UPPz/XHp7zYeIM0ariB9D6Aw79e3R23xWcqCd5mAKPxkFooRYd4fWYtfhTN1w2yq37nNI/C3/2qbbBf/fL8G05PN9KRMGO75u+4KM17gCJDqLoMrXz0HpE+bNndf8ubZonzlr1IZGW5bdXB0l2FX/prrPggIsFYZB6s4cPvvggSJU7Wr7Ww4cqnxZtcweLwiHLuk3bXUsVH2IBAJDLVJWi1l3XZ1k5GkehyYtd2tuvHnop0TasaaMCd2K4P06pkEWPo9fxK0YOSVqKgotxZx/jrm82+WV3ve6n11TdPk7xnhI3O2XdjnW2aHVR0mNZqOrUV8+ET7bYtaf09V+D8D1tw9g1GxJt0fR+onGDAveeZsw9U916bN61x+5+bKaNv+KM2Mob5A+CljqkPCGL/iPRAX8564S+SddFq2J0sHxmh0JXIaGD8tH2WsuDMMNXOngKWXyrKb9u4aAjzLdEU3WO/GnK7MR3rU9cK6t0fIWMp98VqGh9FBaEr1fFjH5XIBSmCpFsKkIUDL0VCXzecsFFYZmgReGNQha1Y9P31xZ8nHamS7Qlmpwzb6kLvrQtqkSqif+kFaZ5PlSa9mbph2A9/+s3JbdcP/qQdq7yRrcNB21AjLHB0GTUP+2C5/e3PLeoR84ys78Fc1lQcQqp3taJiGb2JPux6igIUAsOnTlZ1VT1EW7ZYcGZnAoQdHDhpIHdk87U9KGIr/7wtI4621PVLVG+8uPF2y5OChvCPdujfCsRf/bozOXTXcCjqhgd3PABkCpofh8Ke7Q9k15a4MIU3+7DH0zRZ6WbJj7j9qMG3XpvLVrpWoqoSsaCgMcP0hXti8G9u7ozWtdsSD6ZS6GK1ksHZNTLfcYHq+2iUwcmqnt++6PTEwdpAADIFZOuOcudUBDlZ5oo5OjSoTDjUHoFJuH3BOFAQ6+3/oQEVbWo4uTWC09081K0fJ2c4EOUKL2u3h3Ma9GJDL+/+iz3uqoWYXpMnXgRdsldj7nf9H7mzimzbdT/PGx/v26UOzFi4tNvJtqFabv1vkDvFzR0XzTUXtf59zsKUxQS+fcSGqD/+sIVrpWYr2T55cUnufcVCl1+fPcT9uANF/C3nccIWuopDS3XgX5VTCgMUPXJhi3bXRCiCg0LKmV8W7KwaNCiA+4KDqJByI6gGiQaYMRdppBFoYZCED2eqkK8aKVGOr6KJp3WKT54rggCA1+FoZBj/Jj0j5eqSiQVhTdy5w9PtnH3v+iqRC47c3Bs5UsqWr/hwTyYT9ZuqJEQwwcpcaGSWsGltiQpaAMi9G7tOnZKvTYuGIK9M993BOo8VWKMDwa60yqsaiiseiKoarzJzL6uDxtV23QAQgf9FQ4MGffXKlsbHSC4Z+ocF1zogIZ+1xmhCkPOO3mgO6ARPlMz2g9dB1Girb18NYyngxW+siTcakuttCzFkFzRtk4KtffS9uvAiT/AoSBG66ggKExDbg9s09wmnXmUO9Cj9b3+uwPthP6HuYMmClM0yDaupYivqFHFyrTQoF0dINJ6qGWJD1oObNfaHazRQRcLDgQpFNJBm2vvfdqFTjqApHXQ5bo9AAC5It1sEb0nGF9cYm2yOKbVs0t7F5zofYBeu/W6r58VTmhOin+91XUz539ondqVzjiZ1LJZxvkmvjLGU0ij+69et8lV3kwc09WFRf7ECD2GHk/vRfRYepyGDQpc5esVZx6V9Hhajn/v4tfd8/e5ZtSxifBFgdNPzys9EcQ/TutgOL5vlYb8RdBSB/hgJFuqqggPqlegEle5oTZVqky4NpiNonCkUYPknsUaiK6D7wpIfKWD5qkoDPBD+8MH2dUazFx5ffyJoGo/pgP5/rvaoU0f/1jW26b/tP1jRPn9pBAn1W16dto/68eySJu1TBQC+TBJVSznH9PdzaFRMFTeIfzlmcVTFbR+4XX07cZ+fc7g2HZ2QJauNLM27Kx6rTB4nqlqQV3WIKhiOY9nscoptLpRbzPVqZa5LZWnAwVV2SrMmzj1dRcITL2x9J/B5BfnuuoLX3miAxpX3DvdVYEobHFngP5xrDuIovkqCmh8CKOQwrfzUCDjD2a4gynXnOVCCt+r/dyhezv0+WoR0RmnnpapcEIHNHS/jTuLbezpA5KG6vaetchV0Ogx/IEcXX9asAwFJgOC26pnu9ZPB0Sqope6Hk/bpOBHB3j0GAp5VhZtc+uqy9TiRC3T1N890xnBAADkkmzfd0TfozTav3Xs66xeN8O3y3aIfLgS1r+WRltxRtc1/FjRx0213unWNd1jHZBie5FfCFpyiK+eSCXT9aq60MF+tZ3yrassGHyuQfO+ysQPh89m5ssLb5aWz4UrHVQlo6BF1TAKFcJ82FGeCg4v0/ZZaG6MhVpchWk9T+jTybULC4trb+WrfFJRWOQDDwVOmVqbvfRWabg14qjS9PuUo3q6oOWRlxeWK2jRY/lg7KD2ZauFLE1lj5736H7xodPr7y5Pau2WasaMPDd3mfuu3pl+7k6U1o3ek0hDfxxXs4Pywk/N7I9m9mW+7wjUSS3M7GkzO4anr1qda2Z6I3amRmPU4+2skxRWKARQiw0dIFB4opBFwYc/gKEDGrpe1RoKYXy7Ls2KMdfOa10ihPGttj5dt8lVkSi88QcedDBFX35OSvggha8WkRaN95785Xu3q3pFYYbWy4L1tiCg0fr626iXe3iQrsIetfpSVY4FlTI6u1azWPwMluhBHoUkQ3semPXTqVZhWg8/s8ZX9/xuzJnubFv9rmoahTzlGSwMAACAuoOgJYdE546I5o7oYL0qK/p02d/9rKBjUFCFEuWDgz9fdaadFlSKKGAIhwz+YLvaRaULWnQwX49nQbiigMOHIWon4IMcVcx4Cjr8ZaoeiVZDaHu0LakouFG1S5gqaOL4eSz+9ton0f3i919ceys/YyYV3cdVwMxb6c5KyxS0THzxXff9pEE93HfdXuunfaKwIm5fR0ORpZ+sT1QjqZokVZCh5zlu3fWcpNom/1x6cTNmLAh6fBVPuv2Tabg+8p5OiT0g33dCnugQPN8P5fuOQJ2jirvnzewInroaoSPzr5jZqerqlAfbW2eo7cXUrh0SYYhmiiiwGDG0jwtd1OZL7b0UDkxtv18ifFEAooBGt9XgezeHZNJL7rpewfJ0neae+GWr2iU8UF5tuXyLMFWr+ABGPdIHdimtRO/cfj8X8vj2HxYMlt++u8S1C1FAo9ZcZx/3HdeyQ7d3Q/efn+vmpKzbkVxIpccPr4OoOsfT5xxV94SrbdLRTBq1FdH6h2ewhB9H+0FtyZo0LHDrBwAAgPqHoCWHxFU9+APxpw08tLQiZfoCFyakqpDQge+Z4y9KGwr4ypZ1G1NXc8jfnk49m2N3cUlsMOSDDh2gvzDmfq8sXO0qTnx4clqkbVi3di3K3WarolTRobDBgmoPBRE3Du9rQ47o5i5TRYuvGokOg4/yQ/AVIoXDC98iTcuPCyXiggwtQ893uv2gZYXnxigcOfamhxOBWJhvA5ZtMOKrmCS8P7w/TZntgphomzkggmqW/HI1QQvqGJ31MUMvqTxxNUqh1mtmpmnr2fVmRbXTiT2NgiBEoYHCAlWkKFBR6KChtcs+22A/Pe/EpOGwmpOiKg7NKlHYoVZcU157z4UK/nbDeney6fM+Tsw+UQuvmyMzUPSYCiRUQaLlWFBR4vlWHI/PmOeWpSGzDzw12w3D1zrJhF/eb80aFSQqbbTeohZjfpBvOEzxfOuxsKWrSv80O4cqy/WzD4GiFq343FW0tGrcwFXvaH8qnNJytR91X7U+U/WMAqtomxMAAADUDwQtOU5tpywIBdK1uQrLVHnh21HNXrQ67fyN7ge1tbHHWdK8F09hQrogIFUlhKo7brl0mDvg/1zrZok2ZrVB2+BDEV/lo5Zj4TDCh1Jqv5Vue/0QfM2HCVf4aA6OBdUkFw4/qkyFSrZD9jNRxY2Fgq6KUmCjdVULMnl09lLXAs3/Tc1btNKFLAp0Mv2dIa/1VZeRfN8JeaZf8LwvyPcdgTqhkJClVnUP9v+xKtLN4/1Qbf4w+eUKtadSOKGB95pfEu5nrlZcCipOPbJHUosthSgaQu+rWBSGKPxQdYun9VDVi4KZVAGDHxyrChp/m7hQo3fXjq71lgKLPgd3dIGQQpqiLTtc1You87TePoTx7cGytfDjNS4s0rb6wCYd7SuFKWqTdkXxl24/+JCmc2iIv65X8FIdM3YAAABQ+whacpgOaiuY0EFtBQLZBi2Z6IOHlqk5ILdu2ZFyTocbkG7xQYsOyO/eUxJ7v1RzRSxox6VQwwcbau2Vidpu1dY8EIUuCh20r8aPib+NH4Kv26kiJ0wzXnz7sFfeXlJt1TrLg/2Zqs1atv467Q13y2tHDrK2rZvZOb+fZpfe9YQ9eN333eXj7n/Rfb98xNHVsh2oN35UkxtySu8mduShjW31+hJ76PX41v93jC49yDHvo102ZV72/5cefXBDO3Ng6b/rO/613rbu/qqK1rpeutzMUvxPCeQMDXF7iZCl1nUPnofjmNlS9dROS8HI9Zu3JypJMlGgoIH4mrWiMMDPP1Ely/ZdpScOPfbKAleBYsHgWB9keAo01HJLlSm6v+6r4EVU4RENGFS1olBIt+ndrmXGSg8FFmoRVrRluwuRfMux6XMWu/tnGjLvtyksGuj4ih4/B8ZXt3i+vZnWvUub5mWWBwAAgPxF0JKj9GHHH9QeMaR32pVUEKHg4oQje2QdRgzrf4gLBzTA3Ve16DGH3/CA3fnDk21Ary5p768D8n5ge5RaVKVS3uoVbZvai409roddd/Ep5bpvZSlAadSwwM4/prur8lB7sOMGdHeXq63aqGH9XFWHby+m211x9rFlHlWBmQKL8g7FL49pb5b2q+7VrWOFl6EWY3pO1brMr+eDY061S+993oUtFsyA0WVUsyANpX2ja3IH9T6oofXp2tgOKCxIGbQc3LG0SmvJp8XlWvbnm/+TuO+JPZuUCWk6tf6WDe3ROOX9d+35qlzBTh13QTAYPz6FB2pfI3XINLM+PBc5oU8wI+cEvQ3N951REZOuOcsKWzYpc08FGr5dVpcOhRkDCCneU5KYt+LDh46FzV1oo2UNOOwA1wpr1Kp1ZQbHexo4L5rVovkq3Q9q4+5vsxa50OW00G3VKkyPpRBH4YzCHQvmvrz27nI3o0UVMxYEOKoG8bSe9uCMxHK8fldPcD9pv8StY1yVTLhFmaiiR+ulFmZqb6b10O9q/SUKV7QvUgmvp8X8DgAAgPqLoCUH6UD+Lfc96w5qa0ZGptDDt9967oDCrIeTKzAY9PRcN8Bdw9tV1fLJ2g3uMePmkagFlkIPTxUNo0/pn/Yx4tpYRVtl+SAlE7Uxi7N+R7Fr65WKb92VLS1LA+nnL//CVaEoNDri0APcbBy1B9N+W7R8javy0TopcPDt3aKzTDw9f6p2STcUvzIUkIQrnypC6+VDsHGj956dqOBGwYsfjq/qnLZB72wgBR1HqdE/ku90Kw06ln1WvhAljipYuu4fXxk24JDG1rjBvkmXKUgZMbhVyuV9vKY4bdDSotG+1rPD3sd74+PU2xC9bSqLPy+JrbzRtsmO4q/s/TXVkoU0C57/qdWxcKCS9tHxVzNL3TMVtUHPxz/M7Htm9jXPQPmkCjxEFR/ji0usTZbvDVVNEjfDJCou2DnuiG7WpmUzF/D4GSlhCmr0FaZZJn6Oy4A33ncD+UXLUZChL80zsWA7s1m3dOucqmWXQpxVa/d2sBt9Ul/3vVMQrPj10Mlslw0f5L5rX+mycFsx/xjpZrCooqZzmsp/AAAA1G0ELTlGVRO3/mNmImSJq5CIem7uMneJhreXx7WjhrhKC4U6d131PXtv2Rp3bz+XJEwH2qeHApF0FQ3ahlT8cH8vU+uwTEPo2zZtmHYuiZbvQ4KoR5972xav/sLe+Gid29/iW4CdfkRnN8jetyxTwKDrRgxZaR99WuRu2/vgjon2bro+XYByxclH2A2Pz0k5FL+itK99QFLRdl5qA/fje552P/tqFYV9qtT53dS3EkP+O7Vt4QImBWMKdRS0VXVohHohdUlbNVDbsIYFpeFHowb72sVDktv3lbeiRCFLquBElS2+usWbNmdz4uffP7m3B/ylwwqtVbNv2sZt/0n7eKqSueCEvf+f7pj0ecoQRCHLz85KfVAt7M3FO+y+VzYlBS7+vgp/3p9Uvn715TCKoAU5aryZjeTJyUkjgufnl/m+I6paVc8CSbW8TLNg4q73IUt0uQpV0gVIFaHgI9W6Rx8vXP0TvU94nbXM1qHr0j1GquUBAACgfiFoyRE6sP2Hya8k2nH9+pzBKQfV6+C3r+JQxYaCBB3oL281gyotFOaoLdam2x911SEKGeIOnuvA+vgxI6zTD+4uc51vXeZ+/mR9YqZL74PLtrHK1DqsdPunRX7fuywFC37wvJWjokVVJ/522o4wtfzSEHwFTAqr4vajBvgrYFA7NwUP2t8KJHR2nqpeGjVIf5b5iOOPsO8c2jFxu3Tt1eIMOryrPXdTYdL8G4VWfn9Wpp3XL/4yPdESTBUsE6fMdH8TFlSw3HLBsa6SR844ppdNeuEd97zoS9crkKqulmioc/QHfmZNrrRms3hqH6avsEwVJVGzluyyFV+kr/ZQGONv06TBNxKX+2oUtRNTyCIffJK+ymZo7+T/b47u3iSrahMFKUXb/p10WZvm33LVPQqejurZ1A5o8237rwc+T7mManJm8HdA+zDkkrPN7AaekZym50dvPqbk+44AAAAAUDcRtOQIHdxfvm5r2koBXaYARlUYnoata36J5oVUhCpmFDIovBEdVI/SAHs/ZD3a+kt27i5JClC0DZoBE3fgP13rMB3oD4comZal6zLR/kl1u1RBVhzte62fqo0URqkayILnLZuAS1Ux4ee0vJUgqR7HBSGXDku7PD132gepwiAFJVc2KnBhilogPDp7qVvulWcOTAQs4fUeP6aDXT5io73w5mJ328oO4Ee9MlR/cjW1QQo0fLCiQCU8f2VIr2aJsKM8Vm/6t/vS8HxVr/zjlY1JQY0qaFTxUlzyld308OfWIab4xc9s0W1e+GBnykc/vGOBdSwsSNxWAcnRPZvavS9tyrjGby7bGdtmrEWjTfajE1q7oEXLPntAs5qeEdMk+Dt4qSYfFEhD/YgeCFqHIXftEzxPi9XNiecJAAAAQF1D0JJDJt92ScaVKU84EBeKxFE1QrqKhEzVCqqMyfRYqiIZP6bs5Tpw7++rn6MH9qN0fabbVJfafOw4mZ43L9N6h5ehQOjVu6/MuEwFXwrpsmlth7xySk1u7JWn7g1g//L8RheQeP0ObmytLHPrrkxUcRIOKnwFjYIRPV6HVmVfRvXY8t7yXWmXfvJ39rZ7fHH+VhfgKGypTDiiVmFqGaagRTq3rZUg9BSCFuQIDb9/oqbnRqHC9Dw9bmYD9d8suxEAAKDu8TPJwq05NRPt+beX2E/POzHl9ujE35nzP7Q2rZoltfKsKZu27nDroONicxevci0/nwvmyE2fvdDatmqWsV0qsG/e7wEAQFU5rab2pCpL/LwUtdEKhywaGu8rRaLttRSC6PpM5n1UGpJoOaqcsUgFzfPvbI1dgm7jHztT2zA/xF/VOA+9vtWFNxYM3a+M8FyW/ZrXyvkUNfZ3AGTwO403YifVKb3M7M583wkAAADVTaHCrAXLXJig7/q9Ktz0z9dt1drS8QJatr4Usjw850N74KnZicsUbEQt+2yDXXHvdBfMZEPrrNt+9kXZrhC6TNeFv6K302V+PRSujLx9si1eudZtg9ZR34v3lNjST4rstXeX8zeJjKhoAQBUBZWX1EjJl1puXXRiaTWLwglVcIQd2bVR4rf3ViWHHQpB/nTFgXbnE+tiZ6Fo2U0b7mtfbN0b0JzWt5m9v3q3ndhn70nxO/d8ZUcf3DBpRouVo22Yqlb8EH8f6ryxeIcN69vcBUgKbMLhUXmEg6TdJV9VaBmV1D34e9hYGw8OBIab2f9hZ9RJY83sWX02z/cdAQAAUB0ULlx779O2cWexDeyyv81d+YXZlNl271Uj7YD9W1foEbXMDVtKPwOv27Td/T7vw89s2sLVdmy3djaiTyebtfhT+2DdFvdzr64dLPxIqiRRxcunRdvsjsmv2p+v+b67LJ13lqyyax6cYe2aNrBnfvXDpFv+bfpb7rGjtC7jrzjDLXv03U/a+HOHuOoVVdKID1Remr/cLhp8mPtZ+2e/Jg3ttvunJ5Z28w+H87eJMqhoAQBUhaNqYgaCQoSrzmybCCnUcuu7/ZolhQu9DyqtdFHYERem6L63jO7gwo6oC45tZT87q5378hR+6PfwoP0rTm/jLmvbIvl8hU5Bq65N29OHJL5qRevo24S9sXRvMKNwp6K0P7zV62tlJr3+DgbXxgMDgeZmNpG5LHXWPsHzR8s3AACAajBt1kIXeChYUWCg7+t27LGX5i6t8IOpIkTBhUyYsdD9rmUrBOnVqY37eWjPA93v+jlVoDP6pL5u3dRGLJOpsxe7W2jdVZUTpUBn/h/HJr7uvnSYzVy+zrUCi1IljfhwRrdTFc7Dz891y9e6dyxs7q4fcNgB/FkiFkELAKAqHFMTe1Ehgh9ymjHTSwAAIABJREFUP23OZjf0XrNNVKWi4ESBi59PEjcjZcaCbbZmQ2n4cMEJ+9nPzyhMuv6Toi9dK69sv6KmvlXaUswPoo+jahXf9iy8jgqF/LodHWxDKl33L3AVNeGvi4e0cEP8tT8sCHGeml+jg/DDjq6tBwaC1lPt2RF1WkczuyPfdwIAAEB1WLNhmwshfNih76r00OUVpaoQhRmiKpGBPTu79luHtG3pghf9rO/6XT+nag+2q7j0M/E/Zy1KuyZqA6YwRI/Vu13LrFp7+RkragUWpXUfO6xP4lItU8HMoQeUHjMY3Lur9Tm4o/tZ2wrEoXUYAKAq9K2JvahZJqoa2bDtP+7nFV+U2KghrVywoeDk1P4tErd98b2yIcOuPf9rt0xeZ7ee187dR6HMz81c+zHNNrn3pbK9XdNRwBGmsEQBkMKO7x3dyl5evDNpZopFqlWi6zj/411uvTINxfdhSiqbt//H7nl6fZnHrkH9a+uBkfcGmdnl+b4T6okrzexhjeKqzs0p2l25+7dplMWNSh+nh5n9V+UeDQAAoPIuGz4oaRkKPRRaXP/dgVWy/J3FJW7WiVqHtWhc4KpYFJwo3BFd3rhhQdLAfE+BiUIOVbXMX7o65WB8X32jQEePd8dTc23s1h3WukXqkxb9jJbuB7Upc53agqlFmIIbzWY5d2gvu3PKbBcMyQcr1liThgUV3ynICwQtAICq0Kem9uJtT6xP/PzGx8X2xsef25iTWrsWX77aRdUmcW3DLBgWr7Dl6tMLXTswDaVv8ebWRCih8EQVI5nMWlK2YkZURXJyvxYuLFEFjgKhMF+tojBE82DCYc36rf9J/NzzoIYpg5Y3F+8oM+jfU/ik/VLLetf2CiAvqVL7HlqG1Rt6Hv+o0VtmVmupcVUo2m0nBzNn+NsEAAC1Lty2S2HGLY+87Cpahh9TuY/1frC8Qg+FKmoRpsum3fyQjT19QMZKEAU+as2lSpIHXphv0+csjg1aNAT/ybeXuRkqClZO6H+Ye0y1Kws/hoKT8FwVLVuhz6BeXcosU+3AFEC9tWilC3q0HH2d8cv73bZMn/exfadz20RYBMQhaAEAVNb+ZlZYm3tRlSgHtfl2oiXX03O3pr29QhUFNmq3pXAjPHheIUumihELAo1Uy/aD7fsd3DgpaAkPwVcoFJ4FE6UQKNVQ/DeX7cyFMCWdwuDv4ovcXUXUQxdRTVXv6Pm82MwerKsbVrTbbjGz/xv8OlcnXtbyKgEAALiwQrNKfCjy89EnZRw+n84DT812rcFEAUiH/ZpZv6snJO6hKhF9eT6ICXvslQUu5PAtvjTofnhMVYuG4GtuiqgNmfiqmXDQogH24Xkqxx3Rzfr36By7naqy8cP7tQ4+oBl39jHWuf1+NvL2ybZxZ7ELjIBUCFoAAJXVvbb3oAITH7JoDku2IUS02iRM81Iee31zmcvThSPe+6t3u6BFbcDC/BB8C6pu4iiI8fcb2qOxrU6zjjnuMIIW1CD9B/Brdni9dLvadGv0VF3auKLdLnB+xMxVs3jfqt21AgAAKA1Zbpr4TGLGSVXMHNH8kkm9u7qB+JpromWqckQBhX8MhSIKW16/8/IyYYeu89UsFsxTGfHucldt89h/X5R0e7UXU7CyfdceF46IWnxpe8Ltxrq0aZ71to06oa8LerTc68873p5/e4kbhu8DKAVDWr9eXTvwF4SUCFoAAJVVtu62BqlKxFegqB3Xo29sqZIH1zD5uMDmZxVcXngI/sIVu5JaoEU98tNOLnDRsP90YVCO66r3wHV15VHnaPJm5hQUdVG74Pn9bV1Z96BV2CO1Xe0JAAAQR5UsCiUUavjqkag/TH7Z+h7SMeX1UXEtvlat3ei++8H2E56d5wbOR0OWWQuWuQBGlTDhx1Mrr7n3TLXfTnopUf3iWpEtXO3myZwzbG91icKjIeP+aq8vXJFyrks6hS2buOWqhdqqtRtcyKLH0Lpq2SuLtiW2Kdx6DQjbl70BAKikWmtSqpBFQ/AtCEZqcwC8ghTNW9HXmQNbJNbJU3WK9/ay+PkunlqPWdBe7JTeTap/5asHzWtRU/SP5Dr2dr02Lniec17Rbtcm7AVCFgAAkKv+/mppuy215lJ7L/8VnmeiqhRd//iMeRXeCoUmL952sbVq3MAFKWr31bRRgQsuPIUsehwFHFeMHJJ0fwUaat2lAETBj+73yjsfuuuic1YUiCjEUUDiZ8WUh2a9KHhSAOVbnLVt1cw9poIetQ1TVYsG5Puh+kAUFS0AgMo6sDb2oNqF+UoWBRp3PrEu5QD8mqAgJTrb5cX5e6tRVJ3i1/WFD3amXaPnFmx3rcfkyEMbZ7x9jqqVvwvkpSvNrA1Pfb1WGDzPOVvVkqJVGAAAQM757Y9Oj12lxg33Vpqo5VbjhgUuBOnSoTBjlYgCE7X08jTYXq24/AB6hSDtWjdzVS0Kem698ETbVVzilq9KFoUscbNTFNbcHYRCnxZts2tGHWuTunaMrSoZMbSPDe7d1Ro2KHDVMJlMuuYsV8liQQWPQhrNZ/nBKf0S66Z1V0A0ccxw6965vWu5NuaeqXbvVSOpbEEZBC0AgMpqW5N7UJUjV566X6INV3WFLJqTcsfo7DsRzVqSXKXy3qrixDqpKkXVKRaqVklHA/A1I0br4Ifi10E1+neBvKVPY1fz9OeFn5rZH83sy1zbWFqFAQCAuuSwztl9zlXIMb64xNq0bJrxtj27tHfhhIbPH9vvMFdVop+HD+7pAgofoui6mfM/tE7tWrsqkkktm2VcH1cZ06W9+1n3SUXX+esbZRGChB9XFTwTx3RNCpQUNmnmi7bfhyrjrzjDrT8hC+IQtAAAKqtG32GMv6iDm19iwcD6u6cVuWCiqukxfJiTDa1DqsH1y9aW2O+fXOd+Xvx5doGQtqtDq9KX6a3F/2tbP//fci8jzN93R3GNtVbjnSdqwnnqKsCezgsdguf7oVza2KBV2C05sCoAAABVLtth8go4wrdV0BEXRihwCd8u29AnXcBSFVJtZ7SSJ7r+QBhBCwCgslrV5B781xubbcAhjW3Jp8XVOij+4zXFdv2kdWUun/KL8s/+dyFMOcOguPvEDefPVmXuW0E1+neBvEU1S365OoeCFg0Im0SrMAAAAABG0AIAqAI1ekB9yrzt7qs8ps3Z7G694ovMlSBqAabbpar8CFeVtGj4jcSyUQYVLahufXWSGXs5r/QLnvcFtbzRtAoDAAAAkISgBQBQWfvk+h4sT+VLpuqTcGXI1t1fpWwXBqDa/YhdnJcuN7MxtbjhtAoDAAAAUMa+7BIAQCVlP8gE+aQxzzaqUYGZjWYH56ULgue/pqlV2POELAAAAADiELQAACrr2+xBxKBqFtXpNDNrxh7OS82C578mnaKOkcF3AAAAACiDoAUpPffG++6rIj5ctS5xX33ftHVHle9oLfOzLza5n2ctWGZ/mPyy+3n+0tXuC0CNKd+Ud+SL//BMoxqNYufmtZp8/v9vUMnSJt93OgAAAIDUONs0RymoKGzZxFq3aFqpFVQA8dq7y7O+/XFHdLOhfQ9N/H7TP1+3Y/sdZo0afNv6XT0h9j7z/zi2zGV3TH7VfT/t6MPdMiZdU5hyWx6fMc+WflKUcd26H9TGzhk2IPH7w8/PtfdWrbcHb7jA1m/ebjM+WG0/Pc9s5ecb7I6n5trYYX3sB989JqvtBlApu82sObsQEbvYIagmaht1Jjs3r50Z/B2UVONOUKuwScHg+7yjE6WWfbbBfnreiVlv+u49X9rM+R9am1bNrF/3TlnfZ+LU1+3UI3vYYZ3bZf1YDzw127p1LEz63JKKTsxatOLzxGcaC7ZvZ3FJ0mcLAAAAoDIIWnKMqjQUIDw850Mbf+4QF1RURs8u7a1Ny/SdNeZ8sMIWrS6yK848yoU7+jDyt+lv2dZdpZ9db5r4jI08pqf7edI1Z1njhqUfUPSBRSFKlD64fLBui9196bAy12nZY+6ZardeeGLiA9igXl2sd9eObj0mzFjoHsOb+PSb7ietm39cT8HKJceX7h8FNQO77O9+1gemtq2a2TUPzrB2rZtVeh8CyOjrur6L7hhdenBn3ke7bMq87bG3OaV3Ezv+8NLA+I5/rXeD8MurRaN97UcntLZdJV/ZvS9tqrkNBOqXoWbWhOc0rzUJ/g5eqqadoBZhD5tZYS7uZIUT7yxZZbuKS6xxwwLr36NzIkCo6PI+XZf8mqQQQp9H+h7SscxniQPbtS7zeFqGPjPMXL7O/Z7t55ilq9a6xxnSp2vW66uTtPSZ4dhu7dw+CBvYs3PsyV36zHJ9EKxoXf85a5F9p3PbrB8TAAAAyISgJYcohBh5+2Rr17RBla2UPmhkqopZtXaDrdmwLXEWWcM9X9qoE/q6n0du2e4CCx+0iEIYGXDYAWWWpW2Y8Ow8G9GnU5kzzHzIIm1a7l2nA/ZvnVgPCZ/N1qJxQZnLLKj4Wbdjj32+cbsLdqYtXO0eM9zqrHe7lu5Dom5bnjPkAJTbZv1zrcu77eCOpfP8l3xanPI2O/f8b+J2J/ZskjKQSef8o1vaUT1L//9rXLCv/faZDVW9Kblkc33eONQq5mTAgr+D6gha/m8uD7zXSVnX3vu0bdxZ7E4ymrvyC7Mps+3eq0Ym3lOXl0KW0Xc/6YIL/95b9N46XBmvk7AUpOikqPB7a73X/vl9z9p+TRra1BvPS5yMtW7Tdjvv5IFlQhlV3PuA5KX5pcsv2rw96X28AqToZwkFJJNfnJsIWbSu8z78zF23smibO9ErWkXvH0u3V8V7k4YFrlJHtx3a80D3mKnCGQAAAKA8CFpyiD6E6OwvlbUPGffXKl2xuLZfqc4003r4D0/Pv73EBRbug86DM9I+hj78KEhRABINYVSt8uTby+yQti3tmlHHVviDYHT9RR+WpGNhcueic4f2qvRjAMiKDqh3qW+7asxJre2gNvFnCJ/av4UNOKRx0mWfFH2ZsUpF1ytgUdiir4u3/dseen1rla53DqFkB9WlpgehIzfp7+DnVbhmrYNWYTkd5E2btdCFBAo09H7an6j10tyllW6Zqwpy/xlAsw8PPaAw6bOCApWZdz+Z+F3v/afPXugCDIUyPx99kvscofVSUHLnlNk2a/GndtXIwUmtxBTeKBjRe/WT+nVzX2GqNunSpnlS0KJARCdzyUWDD7OLTh2YCEf8yVxah+jJVT4o8o+jAEi3858jMrU4BgAAALJF0JJD9Aa/OttcaWbJ4N6lZfm+JVc6+kCjUv6JY4aXuVU01PBn10X5Ifg680wfiq4YOSTprDZ9YPOVLP6MtPDZbPoQFr6sc/tC9wHKf8m6p2a7737bwqhkAWpEvTygrpDFV7BEtWr2TfdVEapi0ZFBBS0jBreyFV+U2Bsfp66kqcOoaEF10NyM7uxZBH8H+nvYWAU7I6dbhYWpCl1BgT9pSd9VraHLK0rtebVM36ZXVSClnwGS31uHbzd/6Wq75ZGX3QlWOilLJ1lpPkvYWUce6j4DXHHvdHe/m3+49zOFgpRUn3v8Z4IwnVil5en9vmZBzrjrMRt39jGurZmqaXQyl4KeOPrcos8QXvR3AABQdXT8zh+783TsTydyp5v9VpFZb5WVzUw6ndCh45gbtuy0oi3b3YiGxSvXuhNCdGJKeefMoX4jaMkjmlfi//GH2wLE0QcsP39l0ksLrHvn9olbKfyIVqw0bFDgPjD9z2WnuLPqLBhSqQ9XlqZ6Rv9JhUv+LfLhSm0Rwpfp7Ljwf2AKcvxjjA6dYefFDeoHUOXW18VdenjHAmvacN+ky9o0/5YdfXBD+3zzf+z6SevcTJXv9mtmPQ5sWGYuy8/PKHRhyYwF28o9b+W+VzbZoQc0dGHNqCGt7I2PP6+y7cohX9THjUKtO8rM9uFpQPB3MNjMnqrkzrglaBdWJ1w2fFDSaroqk+Xr7PrvDqzw6q9aW5pV+fbArh2ZmU2fs9h9xd1eBxnGnj7AHUh57JUFiffqauer4EWfC0TrpVmMu/aUlFlOeYQPgDx4wwXuwMY1QbV93MlcYaqqCQdR0d8BAMhH4ZlvlmbOWXnpWKKOAerYnT9pWmGGTuJo1qjAHZtM9Xi6XWm16VkZw4u4zj1x0i1LoY4eT7PiUoU7U157z95btd5V4ur9zoKP1rjfFbRom1QBTNACj6AFZegMNTdIvmkDd5baR+u32G8n7W2BrXYF50bupA824bPULDjjTv+56j+tVGeN6T8m3xbggaAyJbyc2+6fXuaysFfe2XvmnIbv+2X97I9PZgyTAFSZT+virrzg2FZlKlZ8S69pczbb6qCl18n9WljDgtLAxbf5UgDznW6lrcPUCqy8FNg8MXuzXXF6G+tYWGBnD2hWoZkvOa5O/l0g51WuNxLqm6MrGrQU7XbVKw+pG2Rd2ifh9ru+qkQVLcOP6VPhZaoqxJ9EpZkpev+vgETzTEQtuzR/xbfl1e3Dlfjh9+nTrp7gbpepSl9hjn+fH3ed5s9E6YCQhue/vnCFO7BhoYp9P8xf1TbRFsXh9Ymu37QsD9IAAFCfhGco+5lver2vzMw3nQitqg/RnDb9rmBCJ2HovYqqW3Wyg44p6udeXTtY+JF0XFEnVnxatM1Vr/75mu+nPInCC5/UHT1+qJNRoidkx10mqr6NW67eeyhI0fuOLh9+5ubVaXt0vZZlwXsnf8JJ94Pa2DnDBlRo/6F+IGjJIwo8fJWKpRhmb8Ggev/hSrf/+3Wj3OUakK8KFAuWpWBDyXAq/j+38GNa8CFJH4aiia/+w/1O57ZZPyF6YVBPaH3AEoVDd5vZ8jUbEoM6AdSI1XVxN8/7aFdi+L1aeMnHa4rdZWrnZUEg8uL8re56BS5Pzd/uLlPo0jAIWJ54s/IzVjTzpR4GLXXy7wI5ry9PEUL6V2RnFO124cpDdaFVWJxUs1Eqyrfk1QERvW/Xe2t/kEAHERS8qHolLjzR+/FdxV8mXaaDK/7ggxzYrnWZ9VNwk+qziK9y97QsVc3owEaUKtt9dbsFA/yjJ2hFPwNFfwcAIN+oSkN8sKL3ACff/FClZr7NXbwq8fqq12ZVrug1ee4v77dendq45eoEa3WuSXUytYw+qa8LPtRGrLrGKygoSXVCeHjUgo5d+m0Kvw/RZaqotWAOnIIWvX857ohuMUtEPiFoqWNUJt/3kI5JwyGzlap9V5T+k9WXL/HzpXz6rg85agegBFpns+mDkz78lKdMTv9Z6j+lcFsvLUPL/MEp/bJahj5g3v3YTFd1c97Jpa0Stu8uSbQQ8GWKAGrEyrq4m8PBhg9aFLKoaqVT62/ZxUNauMsaN/iG+65g5erTC231+hIXusjm7f+xoT0a29BgObOW7LLVm/6d1eP3PmhvNY1aiKllWT2b1VIn/y6Q8yp+2j7qo97l3aai3a5N2C11dV/oPfBNE59xJxVl+94+W+o3rvfWT769zN1DlSI62KD3/sf2Oyx2KW8tWmlLPylKuizamkvtzhpFzo4t74wWzVXRSV7rN293jxd3gCauQka3uzn0u9qMVPV+AwCgLrrk+MMT1Ss63qfX+8q01tRrq778a61ag+m4ouao+eBF31XdEjfHxfOtzP45a1HG1+u4kyeyqVZN9dgWGbWg27x+5+WJ914WnNShE9E1c8Zv985gnStyrBb1C0FLHaOSNYUJ12/eXq5yNFV3FLZsUuGN1Ye6yS/OdQmuhuP7srq40CROuC+z/gPSf+CeknOVBeqy/j06Z7U+E6e+7v6T84P6tR4zPljtPhxa0OJA9KGwMmf4AcjK0vq2mzq0+mYifAnr07Wx+/IUkIRvp0qYbIMW33rMO+rQJvUtaKl3fxeodfvX1QoEVJvC4O8i40yooFXYw8Hg+zpLlSx6DxxumRtV0ROzdHu9F1e/9tfeXZ5oraFK91Tvp6OfR7JtHVYevuLGgqG12UjVGsRSHJSJq4QBAKC+8rPPfLsvhQY6+fmqkYOrZIt13E8ncOjkCQUXOlan4ESvtxacVBGdwezpPYg/wVttUtMNxvctRC1UiXLFmUe576vWbkhZwTrngxXu+jjhudTaP9fe+7S1atzAvR96c8ln7uSPcKWt1jF60gnyF0FLjkoVjOhDi/4zUtjSpUNh2v9wwqL/eanMPzzwMq4PsqcPKgpC9J+cPtT5x9RlKvlTGp2O/kNV/2j/GPrPyJfY6T+tS+56zP2sksVsQhGtj/ojal2KNm93oY8eQy0NFKwU7ymxabMWurBF/6nqP0N6JALVSge4NtSXA6Aaki+a0xKmgfi7S75yFS2paIh+Nk7p3STReuzNxTsSs2E6vbk166Amx21gGD6qQXd2ampND/9/1uiA42yfbzW2L6ZWfduCBh1+YE17/NC++nKnbXnrx/ZVyYoqf4wKOizT/zdFu124MkknbObKSlfU318tDRpcFXdQyW2RoKCiJ2Z5OpNUnw/0/npY706uRdn0eR9XaYBSkRktng6AxAUuutwP4VfVfVwbYYUv4YMynma7AACQbxSGTJ292J3EoXBDowQqQ8f4xLc31XsTXTbt5odStiEN0/E+HTPU8b4HXphv0+csTnvcU1Uy/ninr0SpbHcbvd/xbcUaNihwv6s6Z8KUWYkWaDqmqvcrqtZZ+PEa97O2DyBoyVHp/mPQ2Wbji0sq9R+gygJ9QqvvGkIVpf9YVO6nDyr6j+V/unZIlBVOvfG8RD/maCAU7XWoGS9+IJYFs160TL8e+s9I/2n5FmVhcf0NtW/0+FoX/SesxwtXrui7/uNTSzFVusRtG4AqpyMeJ9b13TqkVzNXoaKQxQ++tyB88ZUriz8prvQ8leMPL/3/TjNhNONFIYuoDdnq1ys/8yUHfFAfNgI5pwtPSXrfalFaGaxQZM/nD1TZcrW8Vkf/yvb9Vmkl3jeHPWkbZpyVK2GLjpi/FndF0W5Tn8efmdl/1/xqVY/f/uj02OWGg4LynpilMzF1IEMDXnWgRQHLWUceaiOG9nHvzy86daA7iUknMOls1AdvuMDdr1+K1hxxFSPRdl3lmdESpRO94tqL6XIftOjzQKrPU+GDMgAA5DMdX9SXPwlas1t8tUt5af6Kn5umk6s77Ncs6b1C9P1BXDWpH1fgq3L1XmZ4mqoWvS/x7wkUdliolaje16Ry0sDuWQ399wP9NfBe75F0orlfvk4WX7Tic3eSt+bZpZr5gvxC0FJHVfZsMn34yLSMcJl+9Lbp/kOK3lYf0OJClFS3D0vV8sA/fngdo7LZRgBVZn5dDFpaNNrXTuy5NyxWKzAL5rJoZop3Yp9m7qfikq/si63/TrouTBUtmSpSdN+DO5beXwP5dXtf1RIeuF/HvVPXNwA5Kbsy3mqwb0FX+/Z+xyYWnC7EiN42lS83zowNKhRqyFclm+3LjVOTLv9W69Qjavb9drPEz6o8SXdbKV79mP1n+xsZ17Pxof9jLfv/l/v531tX2Tcat3GBTuGwJ23L27ckrWMtSfd3cXl9ClmsHGdplufELB28UJW4whm124g+ht7H6yQmVYEUbdl7okFcxUgq4ROzdCLVcWne52s9UtFBjHFnHxN731kLlmVcj3TDbwEAyBcKC/R67F9P9VqvalJ1j6lo0NLn4I42qXdXVz2q6lodjxvUq4uNvH1y4oQLVaQqbNHck2hHG13nq1kseJ8w4t3lrkPOY/99UWwHnKE9D0xUqW7dVdo6TCd3W9A6zM9V8Xy7sGxCFr9ftLyf3/dsYjaLuvuolZiWoesVtOgkFU7igBG0AACqSOajdTlEw+6vGdHGOhYmH8xRhclfnt9oV566nw3r27zMCqvd18/OSv0GSpUwmSpSRg0prYzRIH1fGeOrWrT8849uafe+tKmu/13OyYF1QP1zYG1tUcNOlybCBil6YXPKgEEhy37H/SGr5e5a+aJtW/CLpMDF37ek6APb8NLex1Bw0rz3ZVktt6BNb/eVzr83LcwYtKgdmX9MhSyqYvlm09623wn3urBF3ze/0apKq2cqIN3fxV+1GfUtbMlWeU44yua20ROcKnpAIdPsmHTXpzvJKpuZNJyEBQBAafXoyhfmu9lsCjB8Kyzf5t8qMPMtrupk1dqN7rsqTyyYp6wWntHQRCdLKIDR44cf77Lhg/4/e2cCH1V5r/9nAiSEsC9BFqksVRARC4o7bqBWqnKhRVprq7al13rV0qp1q1alrdX20uqf2ktb60YvcoWiFqsIKouobAqKgLKVLRD2QAhJIPP/PO+cdzhzcmZJMklmeb5+xsnMnOU97xnOnPd9fs/vh8VPzcRvp7wV4X5hdhtCkaUmqcPWbtkVt/yBG7aTQSZ0rLQuaG5qu7Csgq0XTccLP6PQwj5MVMARmYuEFiGEEMmAE+tBAIF06E26SKzIsnVXefjvzzaXmc/oNOHfhC4TCiAURhZ8ejyS96TOeeHC+LaeC4vhx+I7F7YN7+uNpfsj2mNdLRR43lt9CCu3xt5WChOU0CLqic6N1bEt+1wT8Tr/pGsTcnJQSDlaui3ivaYF3ZB/4vkmDVdBr8uR2/7L2DkrtvvEzdHSYpRu8K9tEQ/um/uMu1zr89Hu7MfDYk3Z1vfDdVkqytdj99tA+wt+i6YFhUYYOrj2QhxYmpgIVA9E/V4UtgAvtA8WHzbBABlRo0UIIYQQoq7cM/YS49IY8+gLxslCJwnFgtEXnxHecl1rvsEJgpjdqyt++fxb4bRhrVrk4fCRirDYQpGF+6EAMm7khRHrU7igk5Wft54613zO9Sh4wKnJligURejYobumpsdw69Zd4bRoTG1W0DzPbO+Wp2aadu8tPYKJ0+ZhwrivJVR7WmQuElqEEEIkA4aqrGbN+HTpzYenbENJWZUROab/LLL0g3WaMM2XLVr/7JxdeO+LsvAyd34tlHqEQs3zCdRVYZ0XijZwnDPeOi9/eXsPzuhTYPb3vcs74o5tUVSCAAAgAElEQVRntkXZUsqz2imGL0SyaZRJ8tyOI8O1T6oqSx2B5EocSCBBXtnm133dHgeW90abQb8xoge3zfRcpWsTM10cK92JgyvvqPZ+h4veNM+l616K6jBh+rF4QgtdLK36jgnXYznwyd+q7Y8iU/G/PkGHoc8bMabVKaPRvPMgHPj4D43hbon7vShsgTeLD6MfgBcAUxhfCCGEECJroeuD9ZRZDL+0rNykEbPuFktNa75RMHn3o3Xh13SdsOaKFXHoZGGdNLpanntnJR7+9mVm39w+nSxWRPFCoWOiU69lc/EB/Pfto4zo4eeMsftl+jKLrWPHenNsB2s8JwrFFIpETEHG1GEjzuuPBSvWG5HKOlnu/85wIxxRdPnRxJfDtexEdiKhRQghRLL4VzoJLYk4Rm4cFhJTWJvFDUUTW8B+/icH426HtWBuu7qzEVG4LaYn88K6LLOX7TdF9+l6oZDz23+mpV7xrxRog8hM2jfGURV8+dvhvw+umWZSaRmxpQbiiBc6Q5gyzIoeue37obQObaQ4kt/9XPP3kR2La7UNijCs7WJdLHTO7F/yq6jCCY9h11vnh9OLmVRiF/8epRuuwsFVExOq/5IkEvpeFLYwAvCVxYfxCwAPNVTjhBBCCCFSEdYXSSSdZ6I13/r36mqEk7P6nmjEDIoU/JviRL+eXcOiCD+bt2wNTuoSqnEypV3ruOlIrTPGMvO+sdVqQdvUYhQ9bB051oizy7GGDB81cZzkN8/D8MF9MH7MReG0YBScfjw2VFOGx8LtdXCK49tUaSJ7kdAihBAiWcwG8NNM6s21W8rCLhPWZrmx5KhJ+TV0QOhmjenE5q46FHMbFFkeHtslXGj/H+/tjVown84Ym5KMQs7oneXVnC9pwOx0a7BIGxpFaGGaLzg1U+jssG6PFj0urbXQAkeosDRtGT9XdFV5iWlDxb7PI95n8X22CTatWIw2scA+t2H/hk+aMDjOnbKtC0xdmGYd/hC3bUwtltf59HA6ND78nDD1RI2cToUt8Iviw/iAl1yOvxuigUIIIYQQ6Uqi9c0oaLiXbXFCB9+aJRQm3MslWvPNLazEqoXC7fttM54jJ9q2oh2/9/0ToxyvyC4ktAghhEgW8wBQdWiZKT1KR0nbFntwWf+WuPLMtkYs+dalHcOfM50YnSjRsCKLrcsyZ/mBuMLJk6/vwsNjm5p17L7SSGw55HwPhKgPGrwGFF0rNoXW4c1vm+fSDW+YVFkUJihS1Na5QYHEUlURW7A1+137c18RpeCU28NtPLj6f2Nugym/3AX2Cdufkxu6bFOEOfDREyi84nlzjDWBwgrFoFb9vmlqtxw7uLlG6zckhS3wRvFh9HfElitTtqFCCCGEEEKItEFCixBCiGTBXFyvAfhmJvUohZQd+yuNu8WmC7PQ5XLuqoOmvopXcGF6sbu/3iVc44XF7p9+a09C+5v4SjEm3NDNrEuxpaB5TkJ1YFKA15zvgRD1QX5D9ypdK3AcHlbkKNv0SliEKDj5+ziwtHZCCwUSS8W+NTGXZVovpuWKR7sz7zCPRKCowtRfZM+CHyEnt1O4wD9Fk2pt6Hxm2PXi93nlnhUmzRj7ie1twFotBbVZyUkl9tXiwyaN2C+S3ywhhBBCCCFENiGhRQghRDKZli5CCwvd9z4hDwXNm1T7jCLJl7vkoWfnPJxyYn447RecQvZLPi/FWScX4Mvd8434wvRirK/y6rISI5RcMaAlxl1VGF7nlUV7aySUMLXY4y8XmaL4dLawbsupPfJxz5SiJBx5vTIt1Rso0prEEyonAbpVrLBQtuW4mEIxonL/xlAR+zhF8Zl6C7i52ntu0SIk4jwZs8HulF8R22rXK+xm8fu8SUFn4y4hbLPbOeNOQeZ15fim/Dr9D+E2x0sJ1sAF8es6nnkYMKnEXlAqMSGEEEIIIURtkdAihBAimbAQOvNctU71XqXIQgHDzfodITPGyHPamjopFtZioaNl9scl4SL6TOdFsWbMhe3DYsjHG8uw/3A5ivZVhgvoPz1rJ977oqzG7eN+HppahNuv6mTasvvA0aQdez1RokL4op5hcaNmDdXJdKtYSr94MeKzw1veRZu2PeMWxWeR+FiwpsrehXdG1Gvxwy/lV27HkSbFF0w6s9nY9/7Xq63Z7tyX0bTX5UbM2TVnVNz9pCnJuDi+CaAfgCkArsjEThJCCCGEEELULxJahBBCJBOqEH8H8J+p3qt0n1hhhWzbezRcpH7mB/uxaWfoM4onVlzxQgHlvS+2YfRZIV3JLsdnOlI2762MWcMlHlz3kZd31sPR1wt/V9owUc8cpnbRUJ1MtwocMSQnr71Jh2Vx1x9pfsIQlK713wYFkKOl23w/s6m2akubr9xl1qSIcnDVxGpboSOHRenJwTXTMlVkIaVJ2s4ep14L04g9lKRtCiGEEEIIIbIECS1CCCGSzZ/TQWihiBHNaUKhJJq44odfsfqarJ8h/CXbDlg0OMGG2qG7CD5Tb8Wqj5Lf/dyoRfHLNr9eL2m0WrnSeLE4v9++2539uHlOJDWZm07D/WvOMA2ZJdoyTEd2YGlsF08aQKHlfaUSE0IIIYQQQtQECS1CCCGSzXIAywAMVs9mDcuchxD1yV4AbRuih20RfESpfUJycluaOi0k/6QxOLiydkXxa0NO7vHsjCzMT/cN68gwxRnTjLmFmJq6Wex6dV2mAdlbD7tiKrFTnVRil6fSwQohhBBCCCFSEwktQggh6gOGTz+nns0aEg+XF6L2cEK9V333X0QR/K3vY8+86CU7uo4pCtVp6TUiboH4ZELXyMFPJiD/pBvRss81TmH+y82Dqc7cBfBr2q6tU/xLbFG8sTVnoi3TSOypp93uduq1KJWYEEIIIYQQIi456iIhhBD1wFSWPVHHZgXbnfMtRH1TXxPqEdCdYinbPDvmskzbBSe9WIueP23QLwBdKizCv3PWQBS/+R1TD4ZpwqzIQo4e2mGEowynPhwtbn7h1G4pzvSOFEIIIYQQQtQeCS1CCCHqgwoA0YsaiExionO+hahvdjZED9OdAqe2yeGNv4u5bOnnx0sT5fdovAxTRw+G0pvZujIW1o854ep/od25L2ey4LKjAfbBVGL9nWchhBBCCCGEqIZShwkhhKgv/gTgbhUTzmh2AfifbO8E0WBsru8d0ZViHSHWrRILFqFnei6m7rJF8RuS5t1uRn6Pq5B/4vlhkYU1ZfZ9eDfyulyJVv2+aY7HphWj6+Xgqom+xfPTmHr/XjjsdpwtSiUmhBBCCBGDZ15diD7dO2HooFPCC/3rvZUo2lOCm6+5IGLFw0cqMG/ZGnz1/NMbpEvZjng0VFtE5iGhRQghRH1xCMDjAJ5QD2csPL8Hs70TRIOxqb53VLHnA+x+98ehv3fPS2idPQt+hKatQoPIqvIdqCjfUeNtuLHrVpVHZsRijRSYNGXd0LRll2oF6Vmb5eDq/zXpxOCIQPy74JRHfQWXA8t/FlEkv/v1JQm3Md6yFHt2vdVgolO9fy88UGhZBOBFBRIIIYQQIhNYs7EIBfm5OPGEDkk5mlYt8jD+2TmY2bWj2eae/QfxwEsLcM81Q6otu3rjdvPZ2i27MG7khbjw7j9H3e6E6y4MiyCDb5+UUFumjB+Fvj27hF9zX9cOPAln9T2x2rJL1mzBKys2SWgRtUZCixBCiPqEdz8/AdBFvZxxFAH4Y7Z3gmhQNtT3zihO1NTt4bfOkW3roy4fjyPbnvFdIie3NVqdMjpy36XFKN/5Mcp3vB81zRnFFj4o1LTqO8Y4X/I6n1FtOYojyaJi3+dJ21YC1Pv3wgcW7zmVY3cAjZczTgghhBCijsxfvtaIIhQfHvzeiDpvb8uOPRjQuzu6tFqJDz7dgNKyCkx7e7n5rFe3TuZzt6AzuN9JmHjjMNOGU04MxbBYceSRv87CxV/pY5wxfsKKW3jhssQeA8Wj6yfO8G3jhuIDNXpfiESR0CKEEKI+KQNwH4C/qZczjvvp9M72ThANyups7u6Dn0xAedGC8OtogkzU9VfegdK1T6LglNtRvv2dCDcLaUAHSrJprO8FU4ldoVRiQgghhEhXKHo8Pn1hUlv/t1kfGMFiSK8TsPrfxeZBKOQ8NXMRehW2qSboUEih+6VD21bASwuw6JP1Rpyhu4TbevejdfqOibRAQosQQoj65nkAtwI4Uz2dMSwF8Fy2d4JocHY4dYGyMl0ThZG6OGXsNii4ZBC7GqgYflQKW+AXxYeVSkwIIYQQ6QVro0ycNg8nd26HIb3yktr264ae5pt+i/VRmJ7LQjeNFVH6fakQ3xh2lvmb9V3OG9DbCC1D+/cI/+2FacD4cPNKlJRidLhs3L7LuGCiwXRi1znt7Nm1U0TKMSESQUKLEEKI+qYKwO0AmFsnoN5Oe4IA7nDOqxANDatXXqZeFw7Jy3dWBwpbYHbxYfR3xBalEhNCCCFEyjN19mJ8vnMfnrtrDCZNn98ozS1s19qIGy/N/zTi/ZkLV6FtQUj8mb9qM7bu8k/pdeuwgUaEIZNfe988j7v6XPNMUcUrwhwqKw87bGJB0UeI2iChRQghREPAu56/APiBejvt+ZNTCFqIxmCZhBbhYmmqdEZhC+OuuaL4sFKJCSGEECK1oZNk0pwVmHzLiFC6riTj5zSxMIWYhY4RPtwuFzJ8cB/jKBlz6aDwe36Oli4dWoddJ1aYieZCse8/9upiXNSni1l+f2k55q0rCr+2++F+5WYRtUFCi4gKrXLEz+4XD2vJ47rczpD+PaNevLlsvAvYnv0HsXjVxvB2aHGct2yNb9uYY5I5IamKF+TnmVyPQoiU4GcAmIy1q05H2rIVwD3Z3gmiUalZpXqR6aSc6KtUYkIIIYRIZWxdlnuuGWIK0Sebm0acExZISo+UY9aiVaagPd0rpHhfiZnTa9E8N+ae3YXs3eKMGzphrEizeEMom6wtik8RRYiGRkJLisGLzdLPNqK0rNyIBGee2jPuxScW7nyHicCLn1uYoAJ90eC+pg2Do+Q5XPbkrdXee2zqO+aZQgi3MWV8J1+hhRd4Xjxp96MS7VW8p4wfZQQb9oV7O6s3bjevi/aU4OZrLohYp7SswijQtPpNen0JenbtiBNP6JDS512ILGEfnbwAXlMKsbQk6Jy/kmzvCNGoLHK+i7qGiGCquusyIZUYA6XWbtmFH49N3EBmA6EK27eul4kbN8+8utDkb08koIrjjU/XbwuPaeAcH9OH2FzwQgghRLbA38Sig0eMs4MPN6xvwnm42ro5/m/OEjz3zkrcetVZZs5uweM/wEMvzjWfsQA+g6g5B8g6KYkEdXO+0Qonftj6LTDCSih1mBV5OJdIt4ofp51UaOYgOafIZexrRHHOCJEoElpSCF5wfvr0a9h9qAxDep0QUmOnL8TTt42stVDQv1fXsGocjUWfrMenm4pNHsNO7VqGHSFW/X1g8j8x8oL+5m9ecAvyQwMUXpz9rIAcuHxStA8TbxxW7TNu+5anZuLhb19mBmA8Li43/tk5GNClnVGpqX5zEHT5g8+H9v/SgmrFqriuXa9VizwM6N09/BkvpoTvdVzyBTZu3y2hRYjUgXdJkwH8UOck7aDa/q9s7wTR6OwGsBrAqToVWc9qpxh+SuJKJcY0Yr9w2liZjLa6A7NILOd4otvbXLQn4j2KEC8sWoNBJ3evNpbo0aVDtUAwboNjBjuhEWsCJVrwlhe/YC44kzhMd8I0H7YPLNH6guOJexxhhW1lBOwZPTsn1A4hhBAik+BvJYOY3bjrm/B3nvx+6lxzH1CTLDGzlnyBYQOOB1vwfuHu0ReYubsRqzeheG+JmfdjULQ7AAKOI8V7j8D5xQ3FB9CrsE3E+8yMQyiyJJo6zML9s+YLH3bek3Oitg5MNPeMEIkgoSWFeGX+CiNQzLxvrBEGKEqM/NVUvLV4dTXXRqJwoBFv4EVhghcUezHKP1IRVoBH7isxF0QrtBCKMISpubywzbxg8sLkvRhbkQWm4NXxNnG5mV07GuGGlj+b9isedr0PPt0QYSm02Pfo6FH6MCFSip8A4EWtv05L2rAKwN3Z3gkiZfiXhBaRLsJvYQs8XHzY1Clje+tsn3DfT9vALN571yUwiyIL75vd+cnhTDS4nfE2j7k30pWTHXf+5XV0bJlvxjE2GItRomMvH+LrzqebneMPjjmmvb3cvEdn/TNvLsN1Q0/zDeaiQMLCvVZkYVttuhBOwnAc5XXR091PMYbLM2q3ZX6ecepwWUbBxktxLIQQQmQafvOEfiLFKSd2MvOB9+wtScgByvsB/r7efMXgiEAIZuqZ/ch3sKloj/l9Z10Yuka85QDosmEANrdxWu9u4YBr3hcwy43bacKAcTjBHzWBacsSgcupRouoDRJaUggONjigsYMkPnNQYFXVuuAXORYt0oyDIXtBeePDz8yFzggVz86J2QIOfjjw48XRK5TwIjjjw7U4uXM7jB9zUfgYra2Qg8NEcadDY3owXvDdF31e3DlYtIKVECLlOAzgGwA+BKCZjdTnoHO+yrK9I0TKMBvAT3U6sp7Z6dIBTiqxAQDucFIw1prp735sVrXCCh3xdIHXJTDLwihWOwZgFCsnWNxjBd5jz3MFN/Hef9bCFUbA4BjmzuuHm3EE28UJEeZ/n79qM24beV61VGJMz8ExjhVZ4ARHeSNWLRREKCiRG87rixuuHBKeJLLiE9vgnRSxYwYW1eWDEzxczk7exEpxLIQQQmQLzCzjhfcA/D2n2NKrW6e4aUEZxG3nDzlvR37y5IywiMOgiC6tmpvt8HeYYoqFc3sMuOC9A3/neS9h5/OMgLN+a8S+GHTBoA2/YA47J2ixWXlqUlrBLqegbVFTJLSkEN4LmxnMrCsyBaqSAS9CNnehtQXGggMapgyg2uyle6fIQZBNe+aF78O5CPJiOW7khREXwhEXDMT7n20xg6NRZyd2AWP6Ago5tPy7+8piU4exVosQImVhypebAUxTrYWUhjUQbnLOlxCpwjxmNgLQUmckaznkfA/qTGGLhunCwhb4rPiwSZtZJ6GFfPeS08OTDxQIOKlRl8AsTkBQfHBPRITGAL2jLrds9SaTc91Gn/LenJGpbnhvzzHAuKdnmfWYm91CJ0rrgub4eOPOiHWYzsu6VNzQhcLtcSzDWpBznphmUpFwXEA3DYO5KPT4wXFLz67HU6R4XwshhBDZTrQgZQoNE8rKI7LSRIPCjA3Q4HoTzbzccWcL7xWsuOIN+rbB0xR2/PZFRyrFGaYbIwys9gZJ2PsMBoLQfUtYHsEuF620QrQbM64rRE2R0JJCuC9sdvBCRwvFiGTAyDFv7sJocIBlLftT3lqOfj27hpekCu11rOQ3zzMRaI/edIVJdwanSCUHV4jjnpkw7mvhgVkig0QeAx/uQRij4Wgj5ECvfUHztDrvQmQxLwN4DMC9+hKkLL9mAHW2d4JIOThiY3THN3VqspbXnO9B1mGL0zOYade+Q8Z9zhQbdI3UFtYzhCs9sKkTyTzri1aZhxcuz8kKFrqlYMH7cHtfbu/HrTOFAWOsm1h65PjpctdepGvGBk8xNYjFO9ZwF+V/9t5vGcfNeMdt7xfM5YauGvcYw/taCCGEENFJpGi9H7Vxg/i5ZuwcoJtY2WvcWXrcJFJaQYi6IqElxYhmwW9IKPJw4EJLH6PUPt+5D7+d8la4BRzMXedpD9vojlKDI5pwIEXBJlbUGNdllFrrFrHFn1hw36/cPskM0PgjwFRp7gGdECJlud+p1XKNTlHK8SqzqmR7J4iUZZqElqxmWrZ3wKoN2zFz4SrjfqewkUikaTSsW5y8tWyduf+nQMLoUcKUXay/YoUQLs+JCjvx4h4DuO/H/bBu90Tgsu4JEY6TVm/cjgUr1hvHDVyOfVvMn24b7+SLuz3e9r2SYGF+IYQQQggh4iGhJYXg4OGByf80A6ZoDpC6QMHDXVgyWsF5DtTs4IrLP3fXGPM+i1XawlF8f+KNw8J2PD/soMtbzJLHycGQVZgp7HCwxGg0RHHM1IbivSVmX2VHyqVaC5G6BJ3J0rcBnK3zlDJ86JyXYLZ3hEhZWFicNyXV/f8i0ylJl0L49QmjRPmgGPHdJ6aZ2i1u10dNsJGi3Bbv2yle2BQeTM9L4YXuFb+xCeujeNP1sgi+O60vC9XWJXCM27LudS90z1sHPZwC/t7gL+8YyPtaCCGEEEKIZCChJYWgk4UiCwWMaBY72uQHndy9Vha8RMUbW3SKNVrg2OvsMwc5jJqjq4XRbBw4cfDjZ8uLBtOEcXCz7MlbzRKMSuM2WdRyU9Eek8eZjhnWhuH2Y0FR5mv3/zUsBh0qKzftYco1umQK27c2Kdj++cvvpdS5FkJEwOL4V7LmHIDk5EoUdWGFcz4OqxdFCkPb6t8B/KdOUtbx92xNG0Ye+essUyzWjgV4fz6k1wkmaKm2QouFLhk62md8GCpgS6cI6zryPt3mRPfywacbsPrfxRHvelNzsQ5lC8dlMmn6/Grb2H2ozDx7a7PwtRVNWFeFY6Sde0vM/rxiiu0bL1zuQdd7dL3XR0CbEEIIIYQQElpSiOfeCQkbJt+wk3MYnsgs5jHm5/fsLQlHmiUCnSd1KeREZ8jU2YtNJBkFEIoh8BFNouFO40UxhAM2OCkBODDkgId1XpgHmgM8pi0gE8Z1Ndt2R8W5oeDD/nnhjcXmXaZc69JqpSmWaQeJLI4phEh59gNgFVvOwPjP5oiGYI1zHvart0Ua8GcJLVnJX7L54BlktOHNZTjz1J7GJUJHCWuqWGc46hCYxeW53aWfbcS7H63D9RNnmPfpdI/mSPGOR+KlDqNrnY4XOPUj7XscH2zbXWLGOgyW6taxdTh1mTs3uw0EiwfHDrb9XvwcLX5OGCGEEEIIIWqChJYU4rffv8q3Mcw1bOGgpSA/z4gtvbp18i0U5YfXccJBmbvgJSPhosGBymNT3zGiBiPJ7D75HiPQ6B6JBYUTukrsPijW2MHg4lUbzTNruPxo4stmew9/+zJTfJ+vmUrNXbjf3Rdw8jLffM0FZtA14bpOOK13N+PGoYBDocWKOEKItGAXgGEA5khsaRQoslzmnAch0oHlzEDKIHWdraxhmfPIWu4Zewnu/MvrGPPoC+bemvfVvNceffEZ4S6pbWCWpbSs3IwPuN1hA04ygUyzlnwRU0BJFK5/46//jqH9e4THNLMf+Q5emb8Ccz7ZZFw5bz05A5uLD2DCuK/5bpVik5/gwvdtEX664v1SHFN8sXVd3HjHGEIIIYQQQtSUgHoseewsDTZYLnsOLqyoUBvoUKEbxeK3LQosG7fvMqkCuKx7GXc+Zjpl3DVQ2DYKJ1bcoeixa9+hiG3bXM38jG2xqcq8+yjed9AM9vjgYKwmkXl2vzVJaybSjkBhC520xmT0bzbUx94LAbwJ4IwElhXJ4WMAV7C8VbL7c/rPeukUiTqzdUrUUizfoSlYPZw1fBfA834H2/36kpTvg+JQQsY6jxd4j8s0X/b+2Lpb3MxfvtaIGHSixwvMYr1Eusr3l5abNMYUWOgOv3boQHOPz/1RCGEtFLrSn733W2a9wTUoJG/TdfF+n26SmfeNNdu+8O4/m884Bhj5q6kmqKtn14645amZpg0MqHLD9Vmc3y9IzAaPxXKmKHWYSCIahwghGpRk3UcIkQw6FwSkKfigTkkiDSm0CCEMGuA0MvUktBDm/HsNwPnp0hdpzHsArgawrz4OQUKLSAYxhBbOLvNC1E0dnfFspwkaQIXfgWaT0JIoNQnM4rIUbViDMVqQEoOwiveVhAOfoqX29cMGZlHUoUBkt0FBCE7aMnewFpcraJ5XrS3eNrhxbyvWcboDwoSoAxqHCCEaFAktIpWQ0OKPOiWJSGgRosHRAKeRqUehhTQH8CyA69KhL9KUaU6E+JH6ar6EFpEMYggt5E4AT6ijM567mGk32kFKaBFCNDAahwghGhTdR4hUQkKLPzmp2CghhBDCmfz/JoBf64Yy6QSdfh1bnyKLEA3En1RbKOPh+f2fbO8EIYQQQgghROoioUUIIUQqQ0HgPgDfAHBQZyopHHT68z4JWCJDYCG4x3UyM5rH9RsghBBCCCGESGWa6uwIIYRIA6YDWOU8n6oTVms+A/B1AKvTtP1CRINVuX8CQIUXMg8WAvljtneCEEIIIUQ6Y2u7bdy+C4XtW2Nwv5PCR8M6a6zhFosh/Xuaem8W1l27aHBftGieW6te2bJjj9ke19+z/yBWbdges87bI3+dhYu/0idimXi13/zqx3Ed77GIzEFCixBCiHRhDYAznVoMP1KdsRoRdCYqWeOgLI3aLUSilDkurb+pxzKO+wEczvZOEEJkCPuX6EwKkW20PSvlDpjCwq59h6q936ldyzoJABQv/jbrg/DrxRt2oOjg8UzVA7q0Q6/CNjir74kR67370TpsKD6A64aeVm2bRXtKMGnOCkwZ3yncNrZ/0utLzOPp20aafb6yYpNvm64deBIe/N6IiPcOH6nALU/NxKizT8HN11yAxas24oGXFmB2r65Rj5/bd7ebggnXmXDdheZ1QX4uTjyhQ7h97N+ZC1eZ14XtjtebDK0DI9C41xGZgYQWIYQQ6QQnU/8LwOsAJgPoprMXl20Axjl9JkQm8zyAWx1BVmQGSwE8p3MphMgCGJI90nmcC6Cr854QIjWhSrEVwEcA/sF5eAAV6XKurLDghaLBV88/vdbbLS2rMILElPGjzOsxl4ben/b28mpuEC+7D5VhyZot1d7fX1rd6UIxZNrPb8ADk/9pBJPn7hqDMZcOMs4SOk8IxRXrHvEyeWbo2K8dOtA80xnThcLN9PnVRBm7PfLS/E9NG3ksFHku6tMFby1bh3kvLcAN5/XFj8deZpajO4bi0ec794WP3w3X+fz1JRjS64Rq+xPpjYQWIYQQ6cjrTgqxx+sC8RkAACAASURBVAD8UDXHfAk6RcLvAVCSgu0TItlUAbgdwHtyvGUEvIbd4ZxXIYTIZP7DqUXVR2dZiLShJYC+zuObANYB+BmAGel0EMuevLVetusVFii+0LFC8cEST3iJB1N+TRj3tXDar/HPzsHsR74TXouuFYpJE2/Mi9jPM68uxAuL1mDijcPC7hVu6+FvX4ZxT89C91cXGpeLhQKOPYah/XugT/dOZl8UWbj/qbMXG0HlhiuHhNfh/vigSEOhyO2E4XbGXX1utT4SmYGEFiGEEOlKiZNC7EUA/w/AV3QmwzCy6jZnwlmIbOJ9AH8B8AOd9bSHQvGibO8EIURG0wTArwDcrdMsRNrTx6kn+riTzvZYKh/Q2i27TEotOLVTenTpUOtaJ364hQXui1Ck6NLheAotptOiSEJ3DZf3phNzM3xwH1PbpXhfCXp27RiRnoyOEKbf6jJ9odmWZelnob/79+pqnim8UBRhGrJ7rhlSTeRhzRg6eqzTZ+zlQ0yfuOuvsP1nntrT9B0FFDpq5q0rQpdWzY0b5qYR55i2/N+cJZi15At8UrQvvG6PwjZG4IGTZszirhUj0h8JLUIIIdKdRU6qoBvpds7yYtisMPgAgGcVBS6yGEYTjnDSroj0ZKvjxhNCiExGIosQmYf9N/2zVD6yktIjpn7K4Nsnhd+jeHDn9cOTMuHPdF1W9OC+4IgU7s8pLlBoIX4pw7x079TGuEnYPooytnbLg85ywwacFLGd5Z9vNa4T61qZt2yNWZ7H2TI/z6QV8+PWYQPNcmwv06i5+8iIMC8tMMuMubS3eW+c89n1E2eE3S+XntkXA3p3x+TX3kfbgjwjBlFQodDCOjUjfzXVpBrbXHwAE6fNM0JSXVK2idRBQosQQohMgKLCMwCmOjUaeIPbMYvO7G4nemqSikYLgX3OmOc1pRBLS4LO+VPKQyFEJvN1iSxCZCz8t70EwMupfoCspULHhi3s3r3T4oi0WTWFrhPCQvAPOIKEdapQGKF4wfdtYXs+KDDwPVsoH056LfdrikLcjnWhcB06cSiIwHHlDDq5O0rLyk39EzipyfiedeywDsvs/j3x9tI1RpChI4VuFOvssfulq8WdUo3pyOiGsS4aiiZ8vbloT8zeYV/sLT1ihBYKSqwlY9ONcV26c6zD5frhg+p6KkWKIKFFCCFEJkGR4QkATzuCy+0ZHtW+HcCTjsByKAXaI0SqwKqVk50aTiK94PXsXzpnQogMhuHiE3WChchofg/g1VQtkO8twE7hggLFp5uKk7qf8wb0NkIOhRRbaN+vCH9doZvEC0UUixWU6Ib5xrCzzLtM78XaKu6+eMXlXgm/N38Ftu46YP5mnRmKUoXtW2PWolVRW53fPM88Xzf0NJzWu5sRlFj4Hk49GLaFjwlloUL/TFsmMgMJLUIIITIRig6/cQax33QEl0wKE1nuCCz/m6o370KkAD8BwJC8/joZacMqRXgLIbKAbzALjk60EBlNN9ZRd+qJphwUC3p27RRRf4TOCwoJdcFd+8WybPUm8xf3Fwu6V6z7hc4S9+t47XI7UFiAHj5ikhfWUBl1dvxi/BRZWhc0NynQdh8qM24Y1mLxbt8t0jBNWTRBySvmUAQSmYOEFiGEEJkMRYjnnMdgp0D2WABt0vCYDzip0f7Me8kUaI8Qqc5hZzLrQwCtdLZSnoPO+SrL9o4QQmQ8I3WKhcgKRqaq0DLp9SU4uXM7k8aKDgvWD6G4wVRflt9PnWtSb3mLxsdizieb8N1LjtcaKT1SjqdmLjLF4plKq1O7ltXWZhouK864a6y4xRWbQsyPZ15daN6tScozCk0sVH/P2Esi2kHoVnHDtGWE/UVXCgUWumHcBfm9sAYN06NZWKuF7pmHv30ZChy3C/ujPtw9onGR0CKEECJbWOY8fkx3tBNhdDWAghQ+/lKnzsQ0J5XOkRRokxDpxGqOu5x/Q6rXkrqwLstNzvkSQohM5yydYSGygjNT9SDvHn0Bxj87B2MefcGIBxRZWD9k7OVDwsuccmIns8w9e0vC6bZiQedK0cEj6NWtk6mJwlRhD70416xBgYGCi63b4hZcbEH8eBxy0mxZKOKQGR+uNceTKLYezT3XDIlw9Cz9LFS8v7Dd8fgsto3HRIoOHq/n0rl9a1NQ3w3dN/a4bP0Z9smUt5abNGYTbxwWkSLMtt9PfBLpi4QWIYQQ2QbvlP7hPJoDGArgSufRLwX6ghONbziP+RJXhKgzLET6GIB71ZUpy68BTM/2ThBCZA0n6FQLkRV0SdWDpEtldq+uWLwqJC6MOK9/tTohrKdSkJ9nxBaKJ/HqiCxYsd4UsCc/mviycYxQmGCarRNP6IBn+52E+cvX4pk3l5ki9pNvGWFEjVjOEDer/11snCRW9CneW2L29+hNV5jtJwLTilFUosjC7dC1w5RgcJwr3J57W7Z/Zt431rST6zL1l7tQvxs6cqzj5bl3VhqRhn1ga8TAldrM7o+CjMgcFNmXRHaWBoMZczBCpAeBwhY6U43J6N9syLRDor/3XADnO6nGTnfeqy92AVjp1Fyh5/l9572MYfrPemXS4YhGYuuU1nXdMe95ZwK4Rucw5XjVSa1Rp/vo7teXpPyBFh82TxovCJEZ1G4csn8JdB0QIqsIoG1yTGyNdR9BBwgLuscTM5h+rLSswjg0KFBEW4cpuljD5KLBfc3rzUV7Em5LQX5u3HZQzIEjJvl9VtiudVj04OtSl1OGbWIqNXdb6XRxb2vNxiJEw7aPyxTvK0H/Xl2rCSnufTLFWLoKLZ0LAtIUfFCnJBEJLUI0OBJaGpkMFFr8OMEppt0HwElO8dKOzoMijJ0BZkhLDoAqp54KKXGEk93OYysAVgNc5xR93pE6h1k/SGgRySAJQgvhL8bbAM7WSUkZWD/nUqeeTp2Q0CKEaGAktAghEiHthRYh/JDQ4o9ShwkhhBCx2eE85qqfhEhrDjspAt8FMFCnstFZ4ZyPOossQgghhBBCCNHYSGgRQghRa+RWEEKkGfsBDHfqH/XVyWs01jjnYX+WHr8QQgghhBAiw8jRCRVCCCGEEFkE0/kNcyb7RcPDfr8s0+pRCSGEEEIIIbIbCS1CCCGEECLb2MZ6lwA+1plvUD52+n17Fh2zEEIIIYQQIguQ0CKEEEIIIbKRYqcQ+3s6+w3Ce05/F2fBsQohhBBCCCGyDAktWcL/zVmCf723strB8j1+lihbduzBI3+dhWWrN5l19+w/GF6Tf/NzPtt98fnwkQqzj/nL10bdC5dbs7GoTieD67Nd8bbJ9vu9/8yrC2O2UQghhBAZxz4njdhLOrX1yjSnn/dl8DEKIYQQQgghshgVw08xKEos/WwjSsvKTcOG9O+JDm1b1amRFD4ee3UxLurTJeJ9bvutZevQo7CN7zqLV22s9n7RnhK8smITundqg0lzVuCG83bhyrNPRd+eXczyD7y0ABNvHGaeCZ9n9++J1f8uNo+hg07xbSOXm3DdhWY7g2+fFPVYpowfZZahWMJ2WLhueH+PfAebivaE28LlLRRSuF7rgubYuP14avCLBvc1x2O3I4QQQois4QiAbwLYAOAeAAGd+qQRBPAYgPudv0UWwQCs4n0HMbjfSQ1+0L+fOheDTu4edeyBOO3jWOPir/SJuX6icHw3b9kafPX8033bacdSicKAsWlvL8ed1w9Hi+a51Y6J7+3adwjF+0rQv1dXrNqw3RxHrH3ZsV9txp7c7uiLz8CJJ3Qwr9k+jrP8jlcIIYQQIpOR0JJC8Mb4lqdmmgYN6XUCFm/YgUmvL8HTt40M37jWhhfeWIwurZqjbUEelqzZEt5CYfvWmLeuCANKj5jBBOn3pUJ8Y9hZ5uacQsW1A/0HRp9uKjaflZQeMTfxvGHn9si7H60zzxRxbjivr/mbx9KxZX54P+TB740wN/XcFxwRh30Al6Bi4Q379RNnRLSB++c2rDBDsaTL60vMIIHHOaBLu4jBEQc5z7y5zLzPdrv7oiA/L9xm+36yBldCCCGESHkoAtwHYBmAvwGoW5SLILQ93wRgunqj/uA9ckF+bp3GCm54L15aVoEeXTpETOK779nduO/X7X28bcsHn24wwV4MZOrZtVO1e3k39t7f754/GsuevNV8Quc8A7rcMLBqziebwuMSix3ruNt367CBuPmaC6qtf1bfE+vUl5bVG7ebcRXHOtwPxySbi/aYMdQLi9bglBM7hZe1/e7XDzPvG2vODdcLtW+N6VfSqV1LI5BMf/djfLxxJ64bepoZ0yz/fKt5zTGN3Zef0GLHflPGdzJ/xzoHtt/N36s3hbfLtpFFn6w3AWy2bTBjrePf0VhBdW7c40FvkF0s3O0TQgghhGhIJLSkELwxJlZY4YDm8gefx1uLV1e7+U8UDjx480s3i3ewULy3xDzzRvyl+Z+avykuuOFr666x8CZ3+ODQcofKysNixLinQyKKvQmmiIN1oRRdRQePYNTZoeXczhHrgrHvb911wPw9+bX3jTBk2V8a2QYvHEi4XTQW3sjbm+0HJv8TnxTtM+KPe0BDkYWDMAowPC4rMBW2a51m3yAhhBBC1BGKAquc51PVmbXmMwBf5xxzmrY/LaBTe/yzc8LBR8ng539709wv817d7Uhw37O7YTCXHbv8bdYH5hPbFgoaBw+Xh53rcCbBKchw2ZtGnGMm5/0m9d2T7Lyfd7eH6YHdbaHIsqH4gBnTWOheJ+57fjvesbB9ndu3Nn3YpUPrenNg0DFDlz33U3K43LhK3MfsPhZvsBlfEy7PPmPwGgPyeM45/uGDYy/2D4POeLwc+/Vas8WMn+xnNm2yO6jMik48H9bpz2cbgOYVLLz9TmYtWmXGUBwT0mVDeC6IfW335RYD3efTBuLZ7000sY2C2HkDeodfU9Ah7veEEEIIIRoTCS0pxncvOT18E8qoJN64WvGhNoy4YKAZ4Mxftdm4Yyh2cHu86ebAiPAm195wJ+LgsDfTs5Z8gaH9e4Tf580465xQMLHL3XzFYEeoWWNugkuPlANzVoRvrPnMh3sA9crtk4zgwSgo3kDTPTPu6nMxzonysvAYXvFERNmIObiiqSz3f2c48Pxb2Fx8wES4sa95DLsPlRkhiAMW7p8DCIpSNbHwCyGEECJjWAPgTABPAPiRUonVCDqD/gjgLgBladTutIOT449PX5jUZtOdQJEFjijhJzy4J9+tG3/itHn479tH+W6TwWLuiXAGgb3/2RYTkBUvkKom9CpsE9HeJc7kfcR7Lje7hWOfmV071jlVczy4n8n5eShs1yrs/HD3ZaJOHoosXlHNjoc2O6mT4Qp8gyPk2CwDHGOxHyiG2AA7Cjh2eXdGA3cmArgEFHebuR5FpDNP7YkBvUOOJo7B+D0ac+mg8LLJGFdRDHNvxwo5GrMJIYQQIlWQ0JJC/HjsZaYx1pr/xoefmZvU20aeV+tG0nrOm1IOPviY8eFaIzC4b745qOJA59xTjztebFQTRRJ35BJvvCmu0GZPfnfL1eHPeDPOKCuKHVyHUWUcAJ7cuZ35/JP1W9Ey/7hLxQ+bcoDWekJRaG/pkYh6KvZmmi4dCjDuQQlFFvu5ex04whVdMqwvw20y+o19wj6m6MQ+udUp7m/ToAkhMouH3t9T4+MJBoMXImgmDalOH6tlhzRhHYhATvBxADWaGXv43E4JLCWESDIUCf4LwOs02gLopg6OyzYanJ0+E/UIU09R3OA99pBese+ta8KCFevNPfHdoy8w7gtOpMeaxGZwGCf+/VI6udN5cULfOsXPOa2XGQ9QaLEO+XmOA96NV3Tg2MLPUQPHCUF3j1sY4JgEHrHAnRbY3T66Lehs8aYZo9jkdX/UBVsLxrpL6BCx2LGPF7r83e1nGmRv6i2Oz+wYaMHjPzAuftun/IyCB8eVcISnQ062AtsX7L8xjtBjHTQ8p1YoYRtOO6kwQjjhd/Cxqe+Yv3luKfJ4z5n7tdcd43c+vQF0Qggh0o+GrM9ma4LFwj1HaHE7a22ge7xaZX6fc/9M56mSA8KNhJYUhAULZy5cFaqf0qWdiXyqLRx00CJOYWHEWV82N82MIiMcRPFmfcUXWyMGO3AivtzF83lzbAcqfbqHJv1o33576RqzPUax0QXCCxXzHbPd1q3ytfv/am7y6R45o2fnanVf9jjiBm+2rcuGLhaKLIycouPEDnJoZbcXSYom3gsmI6jshdYbtcbBjB10sR10tbBujHXecED5yvyQA6YufS6ESGGqatG0AF5EAD0SWDIuwWCA2zlDXxEh0obXnRRiLOj+QwA5OnXVoIvlTwDuAeA/WyySytTZi/H5zn147q4xmDR9flI2zftxppzi/T3dCXDuq2MJLZxs5726e8xgoXBBQcU6xRGKuzITG9bJwjFKNNwudU7Yu9NGeV3rcILDOM6xQsH+0pBA4RYL3OmQbftsOrEBvbtHpFnmthiQZd8riBMsFgt3fRH3cblhYBw/Y60VOC5+Hos9VptSrGfXjmFHjMXWZ+E5/OnTr6F9QXPcc80QM0ZjgBmdH3b/DLDz1rOJ6Mcj5eF+smMqjiM5LrOvuT+OAa37yQ3HjDbFGP9OJA2YFZMYQGf3G01U86vv4hZovCnvhBBCxIZzhva6H01kqAkNVZ8Nrt8Lm57Ui/3Mey/D31F3QAGc2ta8D5p8S2sT+G5/W+ESdELbQ0QWHc5d2mASb307kZ1IaElBqIbywZvl7z4xzdRusW6XmrJzb4kZiBFe7ChycEBEQYOf0XVib2RP6x0K1uQNuLWB2wuuvamlKLHYSVNAdwyxtVfceYK5nBVmKOhwUDDyV1ONaHLrVcejwRhNZt0xtLRfOLC3qfXCG21eDHmjzm365Z12pw7jIIIXUA6WOCjiMfLZfcHldpgizIotjMCzRfrhRHxxIMO+SVZBUSFEalFVVXOlJdAkqVmDgvpKCJF2lDgpxF4E8P8AfEWnMMxHAG4D8F6KtCfj4YQI71cn3zIiqemuGKVJhg/pZyYJOBHOe/2xlw+JmDTwukZ4b80xgxcb3emdMLeTGuOc15y48HO0eCNQ3WmjYkWvusUBv9cW2z4bmMVtu/dnBaJkTNpzHPNggkXgObljRRMKJLbWDNvmV/TfQrcLBTKO7ThRRgGOLhSmbmPkLs8VHVAMsOPf7vEYYUQunJqbNvDN9g3Hb27smJHfEa/gxcko686JFWnsPp+2LmcsUc+Kc+4JNm/tnkSL7AshhAgFS1gHJOfC+NvAcgO27lptaaj6bG78UoP6Ydtgf1NsbWj+hlJkYT88NXNRtVp1/D12B4m0dfZnA8O5Hfajt86ayE4ktKQQHLi4Le28yaYYwH/wtRVaeJGztVQ4WKIgwUEDL0T8LOQmWWCEEXsx7dezq7moUGThjfq1A7eYiyEFH1tQku8zkglOHRg4AydegHhzfs/YS4xFnW2/8/rhZoDGixbFEXtzTi49s69JIUARhtu2BfrdkVdwRSq5b67dqcNsAUsKLTbyzDs4unX0ULNNpk6juGPzEnM52+f83ApHQogMJFAr0eRIAsskSvIS0gshGppFTu2WGxk4zbnCLD4DnBl/AMCztfQKilpg67LQrZDslBy8h+Y9/Kfrt5kHi7ZTRFn62caIlBhu1wf/rmn0q9et4HW6W+zkh7t9S1wTG5kIj5FCCSdpbLSt7R9OOFHYsP1vnThcHk76Lo7r2EecBOKED8dKVhjjxBnPKyfReF7drpqfPDkjLHbZSTGeIxvoxm14x1UcN1JIsUJLQX5orMcxnLcYvt85dp9Pb5o3v9o93uwLNt200j0nTuXqV1C1by1yz7oNgWb5tdpG1e4vUPn5P9Ck+4Vo2uPcurVnxRQEKw+i2cDv1ro9bo5ufh/Hti5As/7XI6fN8fmGqgPbULlqSq3afHTdHBwrXl5tm8mkfNHjyGl3Cpr1u7baVtnfRzfNRZNu56JJl4HVPg8e3otj25cDuQW1Oh/2O1GfxxeL8Dk7+T+Q0/HLEUseK1qBoxvfTMp3Tfgzb9maCHGA11XOy721eLUR6etCQ9Vnqym8X+G8pQ3y4O8K02kyuw1/YxlcQvGJv5/u3zz+HvI3b97EGRG/RTwWBnhzm/MSdOSIzEdCSwrBm9INby4z0UgUJmz0kS1eSH4/dS4Gndy9RjkAqcZSaGHkEm+uhw04yVwQuH1rPacKy5tzXni4b960MqJp5n3dwpa61i3yzPpMU8Boq+feWWkio2y+YlrruCwvSrxwUWThQJDbs6kFYAZYuyMK/ru1ckZAUfSBx/rttRJyW0yF5laLeTympo3rhpvvWUcQ20yYJoAXUeZh5nYoPvHYrXuH1j8hhBBCCB8oKjzD7E2M4aBxF0DHLOqo3QBYa4oRMIdToD1ZBSfKOUnOgCHrCLcwKKm2kZS8z+Y9NO/h3VGhFF6Yztg97kiGw4MT75y0iOVA4ESGFQM4vuBYxp06zC9tFXA8nUd7xwnifR0NjgXym+c1aMoPb1/GisjluWVKkjGPvmCyBXBiB05kLZ0r3BbHWxyz3fmX18O1WVhHhcfOsRfHXRzL8by6vyfjx1yEkdt3m4km9heD5bi++/zwHNhC+X6ZBji+47iVgg7Txux+Z6Xvchb3+fSmeYvmcnLDfcAJEBQJUnEIVTtmoGr3FRGT9nay24vf5H+gRQcE9y5G5Y4ZyGkz3UzO28n6WOSdd3f1T3Nb4tj6p0J/nvmfYUEkFjEn3StKzfHh5P+IfL/ysHm/SeGgqFumoOFHsHSnWbcSMGJANLwiQU0wbcYo/zWatcCxzc8iWFESRWjZg8qVDyDnhFE1FiModB11+r9i72LkXviHuGJLtO9KIvh+B5zjP1bQrVofVu3fZD5r2vOKWu1PxIeCN+ca7e8Bfydm3je2Tj3XkPXZbJ2zaGnD4AoO4bL8neRvvPv3j795DBQYsOQLkyLzRxNfNvcXNkMPf8esC8YGgts51Y837jTLuudrmX6TyytDTnYjoSWFoAuEN8a8gbaFJXkjPPri4+n86frgTfA9e0sSKsjIf+S8IeZFgw9ul7VJ4ORI5g0xB1VML/bL598ytVbIrEWrIlwuvGBQ3aVzhDVk2AZb9J4XU7aFN+9MHcDP7EWT+Y950//bKW8ZMYdtYSQeU4n5XXxssX5enCm62GKRbts5B0K8oF3nyZXM42F/McKP7Ydz028dQbTEc//uQYwdpLFvbNQYn+0xCSGEEEL4QJHhCQaKO4LL7QAyecZvO4AnHYHlUAq0Jyuhe2TK+Mj6Hu76FpyIRy0CsyhckAnjvhYhNNgUv9Y9UFusi8LCQCd3IXg39p7fK0IkmjrMO0njjjB1R6G6YXuYrpkCRrw+s8VwGZRWE1cRx0Ne3GnY4Dg73I4hNwxoo7so5EbpGC7cz2MyAsjQgWYsxvEOl2HKMStIMc2cbTs/43jJPRHEZ3fdF04eUQiBJ42LTensBwMFT164Crc8NdOkZeYklB92bEeRJdHUYXYdK5qx7fxeMnDOK4zVpZZOJlI245xqR1Xx/g8jXjc7fUJoQrv3bQgUdEawshRHV//ad/I/0KI9mg3+udlG5Ud/RN7Fv4zZaxRlghVbnZiESCjiVO1cbISEY93ORaBFjJiFigOo2js3plhSF8rn3xBzbfZP+Y7o0er5oz4ILbf7i6jbYj837VM9zaIfwcoyBA9sNZ8EWg4KiRFFVyDQrEWdRB2LFVly2l+GJt0vMWJNxYI74ostVsyqFdW/AxSHjq4ZZNrS9MtfNd8vixXvcjqeXOfjFf7w94Gi/Y2//nt4Xsy6OmpLQ9dnW7tlF0pKYyef4O+hzczjDeC2f3vrp1n37YPObyQDAXg8fO+337/K/F7xXotznHZ+lTA9J9vozsQjsg8JLSkE/7HSLUIhg+4Km2vXfQPJQQdvIClm9OrWKe4NPi8KNpqIOZ3Xbd1lhAReSDjogTOoWr1xu3Gw8Aaaqb24jL0pJ8xTaCOnrDPlosF9Td4MCy80FDVscflSx4LHm3ne1HN7jDqiFY834Yx4Kt53MCyK8ILL5ah2U2jhBcp7IYUrhzR55tVQvRg7gHO3me/xRt8W6LS1b+AZKNhC+DZCq58zqGQ7pEQLIYQQIgYUHX4DYCKAbzqCS/3MBDUOyx2B5X85xaIvQuNinOCeNF1+k9Q1CcyiAMD7bUZkeietmeKX98RMI0Khoy5wPEAnPCcybLorG4XqThfMCFu/4vrx4PjI7bawIoZ9TdHIbxKeEz/WzcNxVzw4DrHOjkSFFpsHH8745OFvXxYu2u9mzKUIF8O32HHX5Q8+b/rQHQgHZzyGlxaYdnGcyLHOrVt3hcdQXL6geZ4RWTj+4nGyXs3EafOqCWtwJpdMhoCR5wFzVkSIWrb2ih/czv3fGW4EKzt5xwktr3hiRT0rCibCJ+u3htfhNhmYyL5wTwayxiicFGriOJzc94NODTpKAs0Kwp826TbETOLTtWBee0QNd4orOiiMO+bAj3xTXrnXCe7YGvGeO8VXs9NuRPn8uTi27X3jaonqejACxtx6O7N5Q19Iynbo+PH2OfvaOkeiOWeMkMTPKKS06WZEFq9gYwUyK+rUBgo4Fe9NMKIVRZbc8x8IpW3LLUDl0vEonzsazc6cGNUdQ6HIikVWVOJ3wXveeN75/YjWVj8B8MgbV4X/bn71O2FB58hrl1RblucrGYKTQHhu8Hf9e4Z/31q1yKt10HFD1mfjb96Sv84yQQoMKIcrFaV9HardfDx4g9uia4e/WfxdtVl0+BtpM+D4YYIYXL+BvKfg3CcDzfv3CsVZMUiBv721uYcRmYWElhSDg6d4kVT8fEJZOQrb1awAJm88KX7wYsBtcLBhhRwOFChScJu8eXcrsLwQuaOc4OTh5XruaDMO6ibf0jti0MHPeeNrtwtH2GE+SL7mNqgM2xzPw1dtNO9TZOLF2F5UbfQYXALPEOfHNr9nMQAAIABJREFUgBdHm5/X7pv1WM5yludyXnjs3KfdB/vTHgt/VKjCJ7PAqBBCCCEyGt4oPec8BgP4AQDmX2iThgd9wEmN9mfOX6ZAe0QMWEfRS00Dszjp753ghzMu4Wf2vt/rpvHi1xYKEryvN/nPr+oTUXSeQWDLPz8+CWtTmPkV14enEK4t2G5xB1T5EW3SiK5+pjpmzclE0oaxbxOJoHUzdfZisx+OqZjyyhactxNBXtiPtr4JYft4Hh96ca4RqSgicXLMimP8HM54iRkKbGHjEef1x4IV640wYZ0sFEMo/FB0YYqUZ+/9lulXG2HMZ5shAD6TZX71VjgBRQGFmQm4H7aHufhNHU3nOG0dUk5C+TlR4BNpzO8dYbpqHisdPfwecRKL6c64DQb68Vxwco2ikooQR8JJ8fJ370ewYh+aX/7H8GcVS/9k0nY1v/L1UI0PF1XFIZGuSddIocWd4op1XlD5/QgHQsK4Unxxsrwuk+Z+E/bRHCV0bfBhcYsAdv9WIEgEP4GB/eF1rVjhKlbbKHxQSLLbDLTpHiH+BCsPG6ElkNs9obb5wZonlcseNQ6jJj1ujKiNQ2El0Ox/zOcUXKqKb0xa7Rw/KEZZAYrH7BX1jhV9bJ7dnx3dMAPBQ8vNuhS0RHJw1yLhM38DWOM52dldUqk+28//9mY44MNum/dM1ikKn1ph/JyiD+cej//OLDZzrHbe8NGbrjApXt01qUV2IqElTalNfmT3wAYutdkSbRCWqKsjWpu823ULNLwoudezf3vb5l7OvX60fXq368W7fe+yycg/LYTIGHKSeCDJ3JYQIjVZ5jx+zFsKBvIBuJrjtBQ+X6UAXmP9as5nM4g0BdokEiDafXqigVnefOVe3J/FC0Lya4t1lLAtxn3hgYFaE647HsHqV2fGBoBRSLBiTzxHBCf2E+Gfv/ye71LeNCLhtqzeZKJY3S76eAwf0g8Dv9zd9A8fFHU2F0VPx8Z+ptjCwDF3n9u2sl0MFrN9YCfEKKAwlRhFCHsuOA778diQSMX+5/nu4BTHZ4plu73hAEZe0N+kJWPGAdsHDFizbaAQQlHFQnEu1E8dTTAf64Ha5dkmni+bqcFCscn7PbLfEbbfOn24bbscHUD2e+yu4UmuPPtUM4HHADq/75dgrZVTzYQ2J/w5oU5XA9N1MSWVVyixn9HtEEtEMRPwSZqEP7brM1Ng3494hdDd7hEWrXenQAsfU4wJ/US264dbsHHD4vTlb49D09N/erzdFaXmKVDQydc5Y1wh7S8z7h46WuD0b8AlPrEoP2nS+4YIV0zV/n87+zgQ6ZZxnDFw2lT52TRzXuGIF01Pusy4ZoKudjAtWdO+/4mja/5klq3aMSfyOJIIxShT6H99yDnlFacoeJnDcBXp5/ml0JJo+jURHwrhPQoj44EocjAwoD6or/pszGJj025aMSZaGk44KdOuc/62y7Nd7jlCW/jewgAJi1sw8qYr5TFqLlFIaBFCCCFi86Uk9o9CXITIHihW/MN5MPx+KOcFnUe/FOiF1QDecB7zJa5kHqk02Pdri58DJZbo45c6LRqJ1qepSXthMgS0MiJLTeqzWIHFEk/cIi1iBLpFW9ebbcCN9313m7zBePZ97zre5dyBbX4im1+mhlgBfNH6xd3X3vW9bRLVYe0LCg3GqdLjXBz793tmmaZ9q7srrJOAdTsaCtbioEDiFTcoZsQTRryT7qbovZMCLfxejAn9aOS0rdutP10hOS1CTh0KBMSvmH2Y3DZRXT1VB7aZvqAwltP2JF9XjHXEWKwzhi4Wm3LMiGctTzQiSqx6M6Rpv3tNnR7rbmFat4aC58u6ioKHdwNWMNq72PSBSB6jzj7FOBFHXxyq2cX6V9YtaalpzTc3DVGfrXunkFBknSmsmeJ+7V4GTo0v9+d0tnCf3pppXkeLO92ndee468fAVTNPCAktQgghRHQCLOWEADoloT4BJ1r/rb4WIivhSHO28/gJA7YBMEz0fCfV2OnOe/UFR6crnZorLHD3vvOeEKIGeEUTIVIVb2F2TrCXOa4GOGJA5dLQpLzFpg2j+6Kh8Yog0VwjDUG84vjRoAuIBeVZWL7ig3uRe86vjWjAPqZb6Oi62WbNWHVt3JiaKgvuMO/kDhpfLaUYHS3sp7AjxuI4YyjuME1YTts+pn/pbqGbJR4UfZp0PRNHv3gNTbqFHC1GANl/fBhj6vwg5KaxjpvwZ4dCNZO87/sJXd6UbpHfx0/NMbAfmPIsp33ti7SL6lw7dCDmr9qMkb+aapwYFFmYgvGGK4/3c01qvvlR3/XZtu6Kn07MvYx1crr3jSgOGLprLBR7bDkDiixsK+uEedNgukUdkb1IaBFCCCGiQ1f9i0ZuEUKI5EGR41XnYWHBhv4AOLJjCDeTsXd0Hpz1slWe2zhpCKuceiqkxNnmbufBwhccRTLh9CoAO3TuhBAie/ArzO4HJ8yrnPebnTrGpIw6unZabAdGPRC1UHxD7f/ANjQ7+T9M7ZhEoXDhTbHGVFdMuUUhi2ILsc6cqp2LjfskUFAYNyWXLVxPgYEwvVruGd/3d77EcMS43Shsa6J1dXgc7nWtqOOFx8OHH97l/YQWm9LN1mBp2vMKBAsHGSfQsS3/QNNTRx13WiWY+k0kBl2Hfxz/dVP/iikemXLT1nC21LTmm6Uh6rN5XSix4LJMD8b9UiQZd/W5eGzqO2a7Vjhx14axHCorxzmn9cLEafNM/TPun0KRTcXJY2FtFzpg+DlTcAohoUUIIYSIRdCZzhRCiPplh/Pwn7EQQgghEoQT6k2+dL6pxRENOiRsKjHYYu59/9NMkB/d/LV6qc8RjZq6SEyReaf+CZwaHuZ522Jf54X9PExuQcTxVa6aknAhfAuFLD/xwNTCKQ2l3yJNug4ydVeafeVHqFiwFkdX/g5NOk6OKnpQ9Kn48JdGeCAsgs+2lb+9GM0G/7xGIhjFoGPblyewpA+uPuJxuo+VbhV+T/z6gDVW2N78UR9Eb1flYfNsU7rZGizhY8stQOWOGeb7WbU/VKQ8p1MqZF3NLCgWxEsLlmjNNzcNUZ+Ntcq8jLk0drtGX3wGSssqzL6evfdbpjZYrJpptl4Y3S0UZ7xt7N+ra7gO2fXDB9UorajIXCS0CCGEEDEIBh2xRQjRaHS/vkSdL4QQQtQAiiyxBAy/4uwUZypXAsc2/LNBhRZvW+IJL8e2LvAVRliPxg8u617eFIV3HR8Lr8dys1C8sa4L1gpp2muU6ato0LUSbuv2UBF343ZxhKyKj/9i6qj4wZRdxt3R+zZzPIH2Q9C0e8glEyytWdbP4OE9tU7D5u2jiO1WhkSu2tazsccRbX3u9+jK7qY4P109pkZNG5W6bCxqW/OtPuuz1aY+lzf1ZyI10xDj+N21yoSwSGgRQgghopMjP4sQQgghhEhXOGHPIvEWuj6iCRJ0XnCCPSRK/LLBjjha6qtohESKSKGCxd/hKTxPd0jVrtVxC+FHm8RnSrPKT5816bFY76TJgB/GdZTQRULXCp0ohGIB3RhGaHHcGzHbUjgQOYUTQ2KDc574d06b6TUWG9ivbmcJ23bkjatM2/KueMGcbzgOFbp/mg28PqHtMg0anBR1tcG6VGKtb0Up83evUbXajxBCNDQSWoQQQojoBAIBTALQOQm+liZMQwvgPvW3EEIIIYRoCAIFnSOEDHdqLV8q4heYTjbewuk1hanE6Pggza98PZyWy6bgOrb1HeQO+Wm1dF1cj+6YaLCwu3WxBCtKcHTjm+bhpkn3C8POD1NbZfHvjAvD1sgxqdi+eC1c8ySak8USzUWSDEcHnTRwRAwrssBJsWZFnXhiC8UaU2um5aCEa754qdq70og9sdYPFHQK/11b54wQQjQ0ElqEEEKI6BxDAN9npuAk9VGRhBYhhBBCCJFKmGLnn//DiCycRKerpSHIacc0QqOquTzM/nMLEmpB5epXwvVQmp05MWLyPu+S36FyxXM4tvlZlL+9tsY1TiyB3HZxl7EF7Nl/dBFZFw1FjEC7Xg3Qm7GhmEWnkkkJ5nH4sOh81b7PQqnKCjrHdABVfjYttE4tXSZ0GZl6LD1ujLlM5bJHw68rPrgXuRf+QenDhBApj4QWIYQQIjabAJycpD7arL4WQgghhBANBWuLuIUMujS8hN0DuW2MEyNW/ZFk0qzftXG3ZgunV3v/8F7jHjHuitzuyD3n19VSkNG1QSfJ0bZ9QrVR3v+hEWPCRd57nBuzFk2o6PtyNDvtxrjpzazIktP+sghXSKLpuOoTkwJt5QOmbbln3Wb2RDEDlYdN/7JmSk67U037zXJtv+R7vJUrphjRim6W2n5Hjm161zwzRZoluHexaRucFHAUWYwr6MyJof0uHY+KBXdIbBFCpDwSWoQQQgghhBBCCCGylECzFnFTWiUCxQ8Wf2exdLonbJ2S2sC0XqgoNWm/DC6HS0gACdXvMOKBT1owN8ahkVtgJuxDReXvjSrycL85LTqav8P7ToAm3S9BTuchaNrn8qgLU/CwqdtsQflEKV/0eERB//A2d8xA2YzI9/OGvhAWSiiolM+/IfT33rk48tpc3z3S6WLr81Qsn2jcQO70Ynb/RtQ6+/6IzxKFbTGuGX4vKkqNG6lq31ojquS0HIaKpX8yQg4cd9JxEWyiOW/lc0cbITBezR0hhGgsJLQIIYQQQgghhBBCZBLNWpiJc3cNEYTrkpxkPk82FDusAELXQ9O+N9R+D5yId7ZlCtF3OSP8ER04nKxnrZFEJ91tQfnKVVPQpOuZUZcL7tuAcqfeCxwhJ5Fi/Ym0w6Roc47JHEdud3N+EoHLNSkclNCy7iLzdIDYejHh92zNE35HPA6RyhXdTBoxVJYBHjGF36fcM74fU9Sy6eB829Us3/SnEaU69TPnAs75bfrlq00tG+MI+sqPItrFcxdo9j8R6cSEECIVCeisJI+dpcG6FkoWQtSMQGHyxwcig/n5wt01/5LlYG0SU4d9COCcmqzwyHkdk7RrIYQQjUlxKPuNxgtCZAa1G4fsXwJdB4TIKgJoe1ZSjlf3ESKV6FwQkKbgQ07KtUgIIYQQQgghhBBCCCGEECJNUOowIYQQQggh6oGH3t9T440Gg8ELEcRdAJozPXwtW9UEwJFATvBxAAtrsuLD53aq5S6FEEIIIYQQInuR0CKEEEIIIUR9UFWLbQbwIgLokYzWBIMBbueMBBYVQgghhBBCCFEHJLQIIYQQQghRD1RV1VxpCTRJarpj5fFOPQ4CaJXtnSBEmlOhEyiEEEIILxJahBBCCCGEqA9qVyPySBJbUq7zmnIUSWgRIu0p0ikUQgghhBcVwxdCCCGEEEKIhmGl+lmItGepTqEQQgghvEhoEUIIIYQQQoiGYab6WYi0R/+OhRBCCFENCS1CCCGyh6SWPhBCCCFqzP8B2KpuEyJt2eb8OxZCCCGEiEBCixBCiOwhBwik0y+fylgLIUSmwSLaP9FZFSJtGa/6V0IIIYTwQ0KLEEKI7CJQ2/rUQgjRICTz/lz3+qkJo+GfyPZOECINeUJuFiGEEEJEQ4OvLGH+8rXmYTl8pAL/em8l1mwsqlEHcBtchw+uHw3353zes/9gzO3+furcam2xbVy2elNCbXvkr7MijlEIIXwJSmwRQqQ0X0pi47rpVKcs9wL4f9neCUKkEZOcf7dCCCGEEL40VbekLhQeCvJzceIJHercxnc/Wmeehw46xTzPW7YGD7y0ALcOG4iN23eZ9wry88Kfx9pO905t0Kd7J7N+YfvWGNzvpGrLPTb1HfP81fNPN8tNGd8JHdq28t3mlh178MKiNbjy7FPD71FkeWDyPzFvXUh8mTJ+FPr27BKxHoWVi7/SJ9zmV1Zswll9T4z6uRBCRGCFlvjpuRRdLoRoKHhluhkBdHJSTNWF5gD+rTOXshwDcBtvr3nrDKBPtneIECnKOkdgeVknSAghhBCxkNCSotCZMf7ZObh24El48HsjktpIChsUPwZ0aYetuw7g003FRtCg6EJRgiLH5qI9vuvuLy3H/tJinDegNy7q0wWzFq1CYbtWEWIQXSifFO3DxBuH+e77lqdm4uFvX2YEGh7nzIWrzGeTX3sfbQvyMObSQebvz3fuw8z7xuKtxatx519eD69j8QorXuJ9LoQQdLUYnSW22HJCEjuqMOs7XQgRC16NXoQcd9nEdACvAfgGgP8AMNhxIjXL9o4RopGodAreLwPwDydVWF2FbyGESCk478cA7J5dO4WDmm1WGgZME2aXKd5bgosG90WL5rnhZdxB2t5lOOf36fptOK13t6QEjQuRbkhoSUF4YXp8+sKkNIwXQYoqlldun2QEEsud1w/H1NmLjahx7dCB5l2m+Zr29nLf7XE5ws8pipAPPt0QvoCy7ZNeX2IEIq+TxIoshOIM6d+rq3HJsE3jrj7XuGvohqFQQyHob7M+MMsVHTyCcU/PMuKNHCpCiGRiU4gFo4stIwG0TNIu9+nkCSFiwmtRlbooy+Ak7hTnIYQQQghRrzC4mnOFN5zXNyy02LlDK7QsWLHeZJ+Z4hJjuEyXVs3D83IMvmaQs12GIguXmXDdhRJaRFYioSXFoKo8cdo8nNy5HYb0yqtz43iB5GOwI7BMGPc1/HbKWyYVFwWNMY++YEQMChg2tRcvhtFcNEzHRfw+Z9sppHB7XifJok/WY8aHa81xjR9zUfiCy30u3rDDvH/9xBnGwbJ2yy7cNvI8FDQ/fvw3jTjHXLCpnAshRNJx1WwJVp/gnKsOF0I0FEb0jZ/SUKQhhS101oQQQgjR+FAU4bxgjy7HxRDOx7kZN/JCk+Lfncafy1h3C7l19FCTlcYuw/lHumTc2xUim5DQkmJYd8lzd43BpOnzk9I4WyCe6cFoDaRIwvov7QuaG+cI1Wgv0Yrk9/tSIZ57p3oRfLpgfvr0a77vk0lzVhilnBdq90WZNkMKM7de1ce0jwJMt46tjSpuYZ2V0u3lRhVf9uStEdvne27Hjve1EELUlEBOaJIzgZRiQgiRbHLkZxFCCCGEEPWNtw6y14HCubt4yzB42luP2buOENmEhJYUgoIIBYnJt4yIWji+NthC+HCECDpGaP9jei8q2J+s32rqwQx4cxluvmKwsQDSXeIH7X8URuhecQsm+c3z0KuwDR696QqM/NVU894zry40xwNnPWs/dMNcjnBZFOm8IXTfDB/cJ6Zo4hVduG60/QghRI0IQCUShBCNQSAQAG+GOidB6m3C2BkA9+lMCiFESsFoxOQN+IUQqYrqOwmRZUhoSRFsXZZ7rhkSUfC9rrBGC/Mlst4JhRCm9Hpp/qdGyODfrInSMj/PFMKfv2ozSsvKzR6tiOFNFWadLszn6FapKbp404mx0D6FD4oltA76YVObcbsUd7hf7pPpxLBsXdSj53EtWbMlaooz21a7TSGEqBVSW4QQDcsxBPB9ALlJ2muRhBYhhEg5iiS0CJEV+KeKEUJkLDk6takB64/QKfLYq4uNM4MPCiR88O9oqbziQfcKRRSKLHCEjeuGnmbSdLmhyML347lBbJ5FumDiQRHEb3t0w7iPh68p+JDfT50brtlCR4sQQgghRJaxKYmHu1lfHiGESDmq5+IWQmQiS3VWhcgu5GhJEYb074kp4yNdH5Nfe988j7v63LDAQSFi0MndTXqvRLjhyiEmrRcL4HtxiyB0h8SCwgjFEDpTWGtl1pIv8I1hZ5n0YOTmay5IuCNZJ8bWW+HxMI2ZhfVZOrbMN3VqYjlahBCiNgQQ7AIEhtOIlyYd+DmAt1OgHUIIIYQQIjnMBPB19aUQGc9MnWIhsgsJLSmCXwGptgV55tmdouuUEzuZeir37C0xQkc8YtV6cbtK9peWh/9mAfvFqzYaNwzdJXTa0FnDdGPXt29thB6KI0zfRSfM0P494raj9Mjx7R8qKzepzOAIQaMvPgOlZRUmzRePafW/i40DZ8ylgzBv4oxQMfyyctMGNxuKD5g2uHELRkV7SlL5lAshGoFgVeD7gQAeSZu+D7j+L4QQQgghMoH/A/AYgO46m0JkLNucf+tCiCxCQksKc9OIc6o1ji6Ugvw8I7b06tapTvVcvAXvbaouOmAoWLCGC0WVwnatI8Qecu1H68KF6u8Ze0nM/XRp1RwPvTgXQ3qdYF5TMKErBlZg8og+cESUNz78zPzN/b/x+WfVtrv7UFmEsMLi/nCJLW7xSAghSCAn8EIAwR8Hg2ivDhFCCCGEEI0AC2T/BMA0db4QGct4AJqUEiLLkNCSwpx4QgffxjFt2ISychS2S7x+Hl0hFqb/YpF6d+qw+cvXGkEDUQrbe7nz+uE4q28o5ZdXhOG23cXvn7trDHbtOxR+TaeKTYVm6dSupVnPtvUspyj/5Ft6m2c6eSZcd3yb3P7doy+ImUKNzpzhqzYm2kVCiCwgAGwKBgOXAcGPUv5o6WOpwg9SoCVCCCGEECK5MNL9CQB3qV+FyDiekJtFiOxE6UiSyM7SYDBjDkaI9CBQmC6VNkRK8PDCPaYZwUDw+qoAXkzpsxLE/waCgW89fIG/6C6ESH1+vnB3jdsYyMFaACcn6eA+BFDdIh2DR87rmKRdCyGEqMb+Je53mrAMK4D/UkcJkTFMAnAHgGPhA2obP+1/IhQfNgsxR37iUddC1A8VnQsCeerb6uSkWoOEEEKI+qLK/hcMTgkGg39M2Y4OYBMQ/FYwIP1eCCGEECJD4UTsbU5h/HU6yUKkNfw3/A1HOD1WjwdSlMAyQtQ3+h5GQUKLEEKIrKEKQfPgfwgGbwWwPCWPPRi8EjlBoImEFiGEEEKIDGc6gP4Avu38vQlApU66EClNpfNvdbrzb5f/hl9ugAav1NdCpABLdRL8UY0WIYQQWUNOTrWfvSuCOLYZQH6qZNMMgHVZctZSC4J0FiGEEEKIbIAF8qc4DwGMclIwnZBmfXEVgH+lQDtE5jLTccEJ0ZjMVO/7I6FFCCFE9lDVxHuou4Gca5FzbDb9Lo0utgQC0wD8pXEbIYQQQggh6oUk1WrIaEJ1bGYAeBvAbwHcnEb1hf8bwJwGcyTp+5SNsMj+YwC6Z3tHiEZjm/M9FD4odZgQQoisIRgMVnugKvAWgngoBYZv2wPAN7PmZAghhBBCCBGd/QC+D2AYgPVp0k99AdySAu0QmQvdbz/R+RWNyHgA5ToB/khoEUIIkTUEm5RXfzQ9gmCg6pFgMNAoNn9mB2tSFURuFb7a7GiwqtnRINwPIUQaky7xt0IIIUTqQmfLAMfdcjQNztPDADqkQDtE5kI3wRM6v6IReEJultgodZgQQoisoQmaxTrUUUFgYxBVDZoLOv9YAFta5d2xr3mOChsKkWnkAIEgEKxKk+OStiuEECI1KQNwF4CXAPwZwBkpfJ7aAngEwK0p0BaRudwbqjOK/9I5Fg3EJOd7J2IgR4sQQoisoUmwWdRH02CzIznBnMuDDTjTGEAAZU0qXs07euDJjocPwO8hhEhzAiy/pJMohBBCJIGlAFiY5H4AR1K4Q8cBOC0F2iEyl2MAbnMK46/TeRb1CL9f33BEvWPq6NhIaBFCCJE1VATKoz7KA+U4Fjj2SQA5NzVUfwSBHUcDwdHNK6vQ+sgx34cQIs0JSmwRQgghkgjTh/0KwEAA81O0Y5k9ZmIKtENkPtMB9AfwbefvTQAqdd5FHah0vkfTne8Vv18vq0MTQ6nDhBBCZA05icx0BvEsgAuDwM312S90zhzDsa8Ggk2PNgnmKmOPEJmOvfzE/8eezEAoBVUJIYTIVD4HcDGAHwJ4DECbFDtOFvG/FsArKdAWkdmwQP4U55HuUDy9MI2PYQGAoSnQDtFISGgRQgiRNQQTLJQQCOB7CDItQWBAffRNsEkQTQNNf5wbDHwcmn2VzCJENkCt1/xrj/1PPpl1ogr1xRJCCJHB8Bf1TwBeA/BHANek2KGycPQbAMpToC0izSlskflnsPgwRgDYDqBlCjSnphwCMCIbzpOIjoQWIYQQ2UMgseBuMwcawFcRxHogmJfU/mEKoUNNX0Flzh+COQFnvlU5hYTIFqyxLhhdbBmZxMHlPn2xhBBCZAHbHPfIGABPAuicIof8ZaeOxm9ToC1CpDyFLXDQEVvmpeHZoshyMAXaIRoRCS1CCCGyiBpk0QlgG4JVowH8M2n9YyZYgzsD5TmjjpUHgBw5WYTISlw1W3yMdnP1pRBCCCFqxTQAcwD8N4DvpEg0088BPM9g/RRoixApT2ELzC8+jIcBPJRGZ+thtjsF2iEaGQktQgghsoaDlTUoLh8EgoHArEAw+MvcAO7PbxZAVV11Ea4fDFxe1bG8SpUThBCwRrtgQinFhBBCCBGfvQBudOpV/A+Ano3cZ60B/BLADxq5HUKkDYUt8Iviw7gkTeqdzGd7/z97dwInRXnmD/xXPTMwBzMM1wCCiIgK4oWgEvFIvCMeu0bZSMyxavxHE2NiXJOYrIlJNOZYXTUJG6NuEqNmUXfjEeO1rhfeKEEJEBEVRW4cGIaZgZmu/+epeaunpqeP6u663983n44w00f12/UUXc9T7/tEYDsoAlhoISIibRw4YlAZb9X8btvO9Ky17d3H1aQqvijuYhjGEqO7ijsdEfUxuIAgERGRxx4HIP0WfwjgqwDC/AJ+HoBfAljMD5nINbtfS2OEh6xNbSeRhdfTeotr8REFZyfHmkoldZLSb9YaP6eaJjZXMuAmjD+aMOab9sQWlzci0girLURERF5qB3AZgCMAvBHiyEru7d/5yRK511Lf21w+4kM2R20nkYUzWry1NuKVVqIkWctPk0q1eGNHWWNWk0JnfU3qxHSPuSjTWKEEhmG8nUrhHH5gRERERESBexnATABXAPgugMEhbMMxAM4GcA8/fiJ3Wurx7IYd1rJcUVya6/uyfRHYDooQFlq8tQTAPkl6Q0QR9io/HCpVU13551TZcFnEAAAgAElEQVQm8BoMXIye7l+V+si0mZ5jDGx4TUQJZ8AcCxgnAKiPyTv9O4AnI7AdREREXpMVEX4E4D4AtwA4MoQR/gmABwF08tMlcqelHldv2IHjABwVoSF7VrYrAttBEcNCi7f+BOCsJL0hogj7Ez8cKpVZ6bo8BuYDxmyY6c+4mdki9zDS5ufTSK/gOmBE+jHTxgWGgR/E5o0bjv8nIiJKpmVqdslFAH4c8Koke6qlzK7lvkVUkk8CWAdgSASGbbvaHqIBWGjxlkwBvQ7A+CS9KaIIWsMp11SW7q7Kxy2VOhdmaiZMc99Cdxvck8a6hur564YM+j3zlkR6MlLGHQbMr5kmhnMXICIiioy0ak7/ACAXUgXaB+LbAP6TS2ETuddSj/YNO6w4fToCwyZ9WdojsB0UQSy0eGunujphQZLeFFEEfR2ABxlz0k26youChwkY5ieNHuMtA6jKd69dqapXmrpSF9d2223viUg3BvCuaRrHAebrkX/rhpV2+mIEtoSIiCgo7wM4FcA81ax+VACvO0TNpPkCP2Ui91rq8cyGHdZyXd8Lcdjk9Z/hx0b5pDgynpOr7H+WsPdEFCU/42wWKpeJtCe3tJF+B6n0p/LVT9Lp9PaedPVx1btSaOgwKroRUXyleoCqNBanTJwb+TeRxt2GadwagS0hIiIK2l0ApgL4Q0Cv+znVnJ+IStBSbzXFD6vQ8UxEm/JThHBGiz9kKmgdgK8k8c0RheiXKr6IylKdrvFu4Azcb1aZP0Pa/Bf7R6ZpIpVKYXDt4JMAtPWuSkBEukqrY4Bp4k4TOMIwjIsjORQG3oVpzjNZ2yUiIn1tBvBZVXT5FYCJPo6E/It7o2rIz6nvRKWZo5beC7Jfy/aAlxikmOKMFn/0ALhENcZfmcQ3SBQwiaOzVfGyh4NP5TIN07tb7znRFSbwXL/NMYxLjKqq541UCkaqquIbEcWXPYfOOl6Y5pcBvBbJN2OaJyNlAlXM9RARkfb+AuAAADfD36umjgBwju6DTVSqlvpQih5zVLGFqCDOaPHXfQAeVAnifwQwA8A4AB5eUk2USLtUw/tFAP5HLRW2kx81Vazb+zqdYRifgGH8wgQOMGD+Lt2965bOnV7uro0ePhcRBSmVGvBV+yQTPat7Zz5HY/qIAenLkloBtpMiIiKySUL1qwDuBvAbANN8Ghnp1fInADs48kQlsZfxCmIprzCXK6OY4QIBHlrfzrPTBJCD51ExfhvPAjg6AtsRmJZ6Td4oERHFzvee2zpgk02YJyDV81jvRbIhfxU3jAUG8E/OH139sRHhbQ8REVHrK1EbgkEArlRLWA/y4fm/rxpsl675UB82hyj6NvSVJv3O4eXMsTEPZV1wGoGtiB6OiodkbX6KL3WglkvHPwx4rUevyFU3u7XUS18IIiIiCttVz7YO3AJphFLVfRVS6asRblOUDw3D2D17WRQWWoiIKFTRK7TYZFbLrQBmefy8O1Qj/tUlP5KFFtKUo9AyxMd+LZJjG5tryTAWWlhoyYc9Woj6a4txg6s5LLIQERFFh1nVNfBW3QnTSP/ANI2/hLGhcllQVdrEoDQ+WdNtpmu6TThvRERElNNSALMBXOpxr4Z6tYQYEZXOz34t7MtCJWOhhWigZ8qeuhueq1vquWYkERFRlFShJs9N/pc600BqXdCbW9djYN2Q2kvfHFm35M1Rdci+ERERUV4yC/Qm1Sz/UQ+HSZrif4zDTlQWP3J4V7MvC5WDhRai3OLU7OqZgBqAERERUQmqzJq8t2qzpjNlpk40A+xAb8BAR9XOBwZ3b71p5I6tyHUjIiKiot4FcDKAzwLY7Mk/0b0FHK7FQ1QeyYk97dHYPc0cG5WrmiNHlNcc1a+lMcJDFOelzihgs29fxiGnRFh43lR+kBQLO42ugptpwHjDQOqfAfM/g3g/JrCu2zA/VbsrjRR7CxIREVXqDwAeA/DvalZKJWYC+ByA3/FTISqL5MbWVdivxc+lyEgDLLQQ5WcfYKM8s4VrRhL5pwHARAB7qv9OADAKwAh1G6m+xNlr7TSqf1e7VRFUdKgY3aSudpPbRtXsUq6Ee0f9t52fI1HypNw0iTTxWwBHmcB5fg6AzJzpQc8nDbO6u8ocFOA8GiIiokTbAGAegDsB/AeA8RW82WsB3MdzfKKytKscWSUzW+bw3JwqwUILUWHPqimDUZw2+H21fURUGcmETgFwMIAD1U3WXd69zGeVf1uHqT/b/92nyGPeB/AGgCXqthjActW3mohiyjTTrjbcMHA+TBwKGAf48U7NKhPVRvXXBpnG4t5DHg8tREREHvszgGmqWHJRmUv17wbg2wC+ww+HqCzPVJDDi1MLAYooFlqIipMmWMfJ1aYRGqtnY9iwnygq5N++WQCOVDdpPDk85G3bXd1OcfxsC4AXADynbi+q2TJEFBeGuxyLVfYw8EmYeBswB3v67gzA2F59P3albjRThiqxcAl4IiIiH2wD8BUAfwTwG3UxV6kuA3CrmvlORKWTXNknABxTwiOfZo6NvMBCC5E7n/RgrUevbFfbQ0TujVcNK+V2PIChMRi74Wrqsr1GrHSpfgLAI+r2QcjbR0RFlXAxq4E1MNOfAvCQZ+Nq1VPM9UZX6syeLgNIcSYLERFRAJ5Ts+W/C+CbAGpKeMlaAD8BMJcfFFHZTgWw1mUOb7u6P1HFWGghcseLtR69wjUjidzZXZ2gyO3QBFzCLcWhT6mbZEtfAbBA3d6PwPYRUZa2XT3uh8QETMP4s2Ga1wwy8J26GgPpSusi8njTODE9sitd1gImREREVK4uAP8K4B41u+WwEp7nbHU1fhTyD0RxZBdPnnKx7aeyLxJ5hYUWIveeUVMJvxfimF3NNSOJCmoC8GkAnwNwRILXxzHUyZrcfqaWGPudWqZgWwS2j4ik4dOIQWUMg/ndtp3pWWvbu4+rSVV8CLsYhrHE6K7ix0FERBSOJeq85FIAPwRQ73Ir/h3ADADuGr4RUbanXeTwrmZBk7zEa9uIShNmc6xnItqUnygKpOfKbQDWAPg1gNkaNSEw1Mnbr9X7v031nSGikEmdpPSbNFUxTjVNbK5k600YfzRhzDftiS0ub0REROQ5meJ6PYD9ATzu8sll6bHz+FEQVaRQDo85NvIcZ7QQlW5OCWs9emW7o08DEfWSf8POAnC5utqLeo9L56nbIgA/B3Avm+gThWPxxo6yXrcmhc76mtSJ6R5zEYzSa8aGYbydSuEcfuxERESRIg3uTwLwBfU9fXiRjbtGLRPMGetE5Zujei43OJ6hnTk28gNntBCVLoyixxyuGUmUIdPtvwZgJYC7WWTJa4Yan5VqvNwuU0BEHmmqG1zWrW7wYJipmtdQXXNx6VtiIm32zEmne1DOjYiIiHwlE0j/E8B+qn9LIS2qzwsRlS9XDo85NvIFCy1E5QlyimGYy5URRUmtWtt4FYAbAOzBT8eVPdR4rVLjVxuDbSZKBBNGRTcYxnzAuBOmu0W9ZO5LKm1+3kinV6A7jbJuREREFIT1AOYC+Ae1/G8+lwDYm58IUUWkD8u16gmuZV8W8guXDiMqnzTNOg7AUT6O4bPqdYh0Jv9WXQDguwDGcU8o22jVVPNfAPwIwK1cUozIZ91dlT9/KnUuzNRMmOa+he42uCeNdQ3V89cNGfR7fVpUERERxd79AJ4C8BMAF+boMzkYwM9UQYaIyvcdAK0qnoh8wUILUWVO8bFfy3b1/EQ6OxnAv6mp9eQNKVbNV1fHfQPAIxxXIn+kq7woeJiAYX7S6DHeMoCqfPfalap6pakrdXFtt932noiIiGJiK4AvAbgLwG8A7JO12WcAOB7AE/xAiYCW8hfFZpGFfMWlw4gq42e/Fq4ZSTqbDOBPAP7CIotv9lPje78abyLymIm0J7e0kX4HqfSn8tVP0un09p509XHVu1Jo6DAquhEREVFoZMnwgwH8OMfM8xt4sTQRUbSx0EJUuWd8WN7ravZlIU3JycO3ASxRV26R/05X430lT96IvFWdrvHkVtNTgxSq70eV0e8qPNM0YRgGBtcOPmlQHdqq69OoaqjsRkRERKHqUN/LDwXwmmND9ldLixERUUSx0ELkje972Ezr6QAb7RNFyUwAi1Rzujp+MoGS8b5Gjf9Mjd43ka9Mw/Tu1jud5QoTeK7fNhvGJUZV1fNGKgUjVVXxjYiIiCJhMYDDVX/FDrVBPwDQzI+HiCiaeOUqkXdkqa91FfZr8XMpMqKokn+LvqdmsjDLF64DAbwI4DpV8GWzfKJKdPd4PnyGYXwChvELEzjAgPm7dPeuWzp37vTwFRo9fC4iIiKqgHwX/7laUvkWAJ9Qq19cykElIooeFlqIvNOuiiSVzGyZo56HSBd7qaaPh/ETjwwpdn0HwAkAPgNgpe4DQlSuHxzZ4sfYdauGuURERKQH+T5+HIDzVP+W+QCW87MnIooWLh1G5K1nKlj26/vsy0Ka+RyA11lkiazD1OfzOd0HgoiIiIgoZLKG6G2qWf6R/DCIiKKHhRYi711dxqyWp31oqE8UVYMB/ArA77hGTeQNUZ/Tr9TnRkRERERE4fkQwK0cfyKi6OHSYUT+OBXAWpf9Wrar+xPpYByAewHM4qcdKxcBmA7gLABrdB8MIiIiIvJJ86EcWSIiiiUWWjT1qZ+s0n0IBph/ySQvn84unjzl4r6nqvtXxOvP9L5vejoeRFBLUT0IwJemBeQ7KY69BuA0AC9zuImIiIiIiJKJeUOi0rHQQkk2GsB+ACYDmAhgAoCRAEYAGAVgqHrvsnRR9UU3r5Lmsm3qZ1sBbASwGcAmAKsBvAvgbQBL518yab2LcbOXA/tegfuUs8wYURz9I4A7AdTx04u1FlVAlib5/6P7YFBwZt++jKNNBS08byoHKIZ+/OQHug8BFfHtY8dziGKIsU3FMLYpIkrKGwJwnTcE4CZvSAnDQgslhRwIj1C3GQAOLOOqeYmHYerPw9RBNqeLbl61AcASAIsAPC+3+ZdM2pTjvtLg/hMAjs7xu0oa5xPFydcB/Jx9wRKjTi3/djmAG3QfDCIP8USPKJkY20TJxNgmipdA84YABuQNVbxTgrHQQnFVq4oXJwM4CYBcxmgE+F7kYHy8ugnzoptXyeW2jwJ4RIoo8y+Z1Kl+NwfAOgANjse3q58TJd11AL7JTzlxpGh2vTrB/Jbug0FUBp7oESUTY5somRjbRPETubwhgH55QwCdRZ6DYoaFFoqTweoA+U+qR4CbRvNBMdTVLPupq/e3X3TzKulF8V9yEJ1/yaQ5Wf1a5njRl4UowiQmfgHgYn5IifZNdZXeV9QXRyLKjSd6RMnE2CZKJsY2UTzFKm+oetj+l4ptxnQCsNBCcSBXjFwA4BzH9NuoG6K2V25bL7p51d3fP3f320cPqzkPwLXsy0IJVwXgVgBf4AetBSmm1avjdI/ug0HkwBM9omRibBMlE2ObKL5inzcEcLfKoyyKwLZRmVhooagaBGAugEsBzIz5pyQH+S99/w/v4/RZwz544MWP5EqUQfMvmbQzAttG5DWDRRYt2Z/3eZzZQsQTPaKEYmwTJRNjmyieEpc3VLdXAdwIYAEA5g1jhoUWipoh6upoOVDulrRP54EXPxoP4A4AP7no5lVy4PwVlxCjhLmZRRZtfUEdzy7RfSBISzzRI0omxjZRMjG2ieIr0XlDdUyy8oYqnpk3jJGU7gNAkVEH4HIAq9TBJIkHS6fd1Pt8R73vuuhsGlHZfgrgyxw+rX1FHduIdCEneleof8/vSECyJpt9oveOep9RWkaFyE+MbaJkYmwTxRfzhhR5LLRQ2FJqqZm3AfwMwCjNPpGR6n2/rcaBMUlxJf/w/ws/PVIndd/gQFDC8USPKJkY20TJxNgmii/mDZk3jA1+OBSmWQBeBnAbgLGafxJj1Ti8osaFKE5OB3AdPzFy+InaL4iShid6PNGjZGJsM7YpmRjbjG2KN+YN+zBvGAM8yFIYmgD8EsBC1XiO+hyixuWXapyIou5w1Xyxip8UOVSp/eJwDgolCE/0+vBEj5KEsd2HsU1Jwtjuw9imuGHeMD/mDSOMhRYK2kkAlqrGVdz/ckup8ZFxOjmKG0ikjAfwAIB6DgjlUK/2j/EcHIo5nujlxxM9ijPGdn6MbYozxnZ+jG2KA+YNi2PeMKK4w1JQagHcBOAvTLq5JuP0sBq32phsM+ljEIAFAFr4mVMBsn/co/YXojjiiV5xPNGjOGJsF8fYpjhibBfH2KaoYt6wdMwbRgz/4aEgTFFTVC8BYHDES2KocXtFjSNRVNwI4GP8NMiFWeqLH1Gc8ESvdDzRozhgbJeOsU1xwNguHWObooR5w/IxbxghLLSQ384E8BKA/TnSFdlfjeOZMX4PlByfA/Alfp5Ugv8H4PMcMIoJnuiVjyd6FGWM7fIxtinKGNvlY2xTFDBv6A3mDSOAhRbyi/yDfQ2Ae7n2p2ea1Hhewy+QFKLJak1folL9Qu0/RFHGEz1v8ESPooax7Q3GNkUNY9sbjG0KA/OG3mPeMGQstJAfZNrpXQCuZGB7zlDjejen91IIagD8AcAQDj6VQfabO9V+RBQ1PNHzHk/0KAoY295jbFMUMLa9x9imIDFv6B/mDUPEQgt5rRnA4wA+zZH11T+pcW5O8Huk6PkegMP5uVAFDlP7EVGU8ETPPzzRozAxtv3D2KYwMbb9w9imIDBvGAzmDUPAQgt5qQXAkwCO5KgG4kg13i0avFcK30wA3+LnQB74ltqfiKKAJ3rB4IkeBY2xHQzGNgWNsR0Mxjb5hXnDYDFvGDAWWsgruwF4CsB0jmigpqtx302j90zBk6WebgVQxbEnD1Sp/YlLiFHYeKIXLJ7oUVAY28FibFNQGNvBYmyT15g3DAfzhgFioYW8MArAEwCmcjRDMVWN/ygN3zsF43IAB3GsyUMHqf2KKCw80QsHT/TIb4ztcDC2yW+M7XAwtskrzBuGi3nDgLDQQpUaqqaU8mAZrqmc2ks+2RvAVRxc8sFVav8iChpP9MLFEz3yC2M7XIxt8gtjO1yMbaoU84bRwLxhAFhooUrUA3iUV7pHhnwOj6jPhcgr/8ZGiOSTWrV/EQWJJ3rRwBM98hpjOxoY2+Q1xnY0MLapXMwbRgvzhj5joYXKZQC4E8DhHMFIkc/jLvX5EFXqRACncRTJR6ep/YwoCDzRixae6JFXGNvRwtgmrzC2o4WxTaVi3jCamDf0EQstVK4fAfgHjl4knaE+H6JKVAO4niNIAbhB7W9EfuKJXjTxRI8qxdiOJsY2VYqxHU2MbSoF84bRxbyhT1hooXJ8CsC3OXKR9m31ORGV64sApnH0KAD7qf2NyE880YsunuhRJRjb0cXYpkowtqOLsU1uMG8Yfcwb+oCFFirVFAC38wqGyDPU5zRF94Ggssh08H/l0FGA/pXLEJCPeKIXfTzRo3IwtqOPsU3lYGxHH2ObCmHeMB6YN/QBCy1UCkmC3QugiaMWC/I53QOgTveBoJJ9GcBYDhsFSPa3r3DAyQc80YsHnuhRqRjb8cDYplIxtuOBsU35MG8YL8wbeoyFFirFv3EpodjZH8BPdR8EKol8MbqcQ0Yh+AaABg48eYgnevHCEz1yi7EdL4xtcouxHS+MbcqFecP4Yd7QQyy0kFtzAPw/jlYsyeyET+o+COTahQBaOFwUgha1/xF5hSd68cMTPXKDsR0/jG1yg7EdP4xtcmLeML6YN/QICy3kxlAAt3D6bmwZ6vPjlUFUzCAAl3GUKESXqf2QqFI80YsvnuhRIYzt+GJsUyGM7fhibBOYN4w95g09wkILuSFXKOzGkYq18QCu030QqKhPA9idw0QhGq/2Q6JK8EQv3niiR/kwtuONsU35MLbjjbFNYN4wEZg39AALLVTMLABf5CglwpcAfEz3QaCCvsbhoQjgfkiV4ole/PFEj3JhbMcfY5tyYWzHH2Nbb8wbJgfzhhVioYUKkf3jZl5ZkhjyOd7EuKc8jgAwnYNDETBd7Y9E5eCJXnLwRI+cGNvJwdgmJ8Z2cjC29cS8YbIwb1ghDhwV8lkAMzlCiSKf5+d0HwTK6UscFooQ7o9UDp7oJQtP9MjG2E4WxjbZGNvJwtjWE/OGycO8YQV4AKR86gD8mKOTSNeqz5fI1gzgLI4GRcjZAIbxA6ES8UQveXiiR2BsJxJjm8DYTiTGtl6YN0wu5g3LxEIL5fNlAGM5Ook0Vn2+RLZz+I8oRUwtm+JTiXiil1w80dMbYzu5GNt6Y2wnF2NbH8wbJhfzhmWqjuVWk9+GAPgXjnKiXQHgPwBs130gyHIuh6HX2ZObsFvjoMzfX1zTjpc2dBR93L5DB+HkSU2uX2f5pg68trETGzt7XD3fI6u2YcXWna6fPyHkKsf5ur1pKhtP9JLLPtH7ue4DoSnGdnIxtvXG2E4uxrYemDdMPuYNy8BCC+Uia+O3cGQSbZT6nPnlhyawaWGfC2eNQf2gqszfRzfWuCq0TGyqwdzpo0p+veXr2nHLqxsHvEb280lhRsNCizRHnQRgVQS2haKNJ3rJxxM9PTG2k4+xrSfGdvIxtpOPecPkY96wDFw6jLLJpdxf5aho4Wvq8ya9nc0GlL3OmzasX5FFHDO5GaNqq/I/qEJTxjTg+lMnWq9NA8h++U8cFnKBJ3rJZ5/okV4Y28nH2NYTYzv5GNvJxryhPpg3LBFntFA2WRN/d46KFsapz/v3ug+E5ubqPgC2g8c25Pz5vKnDcOPrm0p6rh88vjrv76aMrMOxezdj5JCazM/OmT4KD769Le9SYho7k+t3UxE80dOHnOjdBEC76X2aYmzrg7GtF8a2PhjbycW8oT6YNywRZ7RQNn7p0Qs/b73Jl6NDdR8EqJ4oMyY05vzdrD1y/7yQR99vz3uTos0ZC1bi6ZWtmWeQmTRS0KEBZqrl7Yjy4YmePuwTPdIDY1sfjG29MLb1wdhOLuaR9MLPuwQstJDTIQBmcES0MkN97qSnk7hsWK/sRvYLXt+Y+fOE4bU4vKXO89e84eUN2LGzbwbLgWPrPX+NhDhR9wGggvjFXy/8vPXBz1ov/Lz1wc9aL/y8k4d5Q/0wb1gCFlrI6QKOhpa+qPsAaOyTug+ATZbyskmD+ruWfdTv92dMac772HLJMmGrt3T6+8aS4RTdB4Dy4omefniipwfGtn4Y23pgbOuHsZ08zBvqiXlDl1hoIdtgAJ/haGhpnvr8SS/SIOQ4fubA2ZOb+vVLWfhem1UEcS7tdeiERl+b4lNBx6r9lSgbT/T0xBO95GNs64mxnXyMbT0xtpODeUN9MW/oEpvhk02ubG/iaGipSX3+f9J9IDQzC8BQ3QdBHDWx79AnS3ndvrR3NsvT72zDMZN7Z7JID5XT9mrK/M4rI4cMCv4Nx89Qtb8+q/tAUD880dPXPNVgt0v3gUgoxra+GNvJxtjWV6Cx/b0XNsI0XayObahbGjDT6kdGmQtrmyXd+1gY+F/15wuNtPEb0zCBlAnDTGVev6bbxJuj6jByx1Y0dfbAMOtQW12N9NYUejpMmOO6YOyssl66qgpIp3uA7jSWjW7AxNY0GjoMVDWkYaSq0Lm9HT86ekwZb2wA5g31xbyhSyy0kG0uR0Jrc8M8YPLLkK9fhvKZ7eeTx0V2E/xXVrdl/iyN6y/evisz2+WEvZs9LbRcOn1kv5k0q7iMWCGzo1Zo4XErlOOWE0/09BXIiR5jPLQYZ2zrK9AkDmM88BhnbOsr+Qna0o4HUx2Pu8U0TDnPuRDATh+2zGvMG+ot1LxhXHDpMIK6uuQ0joTWTtNuGqBR0i37y9BvAcR9KsIREdiG0GU3wb9/eWu/vz/5Vt/fvWqKL8UdKbLMnT6q38+fWNWW9zHEwqCFxy0nnujpLZmfP2McjG3tJfvz1zvGGdt64+ffx+z3JwOfh2EuiUH/IuYNSb+8YRk4o4XE0QCGcCS0NkTtB4/rPhB5DPwyBHOWmv6+KGLb6obBxHUvZxN8aUz/0oaOfr9/ZNW2fgURaYqffZ9cFp43teh9nB7+22ZXz6uxI9R+W9q1oHpL2nHLiSd6ZJ/o6bzEUBJjnLFNjO0+SYpxxjYxtvukB/7I2BcmXjVhXmzAmB/alhXGvCExb+gCZ7SQOImjQNwPCsrzZciQL0MXRWlDXZoCYHgsttRHJ+3e0G/prhffGzijZMXWnVi+rj3z90Mdy4x5QXrCLHh9I655cUMchzBIw/tNsyc3knbccuKJHtknejpLYowztomx3SdJMc7YJsa2O78CzDsA1EZw25gvInA/KI6FFoJaL5OI+0F5ovxlKJ/p0dysYB2zZ/9lw+5alrv/ykJHAUaa4p83bVjR7ZTiTKGbzGC57aV1mHfv27jx9U1xGrYwHazvW/dcHI9bTvyCT+B+UFBcY5yfKYH7gStxi3F+pgTuB+6YJs41TXOJARzWVWUgbZTXEsoHzBcRuB8Ux6XDaCSvEiZlqtofmPUtkXwZAszDDeDcrirj5Qh9GcrngGhuVnBG1VbhmMnN/V7vT/P2cfX6s/doLNoU//yHV0d/EOJH+/3WSzE8bjnxCz5B7QeXcyRyi2mMM7YJjG13YhbjjG0CY7ske3cb5ktj2nsuHdSTvqnHMFEV7gLKzBuSjXnDIjijhT6GWOVWyEcGG6RXxP4y9NVBPWnIl6EI0z5hPW9q8Vkp+UwZ02A1tKfAab/f+iBOxy0bT/TIZp/oUX5xinHGNtkY2+7FIcYZ22RjbJegO2Vg9207b2zcWXWPYVQ3muG2qmTekGzMGxbBGS10pPYjQE7SIP0Bjkh57C9DHdVVR3WnUueZMAc2/YiGgyI/mD5zNsHftH0XnnyrteALDhmcwin7jcj8/aypzeyrEjwWWnwQo+OWjSd6ZLNP9Pi9pYAYxThjm2yM7RLEIMYZ22RjbJdABquz2kQKg86qSZuHdhs956wC3TwAACAASURBVBowngspmJg3JCfmDQtgoYUO0X4EyGkmR6N8EfsylE8DgPHR2qRgZTfBf3n1Nld9Ug6b0JR53Mcns9ASgglq/23X7p37KCbHLSee6JETT/SKiFGMM7bJibHtUgxinLFNToztEqmZLHtUIfVsj9HzDaSrrkdP4GsFMm9ITswbFsClw0j7K9upH14x7oGsL0OXmWkTIXwZymdiJLYiRNlN8O9dVng2i80568VtU3zynPb7r18iftxy4okeOfFEz6UYxDhjm5wY2yWKcIwztsmJsV0mAwa6ze5/66nu+S9jsDkYPYG+PPOG5MS8YQEstOhtjPSE1n0QqJ9Rar8gD4T8ZSgfrRPV0gT/0AmNmb+v3tKJFVt3unrsI6u29fv7wWMbPN8+KoqFFp9F9LjlxBM9cuKJXokiHOOMbXJibJcpgjHO2CYnxnYFjJ4U0JCeaw7f+aaxKxVU0Yp5Q8rGvGEBXDpMb2xKF5IDxw/GvGOGWy9+19NbsOSDLjTXp/DVU0Zh6XsduO+VbWFu3hQA68LcgCTJfBlq6DnE2JU6BwZeDfntaZ2oPm2vJms2iu3xIr1ZnKQgs2h1G2aoQo38V5riuy3UkCdYaAlABI9bNp7oUTb7RI/fW0oQwRhnbFM2xnYFIhTjjG3KFkRsSx+YawDUFbnfz2Vxg6yfXSvtPD3ajisAPOPRc/WRyWuGMRkGXgFwKYCbPH+N/mKdN5Q827f+cTT+troDDyzahtYd6QH3+dxRzdhvQu/u8q0717p+3tNnNOGZv7Xj3c27it7/us+Mtf5r5/8SgHnDPFho0dsk3Qdg9t7F/u11p60jnfdgedVZo3HQXg14YWkbfv7QRutnY4fVYO/x/V/7gmNHWPeT256jB2fuG4K9ADwV8Mvyy1Bw9gjxtUN3gqMJvnjw7dKKmovXtmcKLeLkSU1Y4aK/C3kmSvsvj1vB4wUiAZBlEWXG3vrtO/P2orp0+kgcu3czNm3fifMfXh32Jvt1oscYD04osX3i3kMxunEQVmzYgZc/KL3914j6agyvq8ZbmzuL3vezh/Tmmst9LafDxjdg35Z66yf3vbEZO3YNTBqV8jzr23bisbe25r3f0RMbscfwWvx1TTuWrN9R0baXyO8kDmPcf/x322HvEbVYs21n2TGbIL7Gtpk2roOBo1zcde8cP5OeQod7tCnjPHqegUz7J+aNcjgHjH8GUDzbX55Y5w2PmzbEyr3JbfE7HWjdMTBv9/a6LpxxRO+F0J86tMnVhc9Xf3osxo8ajBNnNGP+n9dj4VsdBe9v5/8a6xKzsFQYecNYYKFFb6FdGSzV32njBmf+XuiglH3ffJau6cpZnbaLKbmKIZedObbyNwPgrQ86sCRP5XsfdUBt7+rbttHNfaFnb5MUVi4H8LFpjdbtcvWzEAS+X/DLUKBGhvCakfHie23WTbTt7MHGztLWU7h96UdodMyIkecQ727bhQWvexev2c8nfydLZPZfHrdCof0FIift7s2Sha1daby0Ifd3LznG2QVl6WGVa9beXiNqMXJIDXbsjMS6U76c6DHGAxVKbEuRZXzzYLy3pXihJJskTE+bNhyDq1NYurYdT6zcaiVP7eJLNnkdsbWjG3uPGBg3boo1to86ejLPt//ourILN7XVqczzFCJFFrlfU21V0IUWX5M4jPFAaP/vtk0KuzN2b0RXdxoLFm/CB9t6/221C76l+L+VWzOPdz5/qc+Tyx2vBZJ/8DtB63Yfz5VNX+/hdgRywDSAz5g9OMgEzk0Z+KsPLxHrFQUO3af3u/OWbd1W7m3iiBqMGz7w32n5/fCmauv+61oH7kLZOcsFz27BRXNGo25wysorjnlyU9gr0wSNK03kwUKL3iaE9e6lqjzv2L58Wduda/LOCJEii9uCiMwaufXJzf0KLvZjcxVD7n9+S7+/H7V/k3VwlYPss28OPEjKdEKpRGf/vr0z91UpUuSRA69Y8m7fv7MTRw/ObJNTRIotYewX/DIUnBEBv16k3OjB7JNczyGJSC9ntnj9fAkSpf2Xx63ghfaFXvo7HTKqNvP3R9/Pn9jMvm8+r23szFnstYspuYohV53gzT/Ry9e146U8M1HuWvYRTp023Fpm8fMHjcCVzwy8kEQSr+KdMhLUPvBrv2CMByd2J+tyVfrKjR2YNrbBurU0DsJdr2/EtJY6zJ40NO/j7Ptn+/GTH2R+IrNf3BRAxHH7DLNuhdz7102uCznjmwahrqb/1bZSiOottFRbs2Ck0OO0paMbm3d0u3r+Evm9XzDG/Rd6bNfXpDCuqa8AUSgWsu+bT75ZKVKAFR270gMKIe9s6cL+Yxus4uzcg0dmii12wbcU2TEKR+E4JvzeL7Rb19mEuT9gvGoYVV/sqsJv04anTx9a3rBSUlSxZ5LY+buj92vIzF7JRe5/2fiBEx0X/mRV/7+/1YE1d6zB189osWa22PlNjYotsd0v/MZCi95Gh/Xujz6gsd/fZ08d4mqdQimkbNja/ztxy9AaHDy5wSpoSHFi95ZBuPT2Na624/fP9u/PIIUUKbRs3rZrwO9grd3Ye+DN9/tsB07sndbf0ZXuVwG3Z7m8t2HgdwBnsUXe18QRra7WfPRQGPsFvwx5+2WokJbAXonIe1Fa55vHreCOW7bQvtBLf6fzD+/r+dj60Lt5Z4RIkcVtQeTpla244eUN/Qou9mNzFUOyZ87J8l0ys2TT9l14MkfPqQPH1mPKmIYBv2/LmolyeEsdmgf3JW6WrdthzWo5dEIjTtq974TRnl0nrynad/bknWVTqBjlMb/2C8Z4cDHuy2dYLGkqCU/RXFedSZBmy5UwFZJkfWDZR2jt6LYKK6OG1GDe9FF4+b02LFw1cBkuu/jyQWuX6xk0cuX7xu3lnQPIexul4rQUn5g8tGCyNldRR97vM++2lbWdRfh9zGeM+x/joSfiZNaXc7+949UNOWNayPHirIPcTZ52zmSz2Y+VOM+eGSIFHimuSJHFWWyxOeNIjkdjG3vj1xlb3z52fNHtyvXa8nz2tuUqvMrygIUKxD5ggtYHBoxq08B/7rF114za7tQlJjxboiq0vGGlzvpY77Lhko+T/ixQy4Q5L7i2L7aW+zy2yH3/ViF5uu/9cW1mGbGW5tL/3Y2x2O4XfmOhRW+hXBksjeDlIAR1wJMCyexpjZj/+Oaij31hxfacy4w112+2epxIcUKe2+26in6bsnvvSZsUZuwlzIbUVmVmuSBPnxh5n/W1Kby7vsua1ii3Yms+ekjrGQ9B8vHLUCH5L98gij4en0IW0nHLFtoX+uz+TsdPasxbaHGSQsr6tv6J0tGNNVYBQ2aMHDO5GXsOr8U5f3rH1XZkz6iTQkpvoWVnztl2l2KkKrTk/r3twpmjrPtlk210Fo2k0OMs0pyy3wjrlsujty9z9Z48wBM9D4UU4758hm6TpvlmmSBP0tJJkqCd3WkrkStLa61p24k1bci5fBjU0mFrs44Ja/IkfaXIku+17Zkn+WaTOBOruR4HVWCCKsrYhSYpAjkLQfu01GcKNrkKSCL7/XiIse2DgGM89M/wwN2G9Pv7fqPr8hZanKSQIoVUJ4mZyaPqrJixZ7Ld+rL7yU3yus5iS77jhBRZ7MKHT0XMsDG2fSKrBY5p7/7KLqN6ek/KOBMwcjfbK00sz79kNovkB4UUUGTVm99cNMHKxd3xv5vw6BvbrdykPbtF7iMXU0tjfPmZrD7jpjG+PK8UW2QlngBzdlHA8/I8WGjRWygJ1xMPbsr8WQ5mchCTg10lxRE5uMmSYfaBdM/R4U+blQO7XVCS/+Za/uz4Q4Zat3ykMb4te6qij5iID5BPX4YKKb6eDVF0cf+NgBCOW7ZQvtDLbI8Jaqks6UkixYePT27O2yje6el3tuWc2TGqdgO+fliLVWiR55YG9NIDKiwL32vDkrU7rCKQbBNyzJ4Ryzd1YM6+vVcGZ8+SsWfXyEwcea4A8UTPYyHEuO+fYa6k6QG7NVjLYeWaZWL3JXFDeqR8uG0XOrrTVtGj0NXhuYo6pSztZbNnnpQ6myTXjBUppNhFGefzyYygmapf06L328JI+DK2fRJgjIf6GUph0S4UygwxKW7I8l2PvZW7aOi0bENHzrisX7kVx08easWxPLcsp1dKnyQptvzu1Q2oq05Zfz5oXN/xQI4dcCzP6fyZjwXNMDC2fdRVJcXT9Gwz3f0GzNq5MIynK3y1WOaH7Nkssuy/zGaRfKPMXBHb1UzyeccMz9zHXrFmfWvvdwVZyUaKLm5WspF8pGZFFjBvmB8LLXoLJTBkOSyo/iRy0DpxRrNVaJGmU5XMQnH2ZRk5NBq7dnYPGLjoAxMB/OITMB++DBUS6LxwIo81cUCjIeDjli2U7y1nTOmbzfLQ0i2YO32UVWyppDgiS4XJkmF2UWNynmWLgmK/D1kGzN6mXDNg9h06KNMoX4oszvscq2b9SJHFi35YJeCJng8CjnHfP8NcSVNJZkqhRYos2UWEox0N7N1wXiG/dEPHgKSoXciQgs+yrNlw2TNaVmzYYW2TzJQplzynFHCyn99+bjgKTds6u/HGh72JYud2z5kyzEpMS4L6OceSRrP2aLSep9wm/CVgbPsooBgP9TM8xFHEeHV1m1UAlX261OKIkywVJkuG2QXTMVYD+tKeK19Po1wFWvtn+WaUZXPOULPZy5Ah68+25jwza3zE2A6AkTJaurt3PYWe1GUpw7ihgleM3eclM1Xsi7BfW9mO02c0WXk4qDykFEWkiGL3b/ntE30XF8lMl0ljBlsXRMtF4Yvf6ejX5kAKNnaDfae7nu7N/dnFm3zmHjUcpx028N93ebybdgoRwrxhHiy06C3w1dXloGQvm/XK33u/kCxc2mYdxOQgJ7NAyu1H0lzfN+15R1f5JyZekffxblb1W7bRnpooB3w31XHSh4dfhoiSKviuIFRQwMetUE70DlWFBZmpIQUEu1H87D0aK5qF4uzLMrqMXgphkOb4tg/b+ieH7b4t2f1fAsATPR8FFOOxSuJIs/psUnh4e0uX1Qy/kKF11QMSnfJ3KarYiV/7v3Ile7GeDJKEzTd7JtdMGWdy2Z6tsq2zZ2ChaWKjtUSSeGJFa6YPhRRZehvjVwVRaGFsB8DnGA81tu19WGatyT4u+7wUIvZtqa9o/3X2ZRlapEghRR15vWy5lgX88ZMfWP91zoqzf4Y8hZhszhlquQTciyUfxnYADBhIp2VfTV9vpAzZ4W8p81Vjd/7lLHZkryAjBQ3JS9p5ObkAeq8xg3HcQU2oH5yyVqNxLvV/yWmj8cX5fT0TG2pTmQKNU2Nd72Ny/c7JXvUm3+Mp/lho0VvhI4AP7Mqv9GaxZ68sXLY9c/D75CFNrnq15CJVapv0NilEKty5Ks3Opb6u+8zApb5GNNXk/b00ti+27c5tlPcdUbkXqSbfefhlqJCB3/SJ4oP7b8QEdNyyBX6iJ7NWpKgCtbyWeGplq9WXRHqayAyPFVvL66c8qrYq8+f2neFfICKmjOz7apjd5L61K52Z7SL2GVkLrOz9LifjYMvXb4LiKaAY9z22c13FXagZfqErvHPNdJFZItJvoVgSUx6b6/GSCM6X+M3VFF+SqbL9MhtlW2f/4qabmTgHjq7PvH+5v/x9yfreJf8kMWy/D1kybOWWzkxzbvu5H1vBi8WSwucYDy1BK/uxvY9LIVS8ubYdM3bvLRaOqK/OO7OkmPqavoRo567C/37XVqdKmh1XKecMNZscz+wZOLmWUSxlqUSKF8PoDUET+G4FsR143rBS9kXdm7Z2o70rnck3vrC0zZo14swFymozdtHFJrNeoIom8nvnEmLP/K3daqhvc7YIkJky+Zb8v++bk6z/Xv/fa5OyzBjzhnmw0KK3QUG+e5mtYld3F6/s+8dfDnQfbOyyihfFmuJLpTnXz/abUJd5biniyBqMhUi1uFClWSrYlfw+H3u6ovjeZ8YVvX9IB2EeF0Lk0ZehQuJx2TRRbtx/IyiA45Yt8BM9mbUC1ZvFnr3yxKq2TAP4s6a669WSy7ypwzI/fbtIfwbpEyMN67PZvWPkv7edMmHA70cOGZT396u2dBbcdmcTfKieLE7OPjUHjupLUr+2sbReEx7giZ7PAohx32O7UAGkUDP8XOwlucQxew3N9IBwLtdVqo4CydpcTfFlVo0kRiWhmj0bpdgsGDFxeP9zquP3bbYa63eoxv42SUrLzWnlxt5l2OSqe1kmrdxktQuM7YD4GOOhJWjtWSRdjtlif1vfkdmfZ4xz16sll5mOJcnWtxW+uMC5lKCzyX22fLPT3MSzU64ZalIotY9xuZZRLHWpRA8wtgNmwHiiglcMNG/oBbmo276w+6ITer+zS55Q+jqLB19uxV6re/Ns7Z1prGvtjdHs3Js8Voo0DY6Lo6yVaxyr8FwW/eHwC/OGeXBg9LYryKSVzFaxPba4fyFk0VvtmSl6hZriZ1eas8m0v5sfXN+vX0suS9d0WUWMbHY1WirdL6wYOOPkY/sOsdZ6lMLQgmf7919p6yj8mrP3rss034La1s3bBi6TVqemK4bIt7Mlcq/CL0OFBBr3RB5LVCfQpPHxuGUL9ERPZmnIrBXxyuq+pMVLGzqwekunVbwo1hTfOUPE+bMDx9ZnnluKOHctK7wEWfPgVOb+ucism0p+n83Z6F560kD1ZJFl05x9as6e3IR7Vm7rnd2iHrexM/Clw3g+ExAfY9z32PayGb4zSTlrj74ihCwnJL/Lt1RQPrmWEPKTXI1vL6lkkyv/T54yDHe9vtEqpNTWpDJjMrpxUOb+crX8n5d/lFnaSG63vLjOr2ILYztgPsR4KAlama1ix6/szzbppSSFSymOFmuKn2sWnPzMeWyQIs6rawovQSax4SY+ch2HskVk2S8vMLYDZAJPGqb5lQpeMbb5A8nB2bNZ/mfhlkye0Jp58laHVUiRi7bt1Wnk/nZOUPKFdy/8yFqJJma9U4LCvGEePMDpbUeQjbFnq2ZUUmCQGSVyELOtb+2L0Wl71OUttEgBZMPW3Hk2mb7ndvaHHGCz7+vs8fLO+tzPZc+okWp4qTNNTjusud/fd3T14Ft3Diz2XHXWaKvQUs5reMT3BZepMA++DBUSaNwTeWwHBzSafD5u2QI90ZPZKrb7l/dfJufF99qsQkuxpvh2kSIfKUxc+9SaosUJmSXyg8dXD/i5Pevk6ZWtePqdgd+djtmzyVruSwpDv13UvyDUWqCf3abtOzMN7e33sHxTB278w9+tP+81otZqin/yPs1WoeWwCb0X0yxdF8pXCJ7oBcDnGPc9tv1uhu/k9VJB8lz5rmov1KMlH7ka315SCWrGjPRckeTzkRMbcc8bfasLjG8alOnlIknl+9/cgrqaVOZnksT2cUYLYztAPsV4KAnaGY4ZJ69lFUL+vmEHRg0p3hS/WFxJ0VHiYUeRpcPcynUcKnWbYoSxHQDDBFBlXCcTo9Bd0X4ay/yB5Pe+cHzvd1hZCmzRqt4G+LLKzLNvbrOWAtujZVDBlWokb9i6g0WWPJg3zIOFFr2ZQb17ZxN8mdXhXMcw20F7NeRtii+zTPwqPkwb13dCZE8d9MpJBwzJHMD/+na79R6lmHL5qaPw84f6rmKTcZLficcWce1j3Xj4ZUhLl07va/woV4eHcFV1ZDjH4pFV28ruIRFBgf27Re4EfNwK9ETv46ofiRRDZEaJs2eJsxH8wbIcR55CixRA1rfl/k4hhYtH33d3jiLHs+z7Onu8rNzcmfO57Bk1MmvGzWvJTBu46Bnz5xUfWYUWmSUjxxu7Ef7rH4ZyzsUTPR8FFOOJvQjE2cjaydnsuhgve7TUO4okcgW93Fee/7lV260lw5xX+UvfFllSTF5H7rNg8SZrRsAFh43O/OzJt8tbesklxnYAfI7xUGJ7f7VMlsSHFAadPZhaO/riZY9htXkLLblmwdlkKbDswq0X7CUBc3G7LKEcG+R5nJyFVVnu0DkTTzQ5vk8EhLHtO3NnT5X52SpUL/Dg9Cl2519SZLn602MzK8pIr+V/u2D3vPeXGS1EXmGhRW+y9lVzECNgN8GHo7FUNueSWUfv14B3nw220ODs/+JlMUcO8mcd2bvkmcxSuenhjThndrc1hVGWIbscsIot0qD/H2f33k+WJvt9wO/fYYvre5KHPP0yVMjWuCUzrj16LEYPqbH6CUhvBFm2J5skQJ1Xjr+4ph0bOyuLY0li/uuRvUXhO5dsHvC60jOheXAqz6NLI1erOwtDzn4Mt7y6Med7LsQ5FpLMTVChpXADLgpYYMctW2Anes4m+FJEyO5X4iQFh3xN8WWWidtiSqkOcfRF8aoBvf2ei/WMkfc0d127VWixjzdSkLpnJUM0WQKLcd9j28tm+KWQgkouewyvdf0sXvZosWezSAJarqC3k7qSbB7TOAjvbumyll06dq+h/ZYLkyv3pchy+tRhmZ40z63a6udsFgqE7zEeeILW2QRfZqydddDIvPeVfTxfU/xcs+CC4lxGrNRZLIOLzKiz45cSSiIuhb+mU5iXNsy/VfVYawJWKrC8oVdOn9HUbzl+KbjIyjqvrWzvtxSYfZ92jS/QrADzhnmw0KI3CYxJfo+Aswm+zOb4wb3r8973D1+baBVcZDpf0IWGGXv3FoPyFYLKdc7sYZlKur0upKz/2DA4ZRVa5Hbd0OpMjxopxtxwf3mNdT2yOZBXoV7+fBkqJJwzhjLJ+v/HqKvKJaEnDaiXr2vHgjc290tezj1gRObPcuX2rHEN1s2NNkeTa6e7ztork3ScOqYed7++sd/9pBBSSs+DQmRJIOf7+dGJu2de+/pTG7Dg9Y2ZZXw0F6v9N7GCP27ZAjvRm+242nN5nuWwJEbtZvQnT2rCioBj1Nn/xatijv1+5LhYjByHr3IcA+2eLiHgiZ7Xgo9x32Pby2b4Xr1uGOztkb5TtdX9LxaRJZYOGdeAOdP6emLK0mDSk0WWR5KikT1OcrV/vpkAHmJs+yW4GA88QevsjyQFi1ykGGEXHKa11BVdsitozmXE3B5D7OLKwlVbczbDtwtOMjNmQDP8EmbYeYSx7RcD/wkD58GereaNQPKGXpK2ApLX29GVxrvru7D4nY4BfVYkT2mvuuNsZZBN7jdueLWri7FlJZtPHNiYs0VAAjFvmAcLLXoLJDBkdortpRWFv5AvXNpmzfSQwoQcpB59Y2BDej9Ivxi7mv3K3707aZClwOzmW3Kgd/aekVksMptFCi12IUqKLD+9d23OZdMCxC8+QfLny1Ahsfp8l2zstJbeOXRCY6bwIMUNSe5NUcUHWbbGWfCQ+xXri+AkSdRchRYprJyjGj7L7fzDx6BxUFUgBQ+72bRN/jy6sQZXPtP3pU3ed6Z3wrp2nP/wwP4NCcTjUxQEf9yyBXKi52yCv2h1G776RO6lf8Tj5+5jHR+O3bs58GKovfRHvkJQqZxLoy3dWLymKTPxpLBtH5tlmcKQ8ETPa+F8N/E1tr1shp+PXEkvs0Kcr+PF0mG5lgKyk8TyHkqZHSOzU7q6TatIkj3bZremmkwhRcZEelHZCdkT9x6KGbv39WV5YFnu5RI9xtj2S3AxHmiCNrsJvrPfULbLjt7NKrhIDIVRaLGPF170c5L3bXMujRZhjG2vmSZQXXMJDOMX6O6S5QC9fIHYfV52s/tskp+T1XYk59dQ23exwYoP8/dhkXzmGUcMx2kfdBQsoHxs3yFWbg8qvxhSv+Ug8bw8DxZa9JZ/aomHZHYKVBGhWOHkL69tyxQmDt+3IZBCiyztddGc0Zlt/N+l3rymcykwed7r/qf/cMtBft/d+zfekor6vGOGo/Hl1jAPzOvCemGt+PtlqJBQp0uVSpbikeLCqNoNmDd1GE6dNtxK6klyT/qwyPI+pRRVclm/PXdhU4ovkmy88uPjMv0HchU8hMw4kSW6sn1hRkvmCvF8zaqhEpZOkrCV5c+cM1tkZs+1AG54eYPO/Wditf8mTnjHLVsgJ3oyO8X27LuFiwdPrWy1ZtrJMUJm4AW1dJYURexjy8L3vEkQzVSzAOX4ai9XOKrAuu1fP6wlc3wS3//EOJzzp3c82ZYS8UTPK+HFuO+xXWoz/MNUr4r1be6W5dunpT5T/Fj0ft9zZRdIbKX0RCi0FJBsv9zc+uPi/AVhKb581NGDjl1pa5kwqJ4uc6YMyywjBrXcUqEm4h5ibHst+BgPNEErs1NsK4osu/vm2nareCjxI/2IlqzfEcxGKtITyUn6vthFU/nv0SU8117D+44Pa1wes0Lmd2xXXr2KgZQBdPWYMkHtw9pqzDUNLPSpbhpI3tAvUvQ4cGI9Zk9rzMxgkZ4sh0xWFxZs7PLkQme7yCLPt3SNFg30mTfMg4UWvfl++bPMSrGXzZLZKsXIAU4OTDK7xG6K7ye7SZZ9wL3jfzdZS3tVSoosV5zV97wyS8V+XimwnDyzOTMu4v7nt6BlaE1mdstl4+usirlU2p2zYAISxmXx/DIUnFheQSSFBSk+SHFFCi5S1DhtryZrlolNkoPz7n3buq8kB/80b5/M77KX5rKvQodqIp2PJBsveOAd3HTyhExSUwoe38laVidfU+vLj+k7hpXaq0FeW95P9mvvOby27GSm9H45Y0qzNUNo9ZbOOM6CidL+y+NW8AI50ZPZKVDHlGKFk3uX9RZaxFETgym0yPHt8mPGZbbxwbe9ec3DJvQWmGRJIZuzD4yT9M6yl3Vcrnq1yHFKfp5diA6AXyd6jPHg+BLbUljJN6OkGCkilFJIsIss2U3rvbhaXWaX5OvRkmuZoEI9Wor1VHEWo5zN8KFmBbU0DrLeq50k9rnY4ncShzHuv0ATtDI7RXR1p4sWThatac/M0tq3pS6QQktd1nJ9sp12fG1xzIST2C7l2CFN/aFmrMWkb5Lfse22gtiQ457Dct6zPO6nYFRhAgAAIABJREFUG5ahozuNcUNqHjEM4zPvb9+5pW6Qby8VuxNGKa4cd1AT9hlfl8nJQRVBnnmjDdP2qMvk4x5+ZWvB55o4ujcWczXMl9dxemFpG259crMnOcUY0GI5jXKw0KK3d/1+9zIF7/r/7j3hdlvVlf4ksgYi1NTX1jU9JT+Hk/3Yto7+BzspAn32uJGZA68cFL2aQeMsstz15Cas3rILnzuq2Zrd4yywyGve+0JrpoI+e8V2nHZYs1VssW8yK0aKVHcv/CioA7bv+0UO/DIUnFg3+pAiiixP0zy4CjMdjW0l2fjdx97PzPSQYoyTs8DhbHItiiUp5Tm/+shqqzG+NL3OR64wd/ZMkJkvzteR3zl/jwIFmuzXdhZb3tlSWpsSeU25Ul2SqCPj3wAzSvsvj1vB8/0LvcxKseNEZqsUI7PupGgp8Wk3xfeTFFnkeGAfW255cZ0nM9zk+GW/79c/7DsmNQ3uO4bJsUpe/7pjx2WWVpOZelJY+c6sFqvgJMWX24bU4FtPrgly5p1f+wVjPDixPFmX2R7OmSlSZLnr9Y2Z2WGocOmwpRs6rKvcZYZJKaQHg1izrbwr26WfgyxNaCd6JRn8xIpWKxEt73ne9FGZYkvnLtPPBLXf+wVj3H+BxbYUBu3ZXTJbpRgpSEjMyr5sN8X3276OGTdSuJQii7y2XSDJLqi6Idttzzh7a2N5K2LU1qRc3MtT/u4XBq4C8AuYqIeBfAfQKpj4MMdv/y4t61Qno0qk/D5v6ewxfjiiruqqlGFgZasJH2M7jPxQRfYa03vhtnA2wd/WkcaXTh6ZWbo/Owe4ZktfoVLycrIcmP08uRrmy+vY5OLpoPtMhyx2+0VQWGjR2yq/370UEEqdhpfrMZUso5XvsaObqzPFEK8PilIYkamJMkNGDtwyM0fWdbRlF1ic2yo3mRFz4sFN1gwX2UZ5Lim0BMT3/WIAfhkK0nuhvKpHZEaGvZyWLNe1SF15feeSzZmlbiTReaqjkSvU1df2VdYHOxreyuPdJAOtgscTH1jP076zB9e8uAG3nTKh332koFFoGbNcv5P3UGyWi7PQs377Tuu1S1Hp0moRE539l8etMPj+hV76QskMOORY0i+f7//fGkxs6i1SbOnqwZaNPSU/h5P92Nau/juOFIEunDUmU2SRIodXM2hkmUOxafsubOvqsXpACftYKsXsXK9vH1fluNQwqMoqtEgR5tbT98SvXljrWZP+IvzZLxjjQYrlyfrwur5luyRp+sTKrVbT+EKkiAHrYoziAy2J13KuTs9eIs0tKf7YfWts2e9L/ivFJLvYIjNe5Er8D8os6hTh737BGA9CYLEtS2aVWmT8nzc3W3EspKC5Zlfpz+FkPzZfcVSWIpSiiMxEW7WlC5+d2ftv7xsf5v+30j5mjG3MfbHUKVP6an4yS8cNKc44H+csqgbE1/3CMIxnkcZB6XRa/lLSY00TX4GZ93hQwTaVUNot/mzbYeDzRgr/LYsspAzTmrnmo+DzQxWSZviS48tugi95NmeRRfomO0l+7q9vt1vFld4Ln3t/KcWaZ/42ML7kZ/tNqMNdT28Z0GxfA7HbL4LCQovelun87u3Cihwc3RaD5L5y0M6eHZNt/uObrZtNnl9mtkjDLTevJwfpJR9sRPOTm3H6jCasb+0Ocvph4PsFvwwFKrZXHshMFLs5PVQC8IQ//L3ffaQQ87UjxvSbSQK15JZcZf3TheusoowULCYNr8WfV+QvYMpzzRrXYPVKsYs4bpfEkSvcd+zMXcCRbZtQpHFt9mvbhZ5ijzl+UmNm+Z9cJIka81ktkdl/edwKhe9f6GWGitwqfUwlBYZ8j92tcVDm2CZFWq+a70tx2j4u3L90szWLxVmglWPZ3a9vxD4jazM9sh5aumXA68vx8bzNndZxWp5PruoPqNDiy37BGA9ULE/WpbhgN9l320z7tGnDM0sFQTXsjgop/jgLR9L/KVehR4otjyz/CHMPHmm9F0lU+1Ro8XW/YIwHIrDYLqcwmesx5RYq3TxWjhP2sUJm4EAVN14tUCDJPmbI/Z3LjG3t6M4sI5jv/Vt9l1q7Mn+W+8lsPGdRVZ73uVWFl1DyUJSP+d4nXTyNa7wKw/g0YLxtILCZw7HLG+Zrhi95tlse7r1oMd9qNj+4t3fFQ3tZMFlVJ18uTvJ6hRrkO0nhB1mzZmJO63xyISy06E3WxpQSbqIudy5FqbNYypmhYyun14oc0AOefrgxhk2t+GWoNLErtMhSNdnLdtlLhTnv42yWb5Mrru0+AnKV9S9Om2glCG9ZvLngTBbnzBl5Tlmep5Qrx3+7aEPeBKMs0XPVCRNy/i77tSXZedtL66zG/IXIe7v+1Iac95DiypNvtVpLrslV94VeOwaSMkWZx63yaP2F3i5sSCy7LQbJfWWJwuzZMU7yXNIPSo6hcqyR4+m2x/tW9ZBZOXbvq+1d6YKvL49f+EE7Tp7UZPXUCkgU9wvGeGlC+QxXbNhhNcKX5bnK9UCO/Vyeb2GehKUkMmtV0rSzO40315dXaPFi2+3t7FRXsf95+UcY92G7dSV/sZk5Ulh5cOkWq+eEj0uHRfmYzxh3h4m4PJxxUyjenMcMqCUFnQUVOQYt29BRcAaOxGv2smS/fD7UU36t9osS67iF3GIY5v+zOi55eLBwIVF5Q7ftAipZVSeXhC0rFse8YWBYaKElAI7TfhTI9gZHIhFfhgqJVaI6exYLVOHg2qfWYNW2ndbvJ4+ozRRTnOwChX2FtTyHXbyQmywbtliu2PygfUDScEJT36wPeczXjh5nXU3u1RXkhchrO9+vNPyX92jPppGrzyWJaTfsLsa5fM/Eptj3aOFasHkk/Lhl0/4CkVKPQW5n6EghxX5u+XOuQrHzPkVfM4BjpaLNiV7CYzyU2Parkbtc1Z7vynavXtOL58neTkn2lnI1fyVX/rugXRInoTGu/b/bhbgpUrqJdZ9j0Wt6xbYHISixbKDqAgPmbaZphhXWzBuSE/OGBbDQQot4wCSHV7UfjOR8GcpHvq3LGlTjI7VVeWQXWZava7eaLB8yqhZ/mrdPzgfJfW55dWNmuS/7CusvH9rSb1aM/Flu5x/eW7w5Y8HKzO9k9srqbbtw5cfHZZbUkeKMNLh3s3yYzBq5qsz3bL+2PasFaumza9XSPLd/aq+cj5P38PLqbXhiVRuuP3Vima8eaavV/kvZkn/ccuKJHjnpcaKnR4wztslJryROsmOcsU1OWsV2ZWFoxfTqKjN1drfR87JVjK20K1T5mDckJ+YNC0iV/UhKioX8JMnhed0Ho/IvQ6nV1WbN4SbM2yKcqPxrBLbBFVkeTJYJk5v0JDj/4dWZq62dPVDkz7JMmDSRlvvYRRabXGEtPU7Ou+9t637Z/VM2bR94xbc8xwUPvGP1W7FZBY+jx/r+vuW1ZSkft68txSUpFElD6uz37jSuKdxO5hXilTN5aHLcsi2KxmZQRGhxoqdJjDO2yUmrJE7CY5yxTU56JWjLikdTlU7xoAHjoCpUvxxmhUVh3pCctM8bFsIZLfS8OpJHP7VCfjN5wKzky5D1/w+mYHyuCtWt3eiOclhJwnpOBLajKCka2A3vpXeJ9DexPbWy1Wpov2TtDqsHgc15n1yefmebdZOiQ+OgKhw4th6P/D33mqlWE/pHVuOmkydkGtjvWaSRvZCCT7k9Woq9thRVVm3pRMOgqpxLphXS6JgdFEMstOSjx3HLxhM9ctLje4seMc7YJie9zkmSHeOMbXLSJrbLXw4wJYF9FYz0D3sLLqEXWcC8ITkwb1gECy20STUj20/7kaBlas1UbSXsy1AhsUxYXzhzlNX0PVuun7khM2SsfgOvF76zXfCQhvzih8/1Lh02coj/s0NyvbbdxP/S6SMreu5VW2K1njNYaMlNo+OWjSd6ZNPiRE+jGGdsk02rJI4GMc7YJps2sW3FdXkF1C1IV38WpvEwquRcLTIXyTFvSDbt84bFsNBC4i88YJLaD7SVwC9DhRQpLVA2q+DxxAf9fmr3bsnlCzNaMPeAnpy/qy9xVkmu1/bC9q503D7nxRHYhkjR7Lhl44ke2RJ/oqdZjDO2yaZNEkeTGGdsk02P2C4/rl8wUDUXMD6IaOGUeUOC7nlDN1hoIfEYgG9wJLT3mLYDkNwvQ/ksB7AFwPBobl5x0mdFlv8q1TF7NpW83Jbt7MlN2K1xEB5Ztc3q+eL07rZdmDKyLvOTCS6WFyvFedOGWfeWxv6lkiXSLp3eu22nTovtR75FnZyRTb/jlhNP9AiJP9HTM8YZ2wRtkjh6xThjm6BDbJddPDXNX5imeYkR7S7azBsStM4busRCC4mn5eJmAEM4GtrarvYD7ST8y1A+9rTtU6O5ecWtb9uVswfKwvOmWv+VZvfSSD+7MbyzGFKqcw9psWaxzJ0+Cv/+zJp+j5bCy8RNHdZyZE7S/8Ve2mzT9l148q3+vWCcvWXyGVVbhfMPH2P99pzpo3K+r0KkL4tsczY3rx0hzyMCXSCjQtPjlhNP9AhJPtHTOMYZ2wQdkjgaxjhjm5D02C4hrjNT0EzArEobnzdh3hGDEx3mDUnbvGEpWGgh0QXgQcnhcTS09aDaD7SiwZehQhbGudCSixQkbKUuz1WMzGbJt1SYFHWEFH6yiz+XYqSj0LKztydMiU7bq6nf+1q1bWdJTyAFFSny2Nsv2/vQ0i15m/VHFBvuKZoft2w80aPEnuhpHuOMbUp8EkfTGGdsU6Jj2yp+Gq4vC+ttlGlgowFjjgG8EpO4Zt6QtMwbloqFFrIt4AFTawt0e/OafBkqZGF0N608h4zqv1xXKbM+ijlqYl+xY9HqNmsJMdtqR1P5206ZYP1XGs1f8+KGAc960u4NmLPvMMyY0Gg9j5veKyfs3bfUmTzGboZfimufWoPmwSlribPsZc9i4rk4brTXeNzK4IkeJfJEjzHO2KZkJ3E0jnHGNiU3tg3ANPr+XPzu5l/MtPGNVCp1N0xzrd+b5zHmDfWmXd6wHCy0kE3Wy5SGB00cEe1s066hlV5fhvJ5EcBWAEOjuXmlmzmuIfMYZ/GjUvsOHWQVRmzPvrsN03fre61V6rVk1os9e0V6tOQqtLR2pTPPJf+VwkuhmSWHt9T16/cir12O7KLTpdNHWsuJLV/XjgVvbI767Jatan/VG49b2Xiip7fknegxxm2Mbb0lN4nDGGds6y2w2L76YyOiPtAfAri+tIc0Fvzt54NL4zFvqC/98oZlYqGFbHJ1wV0AvsQR0c5dYV9dwi9DodgF4EkA/xj2hnjlsAl9Y/rmOu8KB2dN7ZtRIktw3bNyG87cv2+fXdu2y/qvs/jyyuq2nM8lBQ9p5G835J97wIiCRY4zpvS9tiz5Ja/tJSkMTVm7I+qFlv9T+2uk8LgVOp7o6SuQEz3GeGgY2/oKNInDGA8cY1tfTNAmB/OG+go9bxgX8W+HSl76DUdTS7fqPgAaezgpb11maDh7qLy6pt2aLSIzQiohfV8+Prmv2CHN7GWGi3OWydKNndbPjnHc7+l38hdEfvfXzZk/S6FDtjOX7Od8amVrzvvl8oPHV2dur20cOLtHmvTHyJ/jtLEUGPtEj/TDE71kY2zri7GdbIxtfTG2k4V5Qz0xb+gSZ7SQ02vSAkBWtOGoaGORupGeHo3Tu174XhuWrN1h/VkavNtkyS5ZBssms05kGbFT9uu9UlFmgsgMk9c/bMcjq7ZlHiv9SoqZN3VYv8b6dy37yPqZ87VklspNx4/v97NCM0SkR4pzVov0bMl1/5Mn9b/g795l7gstxWaojBzS12PGOZYR9VjUN5BC8xteUaclnuglH2NbT4zt5GNs64mxnSzMG+qHecMSsNBC2W6SC645Ktq4SfcB0Nz7ssoVgEPjMAy3L/2o399ltoosreWc9SF+9cJaXHXChMzfpVAi95Gbs+iyYmvhYoTMZjl12vDM36U4Io3oZ+3RtyzD0nW9M2ecPVzuX7p5wHNlu395X6FFHiuzV5xN6rNfW3qpFGpiLzNs5DFuGuVLYco5+0f6xkSYfKFbHeUNpFDxRE8/PNHTA2NbP4xtPTC29cPYTibmDfXCvGEJWGihbH8EcC2AcRyZxPtQfd6kt/+KQ6HFXl5rysg6jG6swbQxDf2KBbbbXlpnzeZ49PZl1mNkZov0brHv6yy6XDhrjLUcl8wUyVXEyJ7NIkt+yXM6lw2TgsmFM/tm00hBxFkQGjI49wqdMgtGGvbbzyWzV1a8vinvaz/y94GzWZwzUeS+d521l/WchchMFue4SeEpu1F+xNwX5Y2jSOCJnl54oqcPxrZeGNv6YGzrhbGdTMwb6oN5wxKx0ELZJNv47wB+xpFJvBvU5016u0fFuxHFUZAluZyzRfJZtLoNdy7Z3K9oYBVcZAmtFzdYs1+On9Ro9VuxCxjyX1leTG5SoHEWSPLNKPnyoS2Zn9nLhrUuXIcrZo+x+q3c8urGvNu8KqsI8t9vbsbJ+zRj/fZd1pJm+V7bbsCfTd7bFxzFGnk/sg2leGjpltI/lOCYqhBIVAhP9PTBEz29MLb1wdjWC2NbH4zt5GLeUB/MG5aIhRbK5T8AXCH5Po5OYm0E8GvdB4EssizTCwCOiOJwLF7bnrNoIcWH97Z04u3NnVaRotCyWlAzSOR2zYsbcN60YZi9R2O/osTSrIbxwwdXYcfOdKYos+CN3uXA/rziI0wdU2/93F4iTF77/If7Vreatbkz5zZLg34nKZ7kKqBkv3ahpci++shqXHjwCExyzLJxo31n2hrb7OXYIuZFqU9FeQMpEniipw+e6OmFsa0PxrZeGNv6YGwnG/OGyce8YRlYaKFctgP4Kb/8JJp8vm26DwJl/CGqhRYpBDSqgoO9VFaxRu9unlNusgyYLEX2YdvOActnSfHkjAUrrZkwzYNTmdeU/7Y+9j5mjWvIW6Rwzk5x/qxYMSj7te3tK1QMkZ4sUjxKqDuS+sbIczzRSz6e6OmJsZ18jG09MbaTj7GdfMwbJh/zhmVgoYXy+SWAywCM5QglzlrpF677IFA/MqX7egClTYsIyI2O3iVeyiwtVkCu/iX27Jh8pFCywoNtdrN9CdbJpQaoBDzRSz6e6OmJsZ18jG09MbaTj7GtB+YNk4t5wzLl7tJLBEgW8UqOQyJ9R3pg6z4I1I9MmbiXQ0IRcq/aL4nc+qU6IaDk4Yme3hjbycXY1htjO7kY2/pg3jC5mDcsEwstVMjvpa0ARyhR5PP8ne6DQDnN57BQhPwHPwwqEU/0kosnenpjbCcXY1tvjO3kYmzrhXnD5GHesAIstFAhaem1DMDkKCWCfI6Xqs+VKNvzABZxVCgCXgOwkB8ElYEnesnDEz0CYzuRGNsExnYiMbb1w7xhsjBvWCEWWqiYFwDcylFKhP9QyXSifH7KkaEI+Ak/BCoTT/SShSd6ZGNsJwtjm2yM7WRhbOuLecPkYN6wQiy0kBvfBPAhRyrWPgDwLd0HgYr6bwCrOUwUotVqPyQqF0/0koMneuTE2E4OxjY5MbaTg7GtN+YN4495Qw+w0EJuSEPiC3mlSWyZ6vPbpvtAUFHdAK7nMFGIblD7IVEleKIXfzzRo1wY2/HH2KZcGNvxx9gm5g3jjXlDj7DQQm79GcAtHK1Y+iWAv+g+COTabwCs53BRCNar/Y+oUjzRizee6FE+jO14Y2xTPozteGNsk415w/hi3tAjLLRQKS4DsJQjFivyeV2h+yBQSXYAuI5DRiGQ/a6dA08e4YlefPFEjwphbMcXY5sKYWzHF2ObnJg3jB/mDT1UnZh3QkGQBOzZAF4C0MgRj7w29Xl16D4QVDJZX/dyAOM4dBSQNQB+zcEmj8mJ3pEApnFgY8M60Vt45vbSt7f1FX1GqfnQCGxEqBjb8cMkDrnB2I4fxjZlY94wXpg39BhntFCplgE4j9N6I08+n39WnxdRqToBXMNRowBdwy935AP7RK+Ngxt9/7Dnrs7TJu66aOGZ23ksoGIY2/HCJA65xdiOF8Y25cO8YTwwb+gDFlqoHPdyaaHI+zGA+3QfBKqI9Mr4G4eQAvA39mYhH/FELx7Mzh7jm986pEu+u5wPwNB9QKgoxnY8MIlDpWJsxwNjm4ph3jD6mDf0AQstVK7vAHiAoxdJ8rl8V/dBoIp1A/g6h5EC8HW1vxH5hSd60ffjf53ZeROAuwHcCuAJAHvpPihUFGM7+pjEoXIwtqOPsU1uMG8YXcwb+oSFFiqXXMFwjlp3kaLjJfW58Aog8sJjAB7iSJKPHlL7GZHfeKIXXc4Tve8B2AzgWABvqH5h7ClJhTC2o4tJHKoEYzu6GNvkFvOG0cS8oY9YaKFKyBqqJwP4K0cxEv6qPo8dug8Eeeoy1bOFyGudav8iCgJP9KLJOtFbeOZ2+0SvFcBV6s91AH4G4AUAB+s+UJQXYzuamMShSjG2o4mxTaVi3jBamDf0GQstVCk5IT4BwHKOZKiWq8+hVeMxIH+8BeAHHFvywY/U/kUUFJ7oRUu+E71bALzp+PtMAK8AuAZAra6DRQUxtqOFSRzyCmM7WhjbVC7mDaOBecMAsNBCXtgI4HgeNEMj436c+hyI/PBznuCQx5YA+CkHlULAE71oKHSil6tHmCwfdqX6t+hoXQaJSsLYjgYmcchrjO1oYGxTpZg3DBfzhgFhoYW8sgbAMQAWc0QDtViN+4cavWcK3i4AXwTQw7EnD8h+dIHar4jCwBO9cLk50ZNm+Pfn+Pk+AJ4CMB/A0CQODlWEsR0uJnHIL4ztcDG2ySvMG4aDecMAsdBCXtqgmpcu5KgGYqEa7w0avFcKnyzbch0/B/LAT9T+RBQmnuiFo5QTvX8B0JXj5waALwFYCuD0JAwKeYqxHQ4mcchvjO1wMLbJa8wbBot5w4Cx0EJe+0hdbfJfHFlfLVDj/FGC3yNFz9UAXubnQhWQAsv3OYAUETzRC1apJ3rSw+nmAr8fp2a9yHfO0XEbDPIVYztYTOJQUBjbwWJsk1+YNwwG84YhYKGF/NAJ4BwAPwZgcoQ9Zapx/bQaZ6IgyVJPnwGwnaNOZZD9Zh6XDKOI4YleMMo90fuhiwTPXAB/A/B5NduFCIztwDCJQ0FjbAeDsU1+Y97QP8wbhoiFFvKLqZqWng2gjaPsiTY1nlfyHyIK0UoAX+EHQGW4RO0/RFHDEz3/VHqitw3Ad1zcbziA3wJ4FMCeUXnzFDrGtn+YxKEwMbb9w9imIDFv6D3mDUPGQgv57T4Ah6krDal8Mn6Hq/EkCtvvAPyanwKV4NcqCUoUVTzR855XJ3q3l7Am/wkA3gDwdQBVYbxpihzGtveYxKEoYGx7j7FNYWHe0BvMG0YACy0UhOUAZgL4Jf/BLpmpxk3Gb1nMtp2S7asAXuJnTC68pPYXojjgiZ43vDzRSwP4Wgn3bwBwPYDnARzg55ukWGFse4NJHIoaxrY3GNsUNuYNy8e8YYSw0EJB6VDLDZ0KYA1H3ZU1ary+osaPKEp2AjiLzRGpiI1qP9nJgaIY4Yle+fw60XsawD0lPkYSb6+qPi+DPdwWii/GdvmYxKEoY2yXj7FNUcK8YemYN4wYFlooaA8D2A/AfHWFIg1kqvHZT40XUVR9AOB0ADv4CVEOsl+cpvYTorjhiV7p/D7R+2YZ68UPAvBdAK8DONKHbaL4YWyXjkkcigPGdukY2xRVzBsWx7xhRLHQQmGQxqYXAzhKnfhSn9fVuFysxoko6l5SzSh7+EmRQ4/aL7i8HMUdT/SKC+pE7x21JFg5pqpZMb8A0OjjNlJ8MLaLYxKH4oixXRxjm+KAecP8mDeMMBZaKEzPqymq5wNYq/knsVaNg4zHwghsD1EpHgDwHY4YOVyp9guiJOCJXn5Bn+j9uILvjHLe82UASwHM8Xi7KJ4Y2/kxiUNxxtjOj7FNccO8YR/mDWOAhRYKm1xlcjuAyQCuALBJs09kk3rfk9U48KobiqufAPg5Pz0C8DMAP+VAUALxRK9PWCd62wF8u8Ln2B3AQwDuBDDKo+2ieGNs92ESh5KEsd2HsU1xxrwh84axwUILRcUOlZzbE8C3AHyY8E/mQ/U+91Tvmz0uKAmuUM0USV+/VH0UiJKKJ3rhn+j9XjW5r9Q81fj33P/P3p3Ax1nV+x//TrovdIEulJalpSxllULZy66IiCAK4kUviMoFERUVFC5eXHD544JXRbxcRRC4IkqlYmWRfadlLdBSLG0phUJaWkr3LfN/fU+eM30ymUkmySSdST7v1yskmcw8c57zTEpyvvmd32Y4B1QevrdZxEHnxPc239voPFg3RMUjaEGlWZH8Zbz/ITlT0jOd7Ao9k5zX6OQ8V1TAmIBy8X6/50u6nhntkq5Lrn+2q08EugR+0dt8/G/Ml8v0b81Wkm5I9qjfYTOeEyoH39tA58T3NtB5sG6IikXQgkq1Llms3Tcpb/0fScuq9GotS8a/X3I+1yfnB3RG2aQs/Q9c3S7F/659jpAFXRC/6G0e3g7mj2V85uMkvZCExfx+BPG9DXRafG8DnQfrhqg4/CKBavC0pHMkbS3pZEk3S1pZ4eNemYzz5GTc5yTnAXQFG5Mf8H/N1e4SfJ0/k1x3oKviF72Od3GZ/0K3v6RfSHpE0u4VeL7YPPjeBjonvreBzoV1Q1SE7lwGVJE1kv6avPWWdJikDyZv4yrgNLzP953J20PJeIGuypUN5yV/RXURr4JO64pkWwIqWYBNnk7evpJUSpwq6QRJ/Sp4jvyL3u2SbpF0R5X8DDM/2Q7lsjIf96DkL4J/IOmHLFYhhe9toHPiexvoPFg3xGZF0IJq5X+M7k7evippaPKL8SHJX3HsldzWXhZJmp78Iu6/fHw8uQ1AQ26M/nayGEYVZefhRpoXSvpZV58IoAn8otf+rkgq6rYr8zP1lPRtSack2yI+UYknj82G722gc+L/W2BMAAAgAElEQVR7G+hcWDdEhyNoQWfhf6z+lrxFWydbP4xNGpyOkjQkefM/pgOS+w1MFoDrUuXC7yXHXJy8LZA0T9JsSS9JeotXDlCynyXfPzdK6sO0Vb3Vkj4laVJXnwigBfhFr32sSrYQu6mdju+fIx+V9CtJ/8le9yiA722gc+J7G+h8WDdEuyNoQWf2VvJ2L1cZ2Oy8KH9k8kPNMC5H1aqV9BFJT3b1iQDaiF/0ysdN8b+YLIC1B8/1l5J/+7x39l2dYM7QfvjeBjonvreBzol1Q5QVQUsXdes3xnT1KQDQ8Z5M/gLsL5IOYP6rjq/fx5NfBAGUH7/otU42CUKmSsq04/PskGzXcmOyj/877XlS6FT43gY6J7630amxboimZL7J9BTSnr+MdDnZLL2AAVSuQ66dWSlj6yXp58lfBqM6/CZZWFxbCaN99KxK2CYbQNm8O60cR7pO0hkddFFqk38T/9hBz9fQoAmb5WkBAAAAy2SIFAqhMTEAoKN5sf5cSWey333FW5E0mj63UkIWACjikg78f4q3wPw/SX9PtooBAAAA0MURtAAANpfrJe2TbPeCyjM1uT7XcW0AVIE3Jf2wg4d5fLKX/nn8XgUAAAB0bfxCAADYnNzw8RBJl0vayJWoCL4OP0iuy+yuPhkAqsrPJM3t4AG72fGvJD0oaVdeLgAAAEDXRNACANjcNkj6lqQDJU3namxW05Pr8J/JdQGAarJG0jc203gPlfScpEsl9eBVAwAAAHQtBC0AgErxlKR9k0X+NVyVDrUmmff9kusAANXqz0l1yebQS9L3kn9H9+cVBAAAAHQdBC0AgEqyIdm2as+kyTDa35Rkvj3v65lvAJ3AVyTVbcbT2EvSY5J+KqkvLygAAACg8+vONQYAVCD3BjlB0geTharduEhlN0PS1yTd2cnOC6g4lz3+TouHlM1mJyqrCyX1bkMPq26uWMvUZK+Q9EhLHvidg4a28ikrgrfwulbS5zbjYDz3X5X0UUn/IemfFTQ/AAAAAMqMoAUAUMkcAtwj6fNJH5cRXK02WyjpcknX0IcF6CCtqa3I6EZltF05BpjNZnyc93Wxy+3tEE9NmtVvTqMl3SXpOklfl7RkM48HAAAAQDtg6zAAQKVzGHC1pLFJk+NFXLFWWZTMn+fx14QsQMepq6tr8VuZZbvg5a5N+qVUgoykzySVhKdUyJgAAAAAlBFBCwCgWqySdEXy18EXSHqNK1eS15L5Gp3M36oqGDPQuWQyLX+T1pRxDtZ20VfULyX9qwLGEQ2XdIuk2ySNrIwhAQAAACgHtg4DAFSblZJ+LulXkj6ebMWyL1exkacl/UTSX6heAdBFOWC6MAk2KsmJko5Iqgyv6aIVRwDQJrXl+9Mh/3/ixy190LC+XD8AQENUtAAAqpXDg5sl7SfpYEm/l7Sii1/NFUkfgIOTebmZkAVAFzc56fVVaQZK+o2kByTt3NUvEgBsJt9PKr6/zwUAALQVQQsAoDN4XNJZkkZJOif5vKv8hXA2Od9zkvP/TPI5AKDeBRUcOh8m6TlJF7PbAAB0qMMlXZI84SXJ5wAAtBpBCwCgM1km6X+Sio7RybZiUzvpFZ6abHUwOjnf/0nOHwDQ0IvJFl2Vqo+kH0iaJmk81w4A2l1/SVPynmRKcjsAAK1C0AIA6KzcBP6nkg6QtK2kz0u6tYrDiGXJ+D+fnM8BSQ+W1ypgbADKr5w/p/Mzv/Rfkt6tgHE05X2Snkx6BfSp3GECQNVzqNIv7yT6FQhfAAAoGb90AQC6ggWSfps0zx8iaWKyTYt/mVpSoee/JBnfxcl4hyTj/21yPgA6t+3LeHYjea3oHUmXVcA4mtM9qcacLunIyh4qAFSlbyfbNhZyWPJ1AABajH2AAQBdjffpfyR5s4ykXZO/JN4redszqRrpKK9LeiFZWJue7Nf/chfqMwOgoUzoO5XRUEnr2jg3val8y7la0rnJv/mVbqykeyVdmwQvlV6NAwDV4PASQnd//X5JD3JFAQAtQdACAOjqHGbMTN7+mJoLbx+wQ9IDxe+3k8Ki51bJ25BkH+e4vcvApFK0LrU92WpJKyQtTv6a2m+LJM2XNE/S3OT9yq5+EQA04H+XbgxxC8ppvaSvSvpHlcyqXwGflXScpPMlTQq3vjttsw8M6DCDJjDXKBf/3P73Eo/l+41Ifo4HAKAkBC0AABTm8OOl5A0AOlY2iW1Rip6STkreDpK0TXJbZ7FN0qML6CxWJNugPivpr5Iml6F6D2jO31vQ7D6GMkcwqwCAUhG0AEAX8ehZ47jUAFAlslk2DyzRRyVdkWy1BaA69E+28PPbJyXNlvSNXNUWUH6XJduGtUTcZuw7XA8AQCkIWgAAAIDKUtOl6llK3Rqo4ZZZ3ST9QNJF7TQqAB1nbFK15dD0EkkbmXuUUVsa3H876dfyEBcEANAcghYAAACgsmQyGV0laXgZ6locSLycLF52JoQsQOcTv6e/wbVFmbjn4pQ2HsqP35qeigCA5hC0AAAAAJVlozL6XBn7jCzsZEHLxwlZgE7L39suX/sLlxhlMKUFfVmK6Z8ch34tAIAm1TA9AAAAQMWZV8YBze9El9fh05UVMA4A7efnZQya0XV9uxV9WYo5vA3bjwEAugiCFgAAAADV4hRJo7haQKc2UtKpXGK0wWFJI/tyuiw5LgAABRG0AAAAAKgWJ3GlgC6B73W0Vv8y9GUpphxbkQEAOimCFgAAAADVYgJXCugS9uMyo5X+0Y5hSP/k+AAANELQAgAAAKBabM2VArqEEVxmtIK395rYzhM3sR22JQMAdAIELQAAAACqRS+uFNAl0AwfLXVYBzas/3btKvq1AAAaImgBAAAAAABAtWrPvizFTKldRb8WAMAmBC0AAAAAAACoVpujSf3mCHcAABWMoAUAAAAAAADV6NvJtmGbw2G1qzpsuzIAQIUjaAEAAAAAAEC1OawCGtNfRr8WAIAIWgAAAAAAAFBl+lXQ1l3u19KvAsYBANiMCFoAAACA9pRhdgEAKLM7NkNflmL6J+MBAHRhBC0AAABAe6qRMtX0U3e2AsYAAEARtavCdmETK2x+JibjAgB0UQQtAAAAQHvLSBkqWwAAaJPaVSFgqdQG9N9OxgcA6IIIWgAAAID2liVsAQCgLWpXhS26KqUvSzFTknECALoYghYAAACgo2RK7tlSzp/T+ZkfANAZOGTZosLPY4sqCIMAAO2AX7oAAACADpQpLWzZuowjGsb1BQBUs9pVYbuww6rkFA5LxgsA6EK6c7EBAACAjhW3EMsWbzx/klS2rUeWcnkBANWqdlUIWKqt0fxltat037C+eqgCxgIA6AAELQAAAMDmkOrZkq1r9Pz3ck0AAF1d7aqq3orL/Vq2GdZXyytgLACAdsbWYQAAAMBmlqkpeUsxAAC6killrPDsaNXQvB8AUCZUtAAAAACVIEPO0lnVLf6X6t59Td22P6T+DNevVqbvlrmz9dfXv/JX9dj5o6oZslNZZmHD/Me1ccHD6rH76aoZOLLFX1/72BWq6TdSPfY+vehzZNevVnbZgjDm9PHCOS2br+7bHZQ7Vrdh49V97DFtGnMpsquWhHHlP379zMmqWzpLvQ6+qLTj+NxWLWn1OIDOqHZVh5+U+5xMrPKpnJj0a6FnC+DGgX2ZBXReBC0AAABAJSFtqQhxYb4luo2amAsX0ja+MVUbXv2laobeqnUPf1mZ/ruo1xHfD/fwgv66Z65UdsUz2thvZAhkgp79Ch6rZOtWqu6tSdLOHy38iGa+nl0xTxvemqTuOx3XIBRK2zBjUjivXofd0OB4Do38cc3AW8O9/XGm5wBJTQct+WPaMPserZ9+abNn3GOvy3MhztpHLg1zmek/Xt13/XSYw7plb2jDzB8mxxxf9DjpIGj989dr4/zr1H3H89V9t5OV6dFHqycd2OxYCo1JrXw9FQucWjKOPic/0aLnBFqpZ9JbzG/+h2ub5DbUu6wKe8wALbFC0gJJz0r6q6TJ/r86M4iuhqAFAAAAAEqQXTJV2XULVLPl0VLPgSVP2cbX/xoW/r1o3n3Xc0J4sGH2kaHCZd2jl4dgoGbrk1W38g1l3340fN5tuzOlVNDiqpAQQhRQjsX0YqHGmjs/1OBzhyqx6sYhjIOW9S9ep26jjqw/10Uzwjg9fp+vq3WsZtDYVo/NYUem3/BGt2dXvh2ev8H4jvypNr72qDa8/BttePkGdRvxPq1/9te5rzcV3KSDkR57n6HsuvfC8euWzlDPQzY9ziFKtLH2mU3nmzrHmkHbNzi2Q5YQPm19crPn65DLr4FiIVj6+YvZMGdS/TGA9ucX6hWSWv9NDqDaeZu8XZO3T0qaLekbkgr/4AJ0UgQtAAAAQDvKKDtCyrxfUrVslvCKpPsqYBybVY9xJzZ6eocd2bcWqMceZ5a8xZe3w3I402PXc8LnXsz3IriDgI0L7lfdknuV6TlK3Ucfq0zfIfUVL/58pxMaHMfVMt5+q8Gx50yS1tWGig2tb7inj0MIixUymYGjQlVGvG+Dr/foq27bjFem3/9o4xuPh8AgBgXZ9au07vH/CEFC9x2ODsfJPceqd0IIkn4+rVsRxt9t5EFh6634/A448kOOGBAVHFP63EfuX3C+HeJseLXhbT5Hz3HYps3VQo9eHubY4/Q2aL4e65+6IFdx4jE6TArBVt5xvM3Y+udHhrBlw4zdNo1n+0PClmn1Y50d3qfnLNN3q6JVQKVsXVYfehUPSZrbgk1JAETQgnbWTdIPJJW2Hx+ArsTB661JCHuJ/7fE1UdXQNACAAAAtKNsXeZzmYy+WzVznEn9FwW1pI+Ke46E4GH7Q7T++ZtUM2wP9Rx/gepWLQ5bZbkSxIviDjOiXkff2mjLqELbiDloyWy5v9a/dFPRapcYbrgSJTNkp0b39dddZeEAoMafP/091S2Zrt4fqK8C8aJ/eEH0G9HovNc+9OnGY0oqTHw+DjN8bkpVYcRKi3RVRqExpR/jipmCFUTrlhU8Z9u48DltmP7TUEFUM3z/EJx5mzZXuYSvL7g/XJONb9aPr2bY3gWP43DG1TS+bzw3hyz5554OkfK3DSs3B0yF5h7oYIQsAJoT/434BjOFroCgBQAAAGhHmZrMDRllv5LNqvCfuKPTCk3w35oUFt7rFr8SFuq7q76yokY7ha97qy1vFWUOZFz9su7J76vbtseq2zb75QKX0OPj7alhCytXWyhsMeVeJDvUN6DP22Yq9oXxc7vSIlaixPs2+PrQcfXP33fLTVubzX88hDuhasa/OG7fuB+1wxtXvDic8bjjOYRww8/Zd6twrHBbEjzESosG23QVGtOg7RtVtii9fZu34Oo5MHnfb9PXHabMvjv0ZAkBlyt1+m4Z5tqBTW6btrcmae39S9Vjz/8IwVZ+BYrnO7tyYdhCrFhoEscZebzN9ZSJW6k1JVcdVISvZeiL0wSfqyt5gHbycUIWACXyvxXTJP2FCUNnR9ACAAAAtKOMNC+bzRwtZZ+t+Hl2HUudPl8BI6lIMRAplZvCK6/awf0+vAWZqzHiQnjo7zFmU+8Ob0cVmrevO181e5++6fYl92rdtIGh+iQu2Hs7sUIN02NI4SAgXYkS79vg6wNHNmqw7u211j+16fPYqyVdreEF//XuMZMEH7EqxefrrbpcvWP+urfocpjhoCS/T0nBMQ3ZKfd5equ2uH1boS24/ByxGb776PTY5wva8NrD2vj6XblttOL4N8yfGCpeXHnj/jkh2Bq626a5WrciNMPPrng9HKfQHDsQqcv7vDltqUQptEVcs49JBTtx+zigjdzk/komEUAL/FzS32iQj86OoAUAAABoRzX1u1I/l83oU3UZ3VjRc12nP2aymd9WwEg2q/zQIV9zX4+9R2Jfldi03eFDaHifVGX0POh/lOlR37onXc3hXij5/VBCz5h1K+qbzz8/UurZP9weKj9crfHKX0NlSKFAoDlewE9v5RUChJVvqGbwLsr06Nfg0bneLQ417ju7vv/MfleGbdBC9c6+31Jd7YshUMquX557nLfoCj1R1i1QRvs3P6ZUQOC5iaFLDLvilmZBz36h+sZBTrfhhygz5uT653J1iytb+o9X93EXh6qcWLni+3cbcUNonO9txHLBVhK0xC3DHBqte3iWeh11TbjdVTK5MS6dIa18Y9M4mtjKLIqvjabU92hpXBnT1BZxxaSDnbh9HNBGp0gaxSQCaAH/cHKqVOE/BwNtRNACAAAAtKO65G/es1ndlJUOzmQyX6jI+c5onrLZf8vSnaVB6BDFsMSVEjWDd6v/eOuTGzWoT4t9VVyFEbbP2u3kUFEQqzKyKxdpXd6CenqBPX9h3I/34r6f28fzm4MBb/PlBfj165Y12FqsFOueuDj0eUlXiHh8Pl7P9/2jaFN39egTHtdj9LdUM2TnEFiEypyB26rbiPp+Jw6kPEcOlrxlWAxpmpozJWNyIBMb1MfeKMXmyc8R59oBiYOjUDWUfE0hFJmldUtnFXw+93DpdcT3G90eKnd69lN2ZW1uHnzOuSlIVdoo1zul/bbrilusOXRKb1mm1FZh+VuKOYDrPvrYEOilgzugDU5i8gC0wkkELejsCFoAAACAdlSn7KaDZ3WeMhmXQzS90rw5ZLMfVE2WNvhxgT1PrKBw83ovcm94tT4waK7peQxBHN7kByB+bHx8rGLwQnmxZvt+fM/9v6a1980KQYQrZJQEOtml54dAYsPs+sbvTY0nu3SONr5ev62Zeg4L5xGDCYtVE+ueK1zc5FDGY+mR9IVxyOKxOxjJrnonvIVDu2Kn7xBtnDeyfmw9B9SfR7+hDY63ceHzoQomPaYeu56Ta6SfrgKJIVCTlSHrV4X7uJLFPWyaUn+uJxe9RwxwCj5NfpP+Eipa2sLVSvF14gCp54TzN72mknGkXzvrn6+vgNnYc4B67ndOu44NXcoELjeAVtiPSUNnR9ACAAAAtKOamkY/ch+b1cb5Xj+ulFQjI/dlqZkVMqFsCQ/ogmJTeDdXj0FCc7y9lvuAhCb361dqzd1fUPd0L5ZQAdGwZ0f83AvphfqQhMqKnsOkdQu08e1H1X19fZWMq138ubfAcq+RYtx7JRyn//hwjJ7jL5B69M2FGjFkSfdRKXSbCvQbcU8Tv0W5MGTk/iGYil9zBUza+hf+J2nsv2lMoVJnTsu2ycrXPdlCLDfex64I26Glg6jVk5p+DgdTnrOwPVrCTf5j1VOu0snVTaOOzAVxxTS37Vyz5+Qt0ZLnXHv/PPU84D/rx7Fkam683Ua8TxtmTMpVYLmhP1BGWzOZAFphBJOGzo6gBQAAAGhPdd3yD75YqjlRNRvvVthWbDOHLZnMLZK6fF+WprjiIjRY3/rk+obuJQYtrghx5YltfPUGddv2o6oZOi4Xangrp7jVU7pHS1ioT3q35Fs/c3IulPB7L6iHfiKudhl/Qf22W000TO919K3hvu6Zsn56/ThcKeFQx+e57q1JoVKmR9KE32HRmjsnhWqV/KoIj93bWMVqFveV8XOvf/p7De7n0CSO18fOr+xxWJA/pvDcyZzHKpa0dGBRSt8Th1o+Rk2/85u9b9rGBQ83PBf3rUm2EQvXKVXd5EodbwdXrCJJRbala/Sctc802YslXO/BY0KIV7dopja8/Jvc68yh0IZkrn1NHLLQAB9l1osJBdAKPZk0dHYELQAAAEA7ymYLlIhkM/9URpepRt/ZzBUkb2akT27WEVQ4N1SPwYF7XTQlLOa/+5q6bX9IbmutumHjw4J8ocX3ddN+2WhBPd17JDTGT1VkuFohNnfvdejlWvvIpSGc6bbDESEs8XP0/vBf6u+bbhaf0lSzfFeWKJzz8nAuPt76GbeE22qG7d34WP76i/VVKg5ZwufP31TfID8vUPAWXl78TzfIzx2nwJhiM3wHG3VJb5VG/UeSviSliM303eC+VA6ZQjiz5dGh2X94fI9+YWy+Tg6Nuo3c1LPF25+FfjJJc/5CmttqLnesZpreu2olu/LT9duIhfENy4UrrhyKlSyELAAAAB2DoAUAAABoR9lua4scvOa7ymYOzEjHdfT8O9vpXpdVN2WOUzZb19HPXy280L5u6k9z/VBik/diYnVHzaD6JvY1yZvDmhCSvHxD/dZhSS+P2NxchSpaki2qoriFlbchCxUgfbcMFSwb5t1bvGF9Czm82fDaw6H6Zu386+q3PFu3oEGz+TTPT6b/ttKS+m3EYtWKF/kbBESz78kFBw4BNgzbu8neJ+F+i2aE9zWDdsgFLY3CqnR/lCaE+X/5N8nxtg9BiauJmgshNvzrjvC+25gPh7424fGuSJr3QP3tqZDFvH1b6EXj69zM+bWFx7/umSsbVK04tPPnrjpa32OLZGuxpeqx5380+7oFAABA2xG0AAAAAO2om3o0dfCTs9LcrOo6dM/7Phszen2LXl9e2rtmekc+bzUJwcj0TSFL3EqrKRsX3B++GgOSdJN3H8dBhPuOeEFcYSH/dvXY7dQQlNStWhwCDS/k51d4+Dixt0qPfb+V+7qDh55NbFPVUh6H+5e4asOBUdyOyv0/HJbESp0o3H/vM1QzaGz9/ZPzyq5bGu7vsCUERNMvrQ+IJv631j385eRcrmwyjNj4+l3JOe4sza3/OFa55BRpPu95iduJheqTF6/LXcf1r/w1F/qEkGK/K0N1SL7QX+fVX4Zx++tr3WvHPWTWr8r1ZPHzpMcUeuXseH74uq9ZoYDD26A1J7tiXsF7hHNJxu9x5Vc8RWFrsX7DQ7i07vH/CGN1dVVTW5oBAACgbQhaAAAAgHbULVs8aMlIazZq4wc2ZDZOz3RQrxY/z+pu6/7Wa8PqXwxZVVPkXv06ZCyVKFSxPPfb3GJ893EXN2ienuaF7NhvxYv+3sbKi/GxwmTD3LvCcbyg323kQaF/R9xyygvh/jhu8xSrM9a/dFOD53DvFIcNpSyWp7cLi6FPvri9WazwUFLxsfG1R1X37mzVvXVPfSjUc5S673pO2AbLFRoe64Y543MVEj6Oq3ByIVKB+3sMYU6SkMUBUc8DfxiqX0LYsq4+KIhjimP2cQv1c8lvvp/P1859XhSqi2arbsn0XPjjY7nixMerW/zRUDHjyh3P//rk63ELNqWqWXxOGxc+lwQ1n85tQdZt1MSC27P5GA5amuqT01quXqpLeuj4XORKndn3hCqd/HDG89ptm/HhPEJ1y1uT1PuD/yhb9RMAAAAaImgBAAAA2tG6TLGtw+pllHkho5rPSNnfd8R1yEpvbchkP9Z7fZ1qCvWP6eJCs/sV85oMNnybA5i4pVXQc2B9Q/idTsjd5K3Bag6+KPe5qzscxMQFfy+EOxjIhTX5zzN4l/De9+2VOk4x6abo4fFu3j9wVIN7x+3NlFR0hK3NVi3JVZ3UbH1M6MfiKo4YcrjyxAv64fgrF9WPqe9W9f1hfIy8+/tjBzfh9bZiVi5kiXPnXitu2h+3SMsfk8MKBzj5W3M116PF1y5WDDm8qtlyL9WMOTnMczpgiFu6OUBz5YkDsXAuec8Xqlm2P0R1i1+pD5K2nxiO4xDD4dSa24/M3S+ei8+zqeb8JV3H2fdo/fTGrwn3wYm9cJRsAZju6ePr3WD8oeLodHXf6ThtXDyLkAUAAKAddcyfzXURBRudAgAAoEu77PF3mj/98GNk9ndZ6az2nKusstqoun2kzHM12Zqiffi/f8iQ9hxG67w7TXGmAHQJGQ2awJWuILX1hVr8OwygtTLD+jJ3nUEmQ6RQCBUtAAAAQDsqtdd8JqPPKqsJUmbP9hhNtltW3TPdv9Izm3mu/u+tWCsDAAAAgHIgaAEAAADaU6ZYH5SGQuyR0XHK6lUp26usI8pImRXdJ2t9zX9nazJJxMJfogEAAABAOZT2Wx8AAACAVqop/S1T84akj5V1pkOekn07s7bm5I2rM9qwOquNzbwBALA5vPbmYl169WT98Y4n2/Tsi5cu1zW3Pqi/P/hcqx5f6LEz57wRbp/24pxmH+/zeGDazFY9d3tZtWZdmNtic+Lz8td9ns3xufm+Ps9Cxznvx39q8zUEgGpDRQsAAADQjpav31j6wbNSNpOZkslmv98zo//s0yOjurbmHn58NvOBuiFr6/gzKwBApfKi/Zk//ovmLlstTZuj5avW6OyPHd6q0fbt00t/fGRmONaBe+2oIYO3KPmxDml+MOUZHThqS3348Pflbl+xam24/RJJE/YY0+QxvvGbKXpiwRJdMr82nIPDi+Muv6Wk55937QW5j1vyuLRPTRijy889scFt9z05QzdOm6OlK9Y0ur/naPLDL4SvbzdskF59fVGjr6fn0HPh+55+7H6NjrX72FGa8ebdmvHmUp145D7q27tni8cPANWIoAUAAABoR3tt1ZoFhuyly9fVHbhw5Yaje9S0eYuvLyiTmZ7Z0I3LDACoSK6CuOh3d4dg5FdnHKk7ps4Kocb82nd1yWeOa/Five9/2b8drjOvvlP/fGKGPnncASU/9onpr4b3nzp67wa3O1wZPbBPCHCaC4CuveSTuvCXfw3nYBP3GVt/zAljdOBu2xd8zI33Ph/CmULyH/fm4mXh2IWO98Xr7290BIdYP73tifDxlJlvhre0X52hEJxYHHPaHZcObTKscnVLPl9Lz8Hg/r1zXzlmv511xIRxTc4dAFQrghYAAACgHbUuJ3FTlcyHs1ktkLRVa0eXVeZmSVdzfQEAlcpbWTkccIjx56+eGAKNow7YTXtPeTws+s9e+EddduYxGjdmZKMz8AJ/DAiKufjPj4W3QhzqpKtWvL2WAwmPRU0ECPm3777D1g3CHAc9Pz7/o1IStvxqyMBwu0OR+Hw7nHVlg8qTJ2a8VjRoST9OSaWLXHWTd7sKBC0+pytuujcXYg3faoBO+dnk3HP762f94I/hvndcemqoZvExfnjKwbf9I/0AACAASURBVI0CKgc2q9asDUGP+b59e/cK18BzdsjOI8Ltfn9I6nGuonG4UyxkAoDOgKAFAAAAaEfPLVrdqoP3qNGavj1qPlC3Mfu0Mi1PazKZzKs1Nfok1xYAUIkcFvzq1kfCAvzx47bRRacfre23GRJG6qDCVSPbDBkYFv29fZYX/vO3onKFRP7ifawMcajQnB23HdrgHpPvfzYXSPTv26vRo/MDhKbEsOWiJe+FcCJKhzSPvrKwYJhTbjsMH6Tzhg/KhTIOWRx+ODg5/NIbwm0+Z4dZfpv52tsFR/C/kx9tEGz52vhYcW4c3Pi6Dh08IGzfNvWFVzV65NBw/lNasQUaAFQTghYAAACgHQ3o03ihplRZ6Rll9AVt3PDrlj6yLlt3fKaOKwsAqCzugTLpvmdyW1QVClAiBwMOQ75z3T2hKuWau5/V1046MFS8+P6FtqGKlSH5lR7NcUAQK1/8nA4cfHyP16FB/vhcCfLam4u0/TZDc1+Lt6WF4CLVYD4GQw4shm/RJ/e5x11MCI9SX499VvJvL8RjW7ay/v7pUMdbejk4aTBvqWMtW/lW7v6x6ubzJx4S+rI8/Ozs+kqdM47UnjuNyoUvsafMeUfsps+ccLC+838Phtt9zQCgsyNoAQAAANpRVm3ssZLx1l+ZQ5StO72UyhbfI1OXPaNOdbPU1kb6AACU2e9vf0xXPTAjVEIM7Ne7ya290ryo7229XEXx1F47Fu3bErexagkHJA5z8sVtza4794ONQh03l/fX0tuPOWTJb16fbm6vJDxSUg0ydsSmKpPmApO2iEFIoSqfprbzituQXX5u/eex4ig2y3cg5dt8juktyE49Zt/Q0yX2yXHPnRm/Po/G+AA6NYIWAAAAoD1tWNv2g9fUfErZmv2Uze7S1N16bazTW/26X/1W/55/UFsDHgAA2oEX4SeM2y4EF66AGLf98NyTxCbvB47aslEzegcSrmRZtOS9JhuzmytFHJIUc+BeOzY4xlW33B+qYBzQeOuwyNUa9sr82kZBS+xTkt5+zNUt7nNicVu0NIcp6R4qDkBunHZls5Psucjv0eKtuPJvrz9m8eN5rDEkaU7+tmrFePuxoVsOCI3v45ZtMZDxnP1w8XshSDv0/mcb9XwBgM6EoAUAAABoR3XdyhF4ZKVM9rjMxsy/MlK3YvdaX9Nt2oC1NV/ovSFb/xgAACqMF+HjQnzsCRLFJu/pSo80V0TExxbiqgrzgv8TeU3h0+64dGiDoMWVNa6wcXVHOgjxczl8+eMjM0PPmLT7np+XO4fI44ufe2uufNsNG1S0d0zsLdMeYh+V2OjeQZbnuJDYuN7jjI8r5gu/vD30ZvH8+TGXHD++0XXztnCTH385bPv2/gN3azYkA4BqRdACAAAAtKOsytMoJZvR3G41mY9pY81thYpV6urqVmSzvY7uvjGjHuu4ogCAruel2QvCObvvS6HqibgVWL6Tjxof+rB4O7B8H9pndNjqzJUbMeRxoONQpLkgIp+b+7vJ/opVDatdXT3i4KNY0OLqmXSfl1iVkn97MbHHSqzyKVQJE8VqGaUeFz0wbWao7nHwpKRy6MSJe4ZzcmWSz6PQeM45YX/1c5+bNvStA4BKR9ACAAAAtKPudT3Kd/CMJme7ZX+suuyF8aZsNquamhr16t3rWEnLVaZgBwCA9uQF+fxtrOJ2XLMXvtto6y8v5hdqfp/27KzXw2djS9z2KmqqyqJ+a7MZmvvGolzQEgOdpvqbFHPPU6+ELcNiSOOPi1W5RN5OzZU+pd7eHIdNhQKn5ri5vbdWc0WM31925jGhgsdN82MfmKZ4W7V0BRAAdCYELQAAAEA7ymbKvoXXRVnpoIx0aO6WTOb8TLdujynLdmEAgOoQt7EqpNDWXw4mmgpaXGXiSgtv9bX72FFlm4PYqyTdpyUGOqX2MSkkVos01VMlVr54S66J+4zN3R7nLv92y2/GX0ihx+UbOnhAo9uuu/DjoR+LK3/S1+fzJx6i04/dL/f5w8/ODiGQA6T8HjYA0FkRtAAAAADtacPGsh88k8kcqUzmV1lpz4yy19dtWH/NmnXl3C+M/dMBAO3LW1flb1/lKhcHBQ5V8retas7k+58NVRZe3HevlEJixUzf3qVvYRUrMJ6f81buNvdncaBTSnXGNbc+qPm177ZqLmcnFT/77LJtwefyVmStqRDx+EsZkwOUdE+cYv1x8m+PlUoOWahgAdBVELQAAAAA7ei7hw5rj4Nv8JbnXDcAAKRpL87RxX9+LIQfRx2wW9EZieFCUw31C3Hw462xrpJCrxZX3LgqpBSu7PC4bPhWm6pEdjireCVL5CbyNnpkeStB3A+mqW3PnpjxWjjfdJUKAKBpBC0AAAAAqsVyym2ALqGcJXro5Bx8XPS7u8NJ/vr8E4pWs3hrsUdfWRj6i5TCx121pn7rLocSfnPFzd8feTHc5mqSdON3b4uVfm4/l5JtulwN42obByb522wp2abL4Uaaj+1A5/hx2zTZQybNYy6Fz6VYM/yolJ4rAIBNCFoAAAAAVIuFBC1Al7CQy9y5NVfN4UX+Yr1LvDVYDAlcyeKQxSHGded+sNE2VQ9Mm5nrc3LH1Fnhfl876cCS5vZ/Jz/aZNiQ318mv9H78C36hOfy9lmuanFVjAOT/NDETf+91dbshQ238vrVrY+E96ccsVezYz3ygt/okJ1H5MKd7YYNavL+rW2G7/DHY/3pbU80GH+xYxXqFzPv2gta/LwAUA0IWgAAAABUi+mSduZqAZ3eU1zizs1hSWulm6uvXL02F7IUa5TvUCBUkwzsox+ecnCzlRxRocqTpuQ3er/5u2eE964y8XMXO9aN9z4fKlfM44scsOw9ZuuC5+UKmHSj+U8eOi5si+aw5Wu7bd/k9mkqoRl+bGafLzbht/OO2C0XLLXlegJAZ5HhSpZPNpvtLKcCAAAAVJZ3p3k4p3tNiisDdHqfDt/rgyZwpStI7aowFhY+ALRWZlhf5q4zyGSIFAqpqbwhAQAAAEBBf5a0gKkBOrU3ku91AACAqkHQAgAAAKBauEH2V7laQKfmBg5rucQAAKCaELQAAAAAqCb+S/cfc8WATunHVLMAAIBqRNACAAAAoNpc7N67XDWgU7kq+d4GAACoOgQtAAAAAKrNRknnS/q4pNlcPaCq+Xv4FElfTL63AQAAqk53LhkAAACAKnWrpNuTRdqPStpX0khJPbigQMVanzS8f1rSX5OtwtZxuQAAQDUjaAEAAABQzbxAe1PyBgAAAAAdjqAFAAAAQOUbNIGLBAAAAKAi0aMFAAAAAAAAAACglQhaAAAAAAAAAAAAWomtwwAAAFAVFtw0gAuFJo06/T0mCAAAAECHI2gBAAAAKsdwSbtJGitpB0nbSRoiaStJQyUNTEa6RfKz/AZJy5PblklaJOkdSYslzZc0T9Krkl6S9DbXGQAAAADKj6AFAAAA2DwcoBycvO0raS9Jw1o4Ev88Pzj5eHASzhRTK2m6pKclPZa8LebaAwAAAEDbELQAAAAAHaO3pMMkfVDSsZLGScp04Nw7xDkmebOspJmS7pJ0p6SHJK3htQAAAAAALUPQAgAAALSfXkmw8glJJ0jqX0FznUm2KfPbBZJWSLpd0p+S8IXQBQAAAABKQNACAAAAlJ+3AvucpE+m+qpUuv7JeD+Z9Hv5o6TfJluNAQAAAACKqGFiAAAAgLLoKelTkqZJekrSOVUUsuQbmIz/qeR8PpWcHwAAAAAgD0ELAAAA0DauBLlI0lxJN0jar5PN537Jec1NzrOStj8DAAAAgM2OoAUAAABonT6Svi5pjqT/J2mbTj6P2yTnOTc57z4VMCYAAAAA2OwIWgAAAICW8c/QZ0l6VdKPJQ3tYvM3JDnvV5N54HcKAEBFeufd5brj0enhfSlaen976JlZ4a3cnp45T6+/9U6jo/75nmm69m+PFH22eA5NvZVjvKvWrNPLcxc2O2f+mu/XFs093s/h+SrG8/jzm+9t9rrGc4rH9P09V/G9576pMbTkPD2mQmP283z3d1PCWJoaZ3xt+Dn93AA2P5rhAwAAAKU7UNKvkmb3Xd0ISb+TdF7y9kRXnxAAQOm8QDx0cH9tNWiLNs2aj3P6lZMa3HbTBSdr19Ej1Kd3L136p4d1+Sek4w7ZK/d1L1TPX9g4xFi5Zm24/22XjNRWJT7/A8/ODu8PG79Lm84j303/fEYPzl6oK888RsMGD8h9dfmqtbrqnue1906j1K93r3Bbeh4XLV0RzuG8Y/bWiK0GNDrunx56UWOGDcyNt9D8nbj3Dpr8fOMQ4PJPTMzN44NPvxyex3Nd/35obgwxyPFz1M//xHA9WsOBgsfnMf3XZ48PIUR6bH7+aS+/rndXrg3zkf+a8rX+1u/v0gsLl2rkkAHq36dX7mv77z66wX0dqPi5POfxdeP3/nzl6rX60d+m6pRjJhQ8i/R57vulq4pf1+S1+cSLc8LxfJ3ev/84rVxdH6z4eXx+E3Z9WaO3qf9bnn59emrbrTe9Im++e6omPTlLf//+ZzX3zUXhudOvbwCbB0ELAAAA0DyvVPwwaRBPBUdD4yU9Kuk3ki6W9F4lDQ4AUFm8mH3DnVN1w2MvN1i4bysvYNcufU8XXHePrrn9cQ3qV7+gPmKL3rrqH9PCYrwdsc9Yjd5miG6575mwOO8ww4v4Nm77YeH976c0/NsB3x4X2L3QnzZ1zlsFb3co0BY/+9LJoXLlilsf0f5jtg5His/l8U557KXc0X1O+UHPi/NqtWDRskYjWLxidQha8qXnb9TQgblgI8o/v38+XR8wxZAmvo9zqTKFTw4YbrvkNJ30g5s1Lqko8etGSbjxo5vvDx9v2a93LiSJz+uQ5dJr/h7OOT7G/HpQErTk23PE4Fx45nP053693PrAc+G1lJ6Hzxx/oPr27hnCLVv4znu5SpMYqET5gZZfT8O3HBDmO16nObXLQiDkOfTrNb5m/fqLQYu/fxy0+T4+pp9TBap+thuxVRgbgI5D0AIAAAA07VhJv5U0inkqyuHTFyR9RNLnJd1ZoeMEAGxGXoT2grkXrNvDM68sCAvQE3bdNixAe0E6v7LD1SFetHaI4MXpB6+clAsUzvzh/+Uer1T1hxfEo/i1yIvjKnB7W3lsp31gf531kUPDkfz55Ocn5cIpb2N1/f3Tdf2Fp7a5KiiK8+f5csVEOlRwyBPP0RUrDqjSgYc/dgWGqy/yg6q28vW65tzjNWzwFpr5Wm0uXLDDdt9OD700XycdunsYUwxZ/Fq78pYH9crbS3X1+SflggqHVwuXrwmBTP68edwOOvxmPl683efvwMtzECuGHGRMfWlu+Nz8eouhSTrsM4d6aR7f7mO20dO/OC/c6lDo1O/doE8fvKu+ctrRYVuxs6+eEs5733GbwiuHlJHDwvj688dpIQTautS6LADlQNACAAAAFOZVoCskfVFShjkqicOofyTbq10kaU0VjBkA0EG8MO0F+cP33VUTL/rfsj6pqzFcJRMrGhxMeOH74D13LGnbKocHXmA//6SDcwvbXkD/xGF7NKjMyK/AiVUH5dy6yYvwX//tP7Tz8MG6/OwPhyoGf3742BEhzPC5eQssBwbf/8M/Q/VLPAdvPZWu3sgXwxL39UhXdKTnz8cY0r9Pg/AoLuibKzxiWBZDj3T40R7iNXFgMad2fgjAPB9jRw0N19lVKA6JPFcOUM795W1hfszhXj5Xkui6expU7vj9Ec/Mqv9aUg113ocmhDl3yOX58GtXf3o4vK78PL7ufvN2YTEEm/ylq/T+fceGxz32wquhuujsEw7S2UmliXk7M1faOATycVx5YxP33jFXneLnv+zGe3NhmsO1/EowX8cX/vRwmyuoALQdQQsAAADQ2K7uNytpD+amxRxKnS/pSO+M4T/CrbLxAwDaSVyYbg9xuydXCaR5odt9LBR6XfQquJ2Vqwmuvevp8HHtkvrAIDZOH5aqZsnfPktNbB2mNmwf5uoLL8A7LPAC/B47DAuhwcLlC/XKb/+R20rM1Q9eeHfAEs/LgUehLcPy5VfgpOfPVRrN8RhibxQ1sVVZWzlIiBUjDhhiJY1fRw6kXG3i7b3c18ShyUtz3gxz4f4l8bGxaiReo3hd/PUYlCn1XA6bHLY4ZPE2Y3G+vZVY7JtSTNw6LAZPnpMlK9fkXoPm4O/XF3w8XFtfYz9PrJ5xFUvcfu2YPXfQPS/M0+SHng+VTa6s+uZH9qcfC1ChCFoAAACAhvxnob9P+rKg9RxSPendKyRNYh4BAO3p+IN3D6FHXJR2hYaShW6/uSIj3QQ+zaFK7I3hhXVXLcSwYdzoTcFNoe3B2mvrsBi21C5dHqo5vJ2XF/l9XrE5vj/eZduhuXDJ5+ZqlNjDQ3l9P5RUhHhRP4YNsb+I58/39fz5uVxt4RDCAYYrRzx3/ZJG8h6bt6ZyA3cHCD5erOAo99Zh6YqRGF44DInhi0OUUqs6/Po448jiIYVDNW/VFbnix8/985vvDfPnuTjo1QXhq+kqqRjKeUyx0icGT57TOJdKwj4/NlR3nf1hPfj0y+E54tz62vq6xsDLFS5u8m9vL3kvbJ2Wv6Vbfu+YyNdoW7YPAzoMQQsAAABQz5UYlycN3dkqrDy8EvQXST/0+oOkbGc4KQBA5fFitCsDvNjt3iZelPYCdLHqhTQvRnvB3gvmU398i6657WE9N/ftUDGSbijuBXFXjyjV6D1/67D8r7fF3DcXh0oTBy2xD4qfL4Y6/rhcW0Z5/s46dt/6So5j9g5VHD721P/8XQhR9thxZKi+cCDg8ThMcfAQxeAj3Qy/3NyLJXKzeTeXdwAT+eP8JvRKbo9+9Lep4S1Kj3fOG4tCkBHDi6tufSjcHrcMmzrnhtAXJ/0Yb+cVj+fXi4MRV6V4qzCPI77uCl0nv978Nc9trCjyc/k2By7pahw7cI8x2nPHTS0DV65Zm7sGA/r11gcP2K3B8cvVuwdAaQhaAAAAgPp+LK5iOY25KDuHVpdI2tF9hunbAgBoL3Fbp/kL39GUaf8KWy9FTfUQ8WK57//N047MhTX2vc8c2+i+cUG8WJDS3Ndb4rZHXgr3jhUTPr9iYVG+dIWNK1ri556HuE1Vvlgpk94C7OQDdtGfHnoxVPq4Z0y6wseBw6lHjQ+BhwMOV7eUOr7W8Hl4m7DYrF6pipb8UEJJRcpNF9S/JtwsPlbnmIMQhQqTTUGagwzz/WKvGh/X1T4O3OJrIz23R+23a3ic+8C4uihuPRefL5qchD3pMT7x4pxwn6+f/v5Q+eJ+QE3Jr07xeSsJeLzF2MeOeB8VLMBmVMPkAwAAoIsb5G23CVna3SeSeR7Uyc8TANAG3qYpVoW0xDW3Px4axitUgiwKi/Hjd9701//p8MDBhZ/nRzffHz53yOJF7tioPHJFSTm4ubkXxWP/jlJ4jHFLrnkL6x+XDgXS5xIX3CMHIA48/Ba3Noufex78dfelSUvP36ihAzcd67C9w1y6Ob6b7qcrfIoZt/2w8FaIr63Hm//8TYn3dcgSwwj33mmOKzpcVeKtuBxouCJoUL9e4c23x8oXvxaUBBl+LbiaJWzB5m3kxo7INeKf9Xp9n5V0aOfnSIcb/prHqaSnjIMVvzmIyufnckiiJEQqxvMVw7bIrymPz48/+6SJIQRzxVFLXmMAyougBQAAAF2ZVwHuk3Qor4IOcWgy34VXXwAAXZ6rArx9latMWsIN43/yuQ/ptktOyy2Qp6tK3JvE2ysptXDvRfu7v/vvuu7ifwtbQ3nLMFcseOssv3kc+SFGPJYXuv3mj/M/z3fnkzPCcV989Y2Szyj2iHFVxpTHXgqL94WqFXy/WIFjK1Y3fv5C8hfuHeh4/jwf7tHi8/C5f+3q28NivoOAa//2SNHjOfhws3g75ZgJ4a2QK259JIx3/sLSAwE3jTf3OlESYHiMfq+k70mhLctioBa3QyvURN7X5IbHXs59HquYPMaFy9fooN22Da8Xvx59P8+Fe+AUCwMnPTlLx0/YKXzs0CW+LtLN8JUEJTEMdJ8WJdc6n4MTjyX20oljcRWRwxWHLLHfSwxbCr1mAbQ/tg4DAABAV+W9L+7xH17yCuhQ+3hnFUnHSHqzC503ACDFf+E/dHD/RlMSG4N7cXzMyKG5aoLmHLznjqFC4au/mBTuecGph4f3bhIeG8Bfeeju4TYHFl857ejcEZ+eOU+X3Vhf1eAto2JAs0XfXmGRO7/Hho/14JWTGowo/Xn+or8Xw93zpSW8XZcX9e976uVQjZFu0h75dlesxAoKL8C7x0gp3GPFzdIjb0sWKzxcueFzXLJyTQgNvD2WAzDPxXur1oa5y69Y8e2uFPE2Ww4HijXEd4N/b7NVKocGHosDNG+1ld8LJr1Vma/1EfuMDdfPoZADEc+N5y6+jrztVzhG0jze/VjidmJ+Lod0SsIcvw4dDLkvi0OXb35k/xAgDehb//q8Mgl5HISZgybfz1uJ+Tr4+f1WiIMpV87E17qPXainyrd+f1d47++VuEWaH+fxpYOjGLZMeeT5cB+fh+earcSAjkOTzzLKZuntCQAA0F4W3DSgnEf2ht0PErJsVjMleRVsUbkGMer04vvvAwDapnZVeHiHLXx4UdlNwptbKA4N7F+aG6oBvFDt0MTiwrorD7wNVDpIKHYMV7Xkb41V6HhqogdLoa87APFi/fUXnlpyg3KHFR6LKxhqly7PPX+8vU/vXrlKiDhP/trK1aVvyeWt0lavWdtg/tLPkT/WQrfnz3/6tig9rzEI8zZkpc6Dt3CL8+n5aKoaxoFEfB34uudfp0KPz3/MfruNbvA68BjS10DJ6zNWoKSrj/yxAxC/DtzzJr7m4pzEcMSfeyx+Xl/H/Nt9PeNrd9iWA8JzFxtfvvznqiCZYX0rbUhojUyGSKEQZqWMCFoAAADaTxmDloFJyLI3l2uz8595HuFdWMoxEIIWAGg/HR20dCZeIB82eAuqC5KAolCghS6BoKWTIGgpjFkpI4IWAACA9lOmoKVv0iPkAC5VxXhS0lH+I9O2DoigBQDaD0ELgDYiaOkkCFoKoxk+AAAAugr/RnATIUvF8fX4P/4IDAAAAEC1ImgBAABAV3G5pJO42hXpxOT6AAAAAEDVIWgBAABAV/AxSRdzpSvaxcl1AgAAAICqQtACAACAzm5XSdeyNVXFyyTXadeuPhEAAAAAqkt3rhcAlEdtm1v4AkBlqvKmlR79XySVpZM+2p2v058l7S9pNdMNAAAAoBoQtABA++uZ9ATw20GStkluA4DNaYWkBZKelfRXSZMlreuEV+SnknavgHGgdHtIukLS+cwZAAAAgGrA1mEA0L4+KuklSX+S9ElJOxCyAKgQ/ZMtmvxv0y3Jv1Und7KLc7yk/6iAcaDlzpN0HPMGAAAAoBoQtABA++gm6f9JmiRpLHMMoAr436pbk3+7unWCCzZQ0jX0ZalameT6seUbAAAAgIpH0AIA7eMHki5ibgFUoYuSf8Oq3RXJVo2oXqMk/YjrBwAAAKDSEbQAQPl9nJAFQJW7KPm3rFodKOnzvAg7hXOS/mYAAAAAULEIWgCgvNx/5UrmFEAn8PMq7Snln29/yZZhnYav4y/4vQUAAABAJeMXFgAor1OSrU4AoNqNlHRqFZ7DpyXtVwHjQPn4ev478wkAAACgUhG0AEB5ncR8AuhEqu3ftD6SflgB40D5/SC5vgAAAABQcbpzSQCgrCYwnQA6kWYrQ2pXte1kh/Ut62SdJ2lEWY+ISjEiub4/4YoAAAAAqDRUtABAeW3NfALoRKoptOgv6cIKGAfaz0XJdQYAAACAikLQAgDl1Yv5BNCJVFMz/HNcIFMB40D7GZpcZwAAAACoKAQtAAAAqHYOhL7EVewSvlJlASAAAACALoCgBQAAANXuNEnbchW7hJHJ9QYAAACAikHQAgAAgKZ8uwpmh2qWroXrDQAAAKCiELQAAACgKZfVrtJdtatCf4xKNF7SvlzBLmXf5LoDAAAAQEUgaAEAAEBzPiDppdpV4X2l+VxXvHo9h5yk7gMO6ZDn2mKv/w7PV2E+X2kDAgAAANB1Zbj25ZPNZjvLqQBohdpV4TH8QwCgs/vOsL6bthNL/u1rtWF9S3/kgpsG5N/Uy0OQ1OgLnVnf0V/Tlgdfprr1K7Xk0f/UmjeuzZ2tA5GB+1xY8tkv+mfTYY1DloF7fiZ8vPiBr2jd4gfVc8jhJR9/w/JZ2vDeo+1xNd7zy0fS2vSNo05/rz2eCwBQJb/vXPu3R7T3TqO077gdcre9PHeh7nxyhj79wf211aAtGtz/nXeXa9Waddp266300DOz9MwrC/SV047W0zPnha+nj9MW8XlWrl6nuW8u0nGH7NXoaL7P1Jfmav/dRzcaZ0u9/tY7+ufUmTrtA/urb++eTT7a45q/8J0Gt+06ekRu7m657xn912ePb/EY/NjapfX/Xz5s/C652z23K1evbXBb+vwLzU1b+Tmf/9cCnfWRQ0s+Uvq10dRrqJA7Hp2uWa8vCq+lYnyNapcub9VrzON68OmXdfi+uzZ7fStMpiU/+6OCL2SGSKGQ7pU3JAAAAFQwbyV2kKTTh/XV4s08zOM6OmSp6bVjg6AhHXI0d99iHF7UrX210Vd7jzwrvK9bu0TrFt+Wu33D8ldDyFLTo5+GHPFzLX1qtFbO+lbynFuq17A9y3GqIbTZYtdTw8dra18I5+ox+TlLteyF32v59HYJWgYk1/+2Eu4LAKggXiR+asbcsNjer08v7bfb6LItFi9YtEyTnpylW7716dwxHRRMnfOWzj5pYqP733DnVD03921dd/G/6e0l7+meF+bpK6dJc95YpB/9barOO2bvBovz3/3dFE1+fl7u8xP33qHB52lP/+K8Bs/z3so1mrDrtrr0Tw83CBO8KD96m/odWv21my4Y2uag5YkXHRPmKAAAIABJREFU5+iqe57XFn17hfMo5KYLTg6BikOW06+c1OAePi97d+VaPTh7od79xSQN6tcr3PaZ4w8M4UMc+8J33gvzHqXnY88RgzVm2MAGoYoDj4demp+7bd8vXaXLPzExzEGcG8+zxYAnf959/2kvv15w7tPzruT19svbHtPiFas1YqvGPzamg60Ytvk18cLCpRqxRW/9/fufDa8hP5evoY3bfphOOWZC7hgOYvLd8NjL2mXboblrG8UQy9fI1+abH9k/HMtz6fMvJP+crrnt4XD8u3cfrZ/c9M+Cj8kfI4D2R9ACAACAlvIWYjNqV+lTku7ejLN3akc/YZ8dztTg/b6c+7z2roYhSJpDllJDiZVz7tayZ77RIHCJj3XIseifm57Dz/fW5Bc09JhJ6jFodG48Dlschiy4qXj4UyqHRIMP+E4IcxzqLH3yovBIhz4eT6nq1rZrhcmpBC0AUF1cJfC1q28Pi977j9k6BCC69RFdff5JucX71ogL3Q4yvCA+5ZHnteeOo0JFhT//9MG75qo24kK3OVg548j60GPma7VhTOYF6uFbDtAF190TFufTwYhDCAcAZ/7w/zRq6MBwWwwtlIwlHVx4od+L4kqFEA4XlAQGXlyPQUM5+Pmuv396CIn696kPR9IL9fnji3wOj73waghBPI9/eujF3BhjqOGP06GYx+758P3N53DqUePVr0/PgtfTYcJ7q9aGEMMf90vGVwo/dzqEUeq2eOz8oMJzcek1fw/P50Aj7ap/TNPC5Wt02yUjlR6pwxFfrxiAuErK537lmceE8Z599ZTcdY88n4ePHZELo+LrxPPmN6VCq3gtfOzlq9aGsMXXyedRSjWPwyCPz+fugCjOfb6WzC2A8iBoAYAq4R8Sr7rlfo3bfrg+fPj7Sh70a28u1i33PK1Tj9lX228zJHf7H+94MvyFk4/lj5evWqOzP1b6djDR3x98Tk/MeE1fOe0oDRnctr+8Slu8dLkWLX1Pr76+KNx61AG7NfpLt5lz3sh9vRT9+/bSERPGNXnPB6bN1D1PvaLPn3hIbr5+/Ie7tGzlGl1+7olNPtbjGTdmZIvOM57DgXvtWNb5AzqAVwPu8lZi0qatxDqQf3s8oaOftP/YjzT4vM8OJxYNWtIcpGxY+UaD27r3G6k+2x4Swox+Yz6gnlvupLen7F3SOBzILLrn5FzYMnDvz+WqWtrKIUs8rr077Se57b98runQZzM7IXkdrK2UAQEAmjb5oefDovdtl5wWFuK9fdJJP7g5bHPVkm2d8uUHB/VVHJsqObwwHcOOuNDtwMEL7W8sfi8s0nsx3Yvj/jhyRcaK1WvDfdMBjccdFu9POzJUjlxz++O5RXYvqKfdfHf9OK459/hQzeH7O9SwoYP7SypcxdBa3lLK53XiYXuHrbhawtVAOw8fHB7hShTPySckzaldFubCFi1d0aDixgv9pW73FUOHGEK46kJJYBPFECpW1ZTKlTXpx/iaff23/wgfuzJlyrR/hesVrsXtj4f3Dk/SgVCssvF4HH44ZPH1cmg1bPCAUNniY3l7OoeG6Xk4+4SDGrxG8nk8D+a9Tv2ad5DnLcBK0WA8Ww4IoUt7bLUGoHUIWgCgCjgsueKmezVl5pu65PjeLRrwY8+/qqsemKEJ47ZrELRcc/ez4b2DlpfmvaUbp83RyUeNL7jY75DntTcLBxpvLl4WHrvdsEGauM/YRl/v27tXg+d1gPLE9E1/se2/4vHzR4++slBzl61udJxfJWNNc0Dxxevv1/HjttHg/k3Pi8f4qQljGgUtDjqOu/wW/eqMI8PxV6xaG+57+rH75c7d83fgqC2bPL4DJ4/lkuPHh8AqBjaFpAObeA53XDqUoAXV6jJJB0qhuqUjtxI7zLlHR86Zt9KK4UPcuqvfmA9q2VPNP3b1/H8U3GZs2TM7auD4/xeCFh+73y7fKzkwiWHLVof9Qcue/XHLT6gAn+OWh/5E3fvVL3wsfeq/tWruT8OWYcW2ONuM+ievg8J7ZgAAKo63mPJieFzc9ntXAqS3nmqNdHji0CVdYRK3piq0IO3bbVbyx1v5lQqfOGyPgqNxMOTgIT7HHjsMy21L5QV/Vy5EYSF97AjVLtm0xdbc5Her2MOkXBwAxdAiHQKkq0Dyg6DohVcXhIDmoo/tHrZ1c4ASqyWKzYOSUKLYlldRrAI6Yp+xYYs2V3P4uvjzGDoV4t/F4h/bpZ8nXcXhYMzVN/lVK9uN2ErH7LlD6KtirqSKgZyvXaEqqvQWZfG5HGr4ujlkMVc9uaol/Zry+Xn+4n0KcahUKDzyMYpVGeXP34vzasPzeruzM358i4b07xOuVTHl6PcDoHQELQBQwRyw3PX4S/rBlE0/sPnj9Od2x6WnFq2kcKAyemAf7b/njrnbpr04J4QZDgXsmP12DuGCA5BC1TIOWRxGNCWMaUrjHywdbqSDBVepOFhwcDF2xKAG9x3Yr7cO2XmEPtSvdwiGhm81oFFQU8jeY7bWNkMGNnkfn19rTH1h06Kiw5R8cb5ccfOpGa/lro3H4+d0gJMbw73P64kFS3T5udIOZ13Z4GtAlTtW0kuS/j2pcukIx3b0lPXb6VO5j5e/fEtoEh/ClhaEI/kcXHjLMAct1nPLcVrZwsfHhvYOSdyjpaXSDeuHHHV1OCclIYvPK/Zlcbi0+L5zS6rg6UDHErQAQPVwf4+08Ff+sxc22tapIzgkiUHJwr89Et4fnPqdKSpUpRCrCkrhLZxc7eIKDleGKFXZESs6yuVbv2/4Y5gX2t3zRUnVj8d86lE76uwkiEjz1mmu1nBVR35PlMgL/vmBlY9ZaN7SvJWYORR4fMbrOnCPMeHzB56dXbTHjfK2ZCu0dZhDLVeXOAj6RLJ1WeSt4sbvPCpUUXk7NAcxMejwc3quDtt9O40dNTRUq3g+HGZ8JqmyiluHuWokv7dL/pj9OL+W41ZtHld8jcTHemzpnimxckdJtVMMnHydvNXdBw/YLQRyflycv5996eTcdmh2/kkHa8pjL+WOE7cni9uY7bFjw23RALQvghYAqDCusHhu1gI98uK8UMGiJKw4ceKeYeurKFZCOETZvsh+vq6qSAcqriZx1cSzs+p/sL/v+XmaX/uulq6ob+r309ueCNuAKQlf8qs/XDnyxY/Vl/Q//Ozs8NhY+RHl3+6gpJBPHb13wVDHAYRDmAv/vcPXUAuKVSkOSJ64/v5Gd4nn4L+0cqA0sN9d+uMjM/XJQ8flvu6AZsdth4ZgyccBOimvFNzZgVuJHdfR0+htvpT0TFk+/cuhUbxDib7bHdWmbbvSVSLd+xffcqI5A/e5sFWN8NMN6zeurFVdj35a8sjXQ6DibcQGvm9TTxpvldZrm5aFxOvfeb5gNU+Z+HXw9fY6OACgvNIVBE/PnKfLbrw3LAoff2hpoUUh3sLJ21mpiUoRL3zHPi7eriv9V/5+vBfFVWALMhVoRK5UbxVvz2WuNPBifuw9k65ccHDhhXxzDxQv+LuPSRxLsWb1reHtvhw6eGw+37l5uxK4MiPe5vcOYiJXlzhAcLBgvi7eDivy2AtVHjlIcBCwcvW6giNO92vxdlcOAs5O7vv109+v//psfYjw85vv1fzaZSFMKJWv24gnZ4U5d4jluY3Xy9uGueLjfaOHhzn56e6j9YH/+kO4dud97LCwrZoDr3jdbvnWp8PjXK2kZPs59+kplc/Tx3OY6HDEY3MAVWw7sThOBy79evcK94tz7yqcEKj86eEQwMT5iyGL59Dnse+4HcJbFLcna24bMwDtg6AFACqMA5SL//xYCFAckGzRt3fopTIh+asfJZUuDkXsis9+oFHvkiiGBN4S7MYpj4dqi+vO/WCu6mKrLRputzV8iz5NToa354qVMzfd9VSo2MjvW1Ls9nyhuiMJdfK9vXy1Lr16cqPbC4U/9vyct0K4U26eZ5+Lg5+bv3tGSUc/79Qj9ZkTDm6wPZoDMapX0IV4KzH/Vn56O24l5jK3phsulZmrVmKlx6r594X3K+fcqS12+VgIN7oPOCRXFdJSDjOiunUrmn300Pc3fh6PyW9r3t60j5l7wMRKmUI9YiIHIVF+jxhva5bu1bLlwZe1+Pwc5Kwp/NTlMC55PXTktnUAgDbwYrGb1Xsh24GEF9uL/T5TCi+Y529d5Sb2aV70jmFK/jZi9z31cu5j9+yIfTq++otJDZqbp/nx3q7K1RJK+nM4uHCDdZ+P+7L48TE0yA9w4udx67JyiZUVSsKmWDkTKzD8fuqct3JN/13xEDkMcgXGbY+8FM77lbeXNtgKy0GGg5zIAZWSSo3fT3miaGVK3PbK+iV/hBfDHled5M9NutIjHXIV2jpsRPL7bJzzLftt+v32+gtPbdCjJl5nh27xdh/HAVO85t56Lb5OvL2YX0euLnlv5Zpmr9CLr74R5iB9DRxOpcOu5rbyuvaup8N8+T5bJXPnaxDn7yc3/TNcFwCViaAFACqMKyD23GlUbrssBw5e7HcvFPf+cHWEQxZXqjg0SQcwaa6M8eMc1vTt0yuEKw4MXplfm7uXq1McnPi+Uy6/pWiVSeTj3Tjtyga3uQKlkHh7/tZhTYmVNc0FPpEbyLu3SSlcYVOsuqaY/51cv5h5zgn7h+3WLvrd3fraSQcWnKNrbn0wBD4/Pv+j9FoBJK/uz/Af5LXTVmIOcjIdOc+uWlHSmyVWr6yeNzkELdZv589p2VOtC1r67fKl3Mfrlr7c5H2tUNWKAxZX2aQNPugv4bMNK2u19PGP577iLcY2LH+h2X4rW+z13w2CGvdq6bbFdsXPY8zxobeLn2/lnE3beqSDnHbg18HBkv7Wnk8CACiP/L/IL0cjbx8jHsfbSnn7pHRVRFM9Wryw7sAnbgPmhXX/FjN7waIwxqb6hzh0SFd4eBE9hAHJ+Tm0SYuhiu/jACG9BVZ7cHjgN/cwcbji/iuuUvHYXHURqyRiKKCkOsVBQymN6OctfCe8j9taFZrj/HOMVRYOgDyWKFYIxfee9/wAptDWYWccuVe4fg7u3Mj/vA9t2prLr7UYNJnnQElVT7xuMTyKQcuVtzwYzt2BSdyOzGGUQ5QVq9fqjcXvhS29HNCMzttVwsFbSxv4p7nRvSty/Ly+Zg6EYpWOtzPz9XIo5GocV+YAqDwELQBQgdI9SS75zHFauuKvISjxllQOWFzt0lRfFvvCL28P7/2YWMFy4kG7hmqZ1nJQ4zBGqX4j+ZUa+bentztLKxTqOETydmnNBT4xfGqtUsIfVxb5Obxdmqto/IO6kuqUdBCWFrZ6++VfQ9gCQEPbcSuxQztyel2tEsON1a9vClO8tdb6d+fWN7Fvpil+j638b+dZjW7rPXy/3LHrQ5xfNDueBTdt2sbC1S2FghdXycStztKhx/Djnw/jrd8u7MuNHhc5ZHEPmigGNU09xufioGXjyrebvF87OISgBQCqgxfEYwgRF7fzeQsp99Yo9vViHJp4gbzUKhH/fO+FdVdFnPaB+h4x761am6uG8XEKbb/kBXtXq/g80n1aXIXgzx1UNHV++bw4369P49+ZXDHiygtvt5XeHqolvBWVgwv3AHED9/fvO1bbDRuoc395W6Nm8Nfc/niolnAlh4OYU1evC9UYMQDxdmcxVLE5bywKc5ffUL6U83UYtmTlmlDxUQrPeboBfuSeKDGcURJ2RR5XrATxa2PqL29rUF2jAkHQHjsM0/v3H5erznGY4n4tPk831r/hsZe1y7ZDQ4Djt3gsh1UORPx2/Mx5ucqdprYOU6oqaOWatWELM899DId8vmcdu2+ocvF2Zmd95NAWf08A6FgELQBQgVxh4oV+b601e+G7ub4ervRwRYX7fThIcR8QV7kU4q95O63thg3KVbMsX1VfMeKPfcz8BvcOEb6Y9CEpFOS4x0gMQDw2H8NjSYvbkTUVlETemitWjZjPNTz31FkNthXbfYet9cnjDsh9/vkTDwkVKp6jlvJ4S6ls8f0cFrlqRkkPFm/TdsrPJuuKm+7VVRd+osH943XwXO9wy/0at/3wFo8N6KS819SByVZi75TpFMd35FS5WiVa+a8bG3xt1esPaOCg0c02xU+HFoW4CsR9UZqrMil5zLt8KYwpP7yJ43V/Gd9e6PlcCRMrWarEftU0WADoyq6/f3o4+xBmpLb3Si+AeyHbX//mkvcaNA9vihfS3dzcC+KH77trSY+55raHQ1jiEMIefPpl3fPCvNx2VN4GzHy89NZmOw8fHLYKOzup0HCw4kDCoYEXy12pccWtj2j0NkOKhhCxysSL6enF+rS4JZrnpjVBi5/Dj3f4k3782SdNDL1QYtgSOWQ46dDdQzWPw4W09NZs8Vr5Wp58wKaF/3QfnMiBSnr7NY8pzPXshWGeC/V8yecwwtU4w0rol/LSnDcbhBEO03xdfS193bzFWP74tktth+YwI83X1OGHq178urz8E/UhS2w6f+rchaGJ/o9uvj/cz831HWh5u7Hm+DXra2DuVZQffEWjC/yBH4DKRNACABXo7XfeC4GHqykcbrjCwwv/Dj5c9eGQxZUtO283rOjg48K/t7Syy848RitWrdWvhgzMhSTeVmybIQPDtmQOCFzpceBu24f7Dx3c+AfZgf16N7otP6xpTgxHhm81QKvWrM31QPF5xrc0f/1TeceM1SQtfW6bd+0FDT536OLzLlR5kx8WeZs239dbnC1eurzRFmGec/fUGTFkQJhrADnHOkMu41Zire+Y2wquVlEShtT02lK9R26qTNm4fH7u495b76+Vswofv7keKeVsFu9qFgcpSvrIpMMUhyuxib/DmPzKk1jxoqTCJvalqXCNS3oAABXpJ5/7UMFhpSslvD2UKzwctowZObTZkCG9YO3F6lL6vTgQcHWCK09ql7wXFse98O+tpxysrF6zNvRf8QK9Q4ZvfmT/XOjj4CBWKfi5lQQRXlx3BcLuY7bR9//wzxBW3HbJaWHxPFatrFxd/zuCQwlXSHhbKledPPDs7LB4n54Lz8Os1xeV1B+kmPS4I8/P5Wd/OARNabH6wkFFDBw8T97Cy1t5pSszwtZWy9eEx0TpPjhp6e20fN7jth+m4w/ePVxXH79Qb5c7n5yR+zj2Uxk2eIsGAZWSMMzjSG/9FgM6b8Xl7cT8dc/D8YfuHc7dFVOe0xiWXHno7kXn78V5tWErL4crfq7YdN8N9j89bGCoRHGVlitZ4hyNHTU09LlR0osnBjVR7Anjaio363cvmatufSi8XvLvm5auxMnneUm/VtLfTwA6DkELAFQgb1U1L9X03Yv6bq7+nevuyVW32JlX3yn5LeEKjHQ44MoYByjnHbFbrhfL7mN3y1WLTNxnbO52ueplt+2brERJV2nEqpLWSgcb6a3CHAy5Eidu7ZXfEyafwyj3mokefnZ2OGeHSD6/3Nzc+kj91l55HNqktxGLlSyFgiZrbsuxWHnjQAxAA3ErsW8n24m11tbJsTpEugm+t8UacsTPiz5tn1EHFW2Kv3r+P8oapjQlXc2y/IXLG9zTocvyl28JFTaFqlo2rHgrt7WYSqjEqRBDk9dF/ebr/5+9ewGTqjrz/f/iMXJpQBFpRZBwMYoCkogQNYpG0agkymhEM0ajJn/OOJ44ITE5xiTmeBmTiZmQ0WGcxyRe4jCjZnQwBq/EC6BGECMCAg4CUQRpbtrYQJOM/J/f6v2Wq3bvqq6ubqC6+/t5nn66u7pqX9be6N7rt9+1AAAVq9gwSjF1RN+0rT50rjclDNl11uiCE41raKn0fBraDg9B1Nmv98SVK/qusEFDiqkiwieNPzm6v7Bk3ekQIqxz0ufDRO9eoRBXraTnMqnbtiMXHKiixD8zf8mqEAZ5xU2p+vTqnjlfStwO2r9vXHhq+FkVI/qbPpfmy0r/TW11U3Q81S4aWizdDgqRYumKEV++2lftqN+nTe4TKoSmXNo/t64pXTvnjq2HYQqu1G7x0GojP9E/d87oZ805k65I0rB0HnipMinrnPS2+lnShjq3RkcT6MfnmtZ3R78+ueX43DiWUaXk+ywXnXZ0+KyWo/Pjyve22PrNH5R0lNPndPyzjkVzh3MD0DoIWgCgAnmwokoTTbDuAYFCBU2Ar2oQp8oJTdKuCpf4dZVJXx+V41943T0hpNGQYM6rS/y71hdClxBA9Ml8Guw/HnvJFq8qpS/r5RDGpOcy0TosqSRRRUtM26yQRPtZqtfXbLZpT3w0MYIPP/b0glUhsHF6XyEKRXzItI+kf8+XDrXcLb9+wuYvfzc3l42GRwOQ5/8lQ4ldYmbNH//P7IgS3tNqfBJ8qa9ZmLnYvfbpnqsC6Tpwom15rbxJ8VuDJrr3cESByj4HqLrxpDAfzN5V/Wzv7n1zc7oojOk68NK84c7e/+MNtmVxnzD/jOZpaUOGErQAQPtS6kT5umcp9t5Cf/POaHWQFwqA0stOz5Ghv2d9ttDrWesqtP7QgX/F+GYPG6aO+6x9LtQOhd5f7G9NtUtTrxdbvl6L20Pr8uU0tc64rQq1WynznGRtU7HzqFCwUSxYTG+f1pEVFJayfcXOYQC7D0ELAFSgbl07h0nl123ZZmd9apD985iGi8H0JOwKJr5923+FkEUVHBrayk194Jlc9cvUZ18PVS1/84UxybwrDcFEOlwIk+YnE+fHc7R4EKMqFH3NWbQqhD8KRM4ck3+huuRP68L6NGH/NzImdVRwZEkliYc6bm4yGeIJw0u/mdC8NT7cmdN+awiy+HUFMGqnYnwotfSE/monDW+m8MSHWcui46F9j4MiD5OyhiYDOjCNxbU4CVseb2YzDC7hPa0ibxL81S/axuc+V3CxB09c2zAc1+Dxu3si+DwHnHJ77tdi1SgaBk0VOt0PPTsvaMmqxmkjNHbJs2114wEASCvWgQ8AqDwELQBQgfTUzn03fCW3YapwOf+GaeHnu7/9xRBSqFJCk7Ir8FBAkJ4U//MnDA9DffncLlkUJOjvClIUJsTDbX08Kj/2KhRVzGhZYzQW723/FdatoMUrO1QZ8ugfV4aQRduZnsNEQYQHNGn6278+Mje8+snD+5d0UDRfiiUT8zuvaPHvLmv+lzQfSs3nsPH9Utvos/rdh1nL4kGR2sSHIHt12erw2qB+fWycHuNPhUJAB6b/yDxWs9Wur+4WqlxK1fzZYMuk6hS37a0niy5Ec6H0OPy8EF50G/Qt27ryH3f59mkuFlXTxP6nrsasqtr+vHlFePUvH6zNzQ2juWD+smVZCFO0jfsf/8NQiaMqGFWwtHG77bwAAAAAgDSCFgBoAxRY/OSrp9v5P3vYLr3lP+1LJxyRq6r40fnH5+YFiSkwiAMWBQTq9NdE7S4dwqiaIyuUeTqZoND/piDolq//VQhbFEJ40OET2//D34xvNGSYZVSs+ET0osochRv6XfOpbNyyPVSQKJQZNvCgRsvS/hQKLbIqWuLPFQqeWuo3z74WlnDsUUPCMVNYdfnN/xHaRKHYyMEH5QIxVQxpHhgNEQd0cD+s2RqGEru4ultJQ4kN2F3NpeoUSyaFbyo4qXvjlyFoka4DTt/lQYtClj7jHsoNWab5VurXPGPrZows6fPaPm3nX+rW2Ic7yhnBreLstvMCAAAAANIIWgCgDVA4sG5jbagU0fBXClkUSGgy+qzQQNUhf1qzPlSqaCgvVZn4sFma48Vp4ni9xytW4soQDXWlSfnDfDGrN4Whx2IKWy49c7S9vubJELCItk/hSJ/9syeSn/nyG+H78SOHhO8KY8Ydc1ioZNE6FKpce9mZ9vRLr4fhuxTiaJmqENE+Zc0ZUylUYaRqHR0XhSza3n+b8WJuCLJ4yDGFLbsq7AHaKI3JtaRmq11U3c2eaGIXDtwdu6iKD1WnWFKt0hRVifz5vZUh+PBJ8XeVOGRRCKTqFQ1xpmHD3l8wKm8osGKKDYXWBu2W8wIAAAAAshC0AECF0fBbcYVITKGDD+/VVEf9mTc9EL7rM5rnZfQRA2z4of1DCOCBR3quEa3P16nAQEHLQ083vEefn7doRQh8tH1xuOJzm/zj9D80zPtyzzPh86oo0XBjww7tb+s31YbP6PWqrp3tjgefs/+YsyQXACmMOOXTR4YwRUN06evZeUtCCBPmSPn9AvvhpePCfhebkL/Q0GFO2z5s4OpQBZSeBN/bzA28fEqqbT76XZ/Tl89l88SLi8PrCo7iYd0UHvkQZJqfRm2utlKQ9cHW+rxwC+jgNAj54zVb7UYz+1l1N8v+R9zwvl1ux8Y/2IZnvxFWs2PDcyWtbuPsv7W9ezTMW/Vh/bu2o/7dZi8j5p/9sH5T3uv7Hv0PuUqW9+b9NFSn9Dnt+RC29Drm78JXoYn7C1n/VPODIZ8sX0OS7bVPL/tYr902fU4WBrEHAAAAsMcQtABAhVEw4VRFonlW1CmvOT6yhuPKorBCAYCG5ir2mXjC+0IOG1AdwhTNy3LzXY+FwEHhgYYsO/SQPnkT8CtQUBiz/O31YcJ8r0iZ8aPLQ5WL9kdzx2iyfw1HponsvzXh2NxQW2kKerReVbgoxNFQW6Lhz3oUmFxe4c6Xm2gfn5je51FpCd8mhSceTqkCSSGL2uicz34qt3QNt7bx5v8I65+35K0wcb4loVY8Jw7QwakcY4v+yRRohv13R/OoQqW5E8NnfWb7O+UPD7j9nTszX+96SEMosmXZg7khyhSUVB1+o3UbcEoIPHwS/5K2W/O6lKHbISfnAp+87V73clnLa6Hdcl4AAAAAQJZOtErr2blzZ3vZFQBlqNkaPsN/CACgZQpWtKyeFoLNzWa2X0duYw0dVnX4VVa37Fb7sL70IEef2+eAkxq9roqZrMnwu/S73D7Wu2HOly2v/V2jv2t4tf/VI39qFFW3FAqIdjGNgblf/4tq98S6AaBD4H4HQAt1qu5GE7YHnToRKWShVVoRQQvQsXHjAQAvlzenAAAgAElEQVQtstGs+BwtSdCiAGZfmhopBC0AsItxvwOghQha2gmClmx7VeJGAQAAoENRuHJECRPhS1dODWSoolEAAAAA7CkELQAAANiTrq/uZmdUd7P1JW7DPhwtZGDuSQAAAAB7DDckAAAA2BMUrFxS3c0eb+a6/2xmH+OIIeUvNAgAAACAPYWKFgAAAOxuCleGJd+baytHCxnqaBQAAAAAewpBCwAAAHan/2dmZyYVLeVoV5Pw7nvMXdbntOfD96zXexz1T81aXtXhN4bP6auQfQ6YYAeOX2CaOL5Lv8tbc3cAAAAAoEMiaAEAAMDuoGDlDM3J0sJ1bWqrR0sBRzoE2afXYda5ekT4Hutx+Hnh9b326dmsdezVuWf4nL4K2bFhunX6WMPc8V0HnNWKe7hHtdnzAgAAAEDbxxwtAAAA2NWeMLOLzGxjK6xHHeqD2+IR26vz/kUDEBdXmfx546IWrzeraqV+3au29+DTrWrw6bbtrcZ//8uWZfaX2sJVMRWoNc4tAAAAACgLQQsAAAB2peuT4cJaS7vvUO/c98Tcz/sf/8PwlWX1tNKqXQ44+efN/vv7C++yLa+1qaCFihYAAAAAewxBCwAAAHYFDRV2cVLN0prWtfejVTX4jGa9f6/OQ2yfA04KP+9d1S/3erqSpb5moW1f93IT6x5ve1dVN2v9FeLdtrjRAAAAANoHghYAAAC0tieTocI27IJlv9Wej5Yms98rmT9l0wvX29aV/9jkZxSyZFWlpF9TyLLltb8LAcyODc/Zh/Vvhtf1uw8V1uXAY9pq0NKuzwsAAAAAlY2gBQAAAK2ptYcKS1vVXo+WKlN6HPGl8PNf6mpCyKLgpduAU+z9P94SJrHPopBEQ32JghKfB8Zf23fEZblPKVTxAKbmiUus6hNfDvO0fPjnOtvw9BW7e5dbU7s9LwAAAABUPoIWAAAAtIYaM7tkFwwVlraivR6tfY/+h1w1yXvzbg7fFbzotQNOud3efXhhrgolpkqU3HwqR/1TLmhR9UrszxsX2L6fbHhNQY6Cm79sWWidD/xkWEevT19vW99+NlS+6L1tTLs9LwAAAABUvr04RgAAAGghhSvDdkPIIkva68HaZ/9PhO91K5607e/cGX7eNOfq8F3DifU69l/KWq4CF311HXCWfWy/QeE1D3IU3Pg69Ld9eg0N7/X1tyHt9rwAAAAAUPkIWgAAANASGirsjF00H0uWd5OJ9tud9TPPDcN9bX7xi7ldU9WJDwHWtf9x1m3Qt5q12z4hfq/j/jMMESZblj2YF6Sk19HjqH9qa027nsnwAQAAAOxJBC0AAAAohzq3P7eL52Mp5LX2eMRUXZIe7suSihQN9SUf6z285OUdNGF5mI9FwYmHLKqWef/lyxq9V+uor1kYfu4xdGIL9mKPWNjWNhgA0Poee/41W7pybaPlFnpdZr2yLPNvev2GX80ouI36u5bbHFnbod9/ft/vbev2Hbv8jNC6mrPN2kd97Wp3/nZOSdv1m5nzbP6Sj6Zke/vdjeEYFWo7/T1+f7ntUer2pdetz+h7OYq1/cb3toRl63tM79e2AthzmKMFAAAAzfWkmV1U3c021GzdI20338xObWtHTVUkq6flD8m1Y/Mbed8L0VBf/6v7IKtb9oOC79nngAlhMnyneVcU0NQtuzUMCbZj89LMIMdtfuk71nXgRNu26oHW2N3d6eW2tsEA0JGpY/zl11da3bb60Apjhg2y3vv1aHGLfP/+2XbTBSfa0EF9Qyf0+s0fhJ/j19Oe/eNyGz30kEZ/07Y9vGCVXVdgXdPnLA7f5y19O7wvy/xbryy4fa5Pr+527wtL7ejD+tvYow9vcRuoA17rifl21G2vD38bPqSfHXJQ7yaXpbaRQtuloOKiKQ81uZxzRg606746Pvys4OGuGX/I+/vcFe/a2i3bQ1vGjvh4tZ0/bnR4RefMPc+8Zl/57FE26oiB4bVFb74T2v6Ijy+w7l07h9e0DF/XHxatsB//dq5NuXRc5j6sXLM+tMeZnzkq95qfN7HV69+3h15aZoMO7tNoGVnnlPbxitumh33q26OL/fRrZ2W+TyFRfO7E7bRuU23Y36zt1vZpu6dN7tPo383UmQvsnLEjM/89jbpqaqPXsqTPWwClI2gBAABAc1xf3W2PVLHEnm+rR2zvnp+xvXt8dNNcv3Z2+LJomK9C/ueDleE96flTqg6/0fYd+bUwj0ts88v/FIIZ/V0hi5QyLFhD2NIwyX4b8UJb2VAA6Oi8E1rGDD4odLJPfXSe3f71CSV1/pdq7uKVoTM67jT2gGfY4INbFOwoYHhu+drQga8wIu4gt4ywI+68X7uxNnz+gadfyetkn3z3TDN9mdm0yedmdsw3h/Zb1Q3qeE9X5vzgridscPW+4efLxh+ba3e1z1trN9qAvr2tW5d9Sl7bNWePsSV/qrGrLzrNTvzOL0KYpP20JKSI1W3bEfb7ynEjrW/vnuHYH3ZgL7vyrEPz3nf/rEV5v+u4Kbg45Zih4RyacPN9ub/NmPffYX96VnUJoZnaW8dXIc2WrfWhbW9KQr2YBzs6XlVdO4dQw88bHdOYzlUdM7ei5n1buHZzo1DCj70+f+V5Y+3ex+eGMEptEgc6zs+dS3/07+Hfgh+r9+rqw/5+89aHbL+qhhBJ79O+KyCyJCiq6rpPXlvI6df9OvdzevsKbYcVCOkANA9BCwAAAEqhu7ovV3cL1Sx7mjrWd5pZp7Z25BRi7Dui8dBdzZGuirFksvwP/1xnH+6oC5Us4tUv3QacYp2rRzRrHX/euKCtBC07CVoAoO148NlXw7Z6sKJOcXUMPzV3iV1+9gmtvh8+vJI67r0TWUGGJZUBoUM7CT9U8THp9hm5vxeiDvcRfXuFjnmv+ijGO+8tqTgIVQcjBzYKaKwZVQelUBWGBxpeeaOO9lgcqChkUSjQ3KBncL8+ofriufkND3V8sK2+Yd1njW4UtLjjRwyxms21IUw47MCMZSZBkPNAS22pY+kBgoZde3XlulD9ouqV6dd+Mi9E0zml/Vc1ShyUWBKWWBK46PMxPy46f6Y+OMvGHz8sV0ljSSixMBWm6X1qYwVPXonzjQtPtX4H9AzHX+uJgy2n8EShjR8bD5nSx0pUDeQBXRwIpQOUQtVGWna6cijdHgDKR9ACAB2ILgh1kRlfOGss1+pePYteTOtCTU/M6OJNP+uiuKnSdo2Hu+C/V5d8w6TlqnS+OU+X6aJUT0UV09QTWdp/Xbinb3Ky1qXlaPs0PrDK09UeatNSy+/LoXas2VRrJ40a2qwny5ojbgPtp26ALz5jTKNjoafcdBPR1L7G58uupO1WWb3fyFgyhrJu3Fr6FGBr8HGV0/9WCr1e4Z5MQpZKmYReE+8vMbMjK2BbyuYT0FcNHh/CEc2Rsn1dwyhYHsZoTpW/1L1je1f1y82zkrZt1d2h2kWVLqpYSQc57//xFtur8/55r32s98jc+zY8+41Gy9yx4bnKaKSmLUlCQABAG6Hhn/x6UtebCi0KdciXIn4SX9+fmr88VwXgT/er4/6CscNz74vDD1WnKPzI6tj2uTn8Hkq/q6M7rniIKxEso8Na18T6UojiHeLF5n9pDbreVIgRDyOl7W7u9bmCqHheGVVQpO8FdM+nqhTvwH/x9YbvClzUFnFoojZUSOLHTENrHXfkIbn3KyzRa7/7+6/mPqN90bZffPzQUAFz7qcbrqF1b6IQQ0OvbXjmtVBhNOWB5+yi047OC0V8n1VxozDJ7xM8LInvA1XZEh/bh2ctCMdX1Smx+H3x+afXdJ8Yz+nSPXmv9sHDrvg4KGTUvwF/zdsx61hpWycmIYoHYg83I5wbO2xAuFcCsGsQtABAhSoneGhK1rjAhcYljsXj1+pnXfwV6yTWRe9t01+wDR9sC08QpWWNwxyXVKfHq3Xpi1I90aMLX5VyZ9Ey0k9kpYOV9PjLhYIXDXGgi3oFR7p5GFC9r52pC+P5y0PbFBr7tyW0LZOTIQROmr/cvnfJaY3arbkl3t6GS6ML9LgNNNaxblYmTWh8o6mn1Hxf1UbpY/TkDZeEm1ZLzrX0zYEHY+nwy4cpSIvfF4+z7ZavXm+zFr+VN3azbpJ1zhUaB7k5/BwodD4WalsXj2vt41FrmU2Nd12BKmGosCyPtfWgxedL0bwqCloUsvhrHoJse+vREKBoyLBCQYsm0d/+zpsF17Njw/SMVz8apiw9FFkb81hb3ngA6Gj0hL9F13aPv/R6eJr/6xOOL7sl0kGGqENepl97YRhaSfc78Rwb/hld5+lvfn2c5p3e6ljXvVn6ulsVChO37cjdL2n9E085uuj2+gTp6YCmNel6U533WfcOLv0AXpY31m3OqwRR5YcHLWoPb2+/59M1s0IuVbOIwq2qZP4Up4fWFKio8kOVMBr6S+/Td23zjZd9Lu/9erBKr89cuCoXHqmSRfcsCmUUwOhn7bNCs0lfaFhfXB0U7nmSiqViw2dpXRbdN2h/tA5VqxQ6lmpHLVP7qW3QOaOAStty0qF9c6Gf7qEstPsBecvQ/Ysqj2IKqOJjVWgeIz+X0pUqWn8WHaeFb64OQ71l0fGthAfWgLaKoAUAKoxuOjSWqy4Wi10EthZd4OvmorWos/v7d/wu3DDp4jmmGx5dHE+/tp8Vq4kINyzJDYrftOgiVZUjLdXUxJZZf9cFrLZ75Cf6h9910XzTqIZxhH921bmhikKByPSDD2iVyha14X1Pzg0X3WrDY4cPDk9nfeWWBxpNpug3iTFVwfiwB829UFZwJBpf2fmwBlqPhlbQvupmR+enbiz8psUnZsx6GtCS8aC9LD7eZh+mIIsHWPE42x7MaEiCcSMG5kLJxSvW5JYQ3yh7YNPUTa9FgV96sst4aAcPt+IxjwsN86CbnIaxlDeE80pPoPmNj29jawequ0AlhiyWVNl8qwK2A3tWJQxlBwBoJl23aUJ5XVfrurK6V+tdC/l1pq7XWnptHj98pWs6deqrikId1Xooyif09zlJ/Lsl9zG+Lbp+tdz9UMOQTwd079roPky/69qwpXTdq+tabaOupbVdCgy8Mz5UaZw1usl7BT3QVqjyPz1pfCF1qflRNM+K7m9Ec6jonseH4cq6j9BDVeNPGGkTb7w33Bvpuvnow/rbiSOH5CpXzvj0kaG9NcSX75Ou1eMhtPReHT+dF4XuKw/cv2duYn0dK7WZh0ZecaNj58dN9xg6x3yd/iBVmMdnykM26QvHNdnG2ucwDFhSfRQPaWa5hwc/mvhe915y9S8fzT1wqKqh9Ll02qhDLa16/55Wta0+t49p6VAMQPMQtABABfGJ/XRBt7soQMiiCflUWlxs6C/dMKhD3jvDdUGpCz7RPuippGsu/Gz4/Y5HXgzf9d6mbnj0dy17xpwF4WJWF8SqsMgaOivrBsWVUoVQClV5yIp31ofSeEtuovwpIz0ZpP3V+3x4sXKpDX983zOhGiiukrlp0uftp9OeCjcKeuLpwtPH5Nojvsmz6KJcNxs+WaIlF87FqijiiT0HFQiNdD6cNuaIUJ1hUTDRFIU/ClkseeIqK0CMgyEP7BTqzD5yUN77PJhR+FZbtz23Ddpvv4GMnyTz5ZYaOpXydF9T4uDluZvvC+ewt1fu9eTn3RGotlMa20p3+C3vjUBb9UFyHgAA2hhdk+pLD5npYSINXevVLruCrg2Xvd1wXVzudZ6ujbWNfg+g6gcFLn7NaUl1goIjHy5L13g+Kb0lwYWGoVKFhO61dtU1oPZR158Ks9TOi1bVhAeUvI139dBlhajtdCwU9Og+VNfzuhZW8PGHRStyowVY8qCTz41yx/TZ4f0KCJqqNi/2sJnuKXX/ULN5S+bf/V7Jh16L78f8uCvEylp+/KBXPGF9LOtzOgcU6jz98tIQKKUfTIuHBtM9ut9TaQg+vf/hBb+wkz91aNH7PK980b1s1ogTTveU2g+qWoDyELQAQAVRx7kuqjQfR1xR0Br8Kaqsp1Q+2Na4tHj86E+EUu5iQcuSlQ0VBMMGHxy+q3JAF/Ca30O+dfsjuY5l3XD4pJex9JjK+tLFcVbYkOaTFsad6vGNjS7ONY5wS6nNPEzwMYfTF6j+pFNLxDcNClN0oRuXjCtQ0hNOulFTNcf1Xz413Hj4UFT6u9pPn9X2Kgzy8aY9fCl2Aa4wTO2nkEWBXzyRo3zz1iQYmPT5Zu/l7AVvhhDkO+edEMKTpi7g9W9BT2HpmGYNKyb+hJhuPnyCz/h88SfJYoWGWourU7KEMZVTVSuFqlj8RsbPRd1IqkJNx0X/nvzGtql5gdAk/YfrETP7Ek3VYT2SnAcAgDZC10Fxp7AeUFL4oGul1gha/GGouLLEqYM9XXFvyb1Q+sGlUvh1svZJ17keHGyq2x7mA/GHojQnhirjVQGu63Xtc9bE9K3t8EP6hHZVmBVX5FsyNFVLRjXQ9W56cvl42VltrPbSfZXW27Oqi71V834YVssfkhL9rjbUfYAeftL9pa7ptR+WVN/rb7qOjodCLnUSfx2TuEq9EB9C7M4n5ofzQpUgCkMUXhVaR9weXsEe5guKhvQqdP2vfwMK7Q7cv2EYZq+40bGLXf65UWF7dD8zYkj/3H2S5lwtxoMlv4dNV+fo30uPbp0LVroAKA1BCwBUEF1076qnmrIuwvzCTeFB3KEuKufWxZcqEQrREzHx2L9ah8q4NWmg5s7Q0zY+SaBuJjR0lJ7cOrR/n7AdunDWeLMqhfZKDd2I6CLVn9QJc5Qk85RY8oSSwhOvqHA+9m2a3qdAJr1/6U7yQp3mlgonVI2hi//00FJZE0M2l2469dSWKmd0oa1JQXWjErejOu5VJaSno44YdHBuDT62tC66fTJ43XwoaElPrFiIblp8Yn8vYdcFvN9MTJ54UpirRpUmhdo7SxgOLwkajkmqU15Y+GaTN0L+1KHOk/TTYGlqJx2Xpm4ynM4ji4ama4qWrWDHt13t6suwVKWK38h44KcQTuvwoefQqh5oK0FL/4sad/ikX9O8LOmJ7A84+edm9vPMz2kyfZ/TRZPgS7dDTs57b9bk+KVsmyWT5Ff4/C0PVMA2AACaQddsK56YH64J1emtDns9lOLVv6L5N3RPUep8dlqGV6B7RYnuOZyuoz3cUSiiChNVaOszWnf8oFNzaVlahj9MpInYNVelrpf1cJL2MX3N6w/lqPO+GF1Da/hcvS+e3L0U/gCX2kL3ZpbM8+F0f3FBC05c7ZfuP3S9rqHUvIPeO+0t6dTX/Yde84f9csf0+ddC0JI1tO9FqSG3dC+g625937a9PjcnpN8fpOfj1EOA6WG2YrpH8nlHC9G9o4Y407p0/+f3phqurJA4RCl16DCdO3qYTUGYzj8FOzpmfl+ZHp7NR5Fw3gZqm2J0f6kw0O8Ldd6GYdHOGxvaSpUy+1d1yZ2zAMpD0AIAHUTN5oYLXlUt+AXUqiR80YWdLuTjIa90caeLL12UFXqyRVUVKll2GjZMQ3l9ctCBYULDfxw2yE6/7teh014XcbpQ1QWtQhhVqzzwg4vDOn29Pom5LlInJk8oeYe/f7ckkNJFufYpfvIs66ks3ZjEYz6n5zTJmm+jEF24+0V2ulIinsOjXH7jEd9Iafs0ZnF62cUu2AvNdxLzySv13S/Q43bRzx50OJ0TqkpSkDDjhcUl76XfDOmGVuedbiJ07sTDn1lybnqA4wGT3lvoYj9+v843HWs/Z5oKLJtbDq/1+GeybupiOie13QrKRBVqN6WOK1qNJkLXf9xKS9j2oPqaha2+8g/rPwpI0mGKr0/vKXfdH9ZvauEW7lK1TIQPAG2PHhjSPYPm29BT/D7Z+HknfzK3L6rEUGhxzabaRg9LZXlq7pJwf+FzG+qaNa5WiK+jvZJDIYs60M/99OG5h8Di4Z48LIg7tdPXfj4huyqq/WGfqi6dw2Tu/nBSVse1hsjSPscPTWXxOQp1n9Hc60jto+6XfC5Fn9vEopEOnO4D1aGfHu4qPa+g8/kFFdxo+7T/y1evD8fg7u/+dei01/3gOWMHhSqQ/n32zRwlIb6+Lkbbp23Sw3geHunhMK8wianSX9fiuhdQoPXDf/t9+KtGS9BxiR+MUxspgCtGlR+6J/FKdbWlP4DVGsNr6d55wgnDwvK0j1rXHVd8dL56UFRolAZVzOj8aCoc0ZDeOtctuadVIKn16FxYv3JtCCbDa9Nn79Ih/ID2jqAFADoIXfzqgv6NdZvDXB+64VCI4nQhn+6c1sWYql2yJtLzcWt9IkO559sTc53qonFmLSnh99f9grapJ9R8GCsXP/HlT4bpYlQX2D4JYCyenyO+oFblSlNl5XoCzCtEYhrj2JL5Z3wYNB9XuiWl9zGf6N1l3eQ1VT3j+xdP/pimmyM9WebHReFEunxeN7kKs9Jt5fPUlEo3sT6Hjb5qt9aHc+fl11fmnQfDB1bnytnVnjcm1TWF+JAC/hSibkB1E6kbvnTFUUvpaTMf8suHQyg0trWPOe5/1/mqgDFdOeNDkbX1OVqqu+3R1evu89/N7G/26FaUYP1Tn9mly6954hLbq/P+ud+9EqVu2Q/CVzv07wwbBgBtj64rdc+gyfDVIa77Aq9ucbou0nWqwpbB/fo0GTKoE//ys/Nf8woKVQv4gzm6P1BH9uXJvIXx9Vc8hG98zRZfS2c9mBXPVen84STNO2PJfZMP9atrez1wpPuspjrH/cEnDXnWXPqs7lOuvuXREAxoLg8FD6r292tZr3DxQMelr1nTD5j5tavmmdH9mo6f2lsd9VqHHoDSMjSctFf6KMxK3/9lDc2bxYM0DW192fhjQ1ClYY5D4DHho+HXFKbo+Pp9mUZTOOzAXnbPt08L26rPWPKAXEzHRm2iIEb3Krpu94e+tH8+tLeOlx4GVODjozHo3Ct2z5X1enwvqvBG7aJRJHwIaJ3vfs7oHiSucPnNzHm5oawXvrk6N79mMdo+7YtCTv08ORktQqFR3B5at46h7gGZPxIoD0ELAHQQuqDX/Ckqw9fF1ejnXwtPtugpoJ7dOmdOUK4LYl1sHXdk4xDhlTdWh4vbuCNcIUFcgq0LQ9GT/f50vy5a/YKyEJUy66JRT9mo9F4XfXo6zJInqGKFJsPXTYxPStkaFEKEsY0vODE8OaSn1H76tbNyk/zr4rs16IYoHt/Xb4Ti1zQUWrEAwis9/Cm0Qvymwm+GfLgEn9dF50T6WOnGRueSwq2ssa/T/MJe50p8bih48ck5nQ95VqqsSev11KNuPtReWUMRuGJDxWXRTZovT0OHaZ/i5RebkNOSJymvS35mjpZW94u2ELTsajs2TG/fO9jYLyttgwAApdEDP009dKW/36S5MaLK9ObQ56dlDCk7qUBVcnyt1hRdg1YlYY2Lq8UtmjjfkqGbdb+iL90z6MGiUu4d1Pmuipm4wqGUbfO5X9TOGsJW1R8h1NmvR247NPKAV7ikK/5L5VUzWrbCAa23btuOXDW3RcfR5/SMt7PQXJy674rv+dJBmtYx5dKeeZ+dfu2F4XWLjq/mM9Hck9pPHd8rk8qdQnTMPPzScM4699L3XD76wsmvLMtVMfnQZqXyYb7iahpVN3mgY8kcqAoi/ZxxB+7fMzxspioYBVzdU+dhFm1zHO4Ue+hQ9//pYwWgdAQtANDGNHfMYksuVlVBoDFlw1P/m2pDp3d4outzo8JFojrX9b74IlsXb7oQ09MyaT7hfUwXot55HMZbvm16oyG1sqoAfJxiVaeEp5+OHxouvFU5oW38xyu+EJ56s+SGwekCXU82qcNfNyweDPgk+fHNTkto+7Rt2he1j57+iif614V9+om0csdUjtvQigwdVoxXhpQSNqm94rldLAla9FrWuMX3PPNaeALPx7W25InBQjcXCiUsmUA/biM9jaU5gPzYt6bvXXKade3SOVcZlFVqX8pQcc4nKy116LCWKOffN0wp5HzlZzRFhzE/+QIAtGMtfap+V1yr+XLTyy4212b6/aXulzr6FbI0516i2Lp0Ld6alQrpZaWHIS70vqztLLbcUj6b9RBa+no6HrK6kFLnTI2XnTUPTynSy4jXW2g70vtU6vGMt6/YtnIPArTMXrQfALQtPmaxOqpLoQ5/hQSqKPCL9DCx34p3w2u6mNLFlsINvU/vV2WKKhG8o3rL1o/G51XnvSol9DSQvvRa3FmuzyocUMWHqgCuvui0vK3UZ3tWdcn9ro5llXGrwkEd+LqZUAm4KmbU4a/ARRea6zbVhvfENKyVOv4XraoJF5kKDfTUT/ekdF2VJx7QxNT5r23Ul4cJ/ru+vIrE90dl56J5ZtQ+mlDSS8ktKUtXeXfMS/CbM5dJS+i4+JAFClkUQvkwXH7cWsqHi1Mgo5sBP69+8uCc3OT2cYChttNx0LmVDqJ0DloyFEC5FHRlVabofNH6fF6i+MZLIVlznjjz49rUZKWtpbn/vpFzK03RoXC8AQDtnq5hmeMPANoOKloAoEKpMzirGqO5Yxbf+/jc8H3yxJOKvqYKlZkLV4UQQR3pWePJxq/FY/V61YqG/NKwUuqM11wZGgtYHd4KUzS2sM+bMuWEYXnr1eSXcWf457/3q/BdocvsBW+GIa5UVeBDW6mMXhMb+nrUDgpIFB753CrqUNe+qJ0ufmN13qR+CmZ8KDPf/rh6QxP15/Zz/tLwu8ZZ1ti+PgFjPB7z4y+9HtbT98E5YRxiH/O5uWMq+8T8WbIChTjUUKChL8sYV9mPm4+/mx5H2MdGjl+L16e/a10Kv7TvmpRR4z1r2DZVjyhQUVjmbarj7KFYofNYYYj+pmoT/9nL6LM0BCT586542buqpHwcbkuqZZb8qSY3pnF6vekn2fz9WUOt6dzTMgr9OytlCLJCxzUek9qPZXP/fSNHg27fbGb9aJJ2b01yvAEAAACgYnTiULSenTt3tpddAVCGmq3hM6HvddMAACAASURBVLvtPwTqvB3exGThlgx7VbN5S16HbdZrlnTAq1O8qZLqQhSA1GyqzU0W6FQVoDFmrcC8Glnb7FUJ+llDVKWH4NL++3q03T6cU7pNvELHX9PnxkRjEmeZlYy5q+3UZ7dtrw/v9+qGrJJqHyrMt0ltoQkGm1Puv7GJcYPTvB3j7S1EbaQKj5aUg+tYaN80LJcCqPg4a381vIEPJ1bKcd5V/JxRYJGeXDWLn7cuLsHXMbHUkHUxryJSYJT+t+jni8Y5buq4ptuq1H/fu0mnPTzhfc7qaUUri642s1t27xZhD/i2mf200Gr7X9Ty6j0AQLbdfb8DoN2pmPsKtEynTkQKWWiVVkTQAnRs3HggVijMAtqgthK0qHRqheaj3X1bhN1Mibomk9pSaLUELQCw63C/A6CFCFraCYKWbMzRAgDALsCYysBup7Khn9Ds7dpPioUsAAAAALCnELQAAACgvdDEN2s5mu2Sjuu/dPRGAAAAAFCZCFoAAADQXmwzs2s5mu3S98xsa0dvBAAAAACViaAFAAAA7cmvzexljmi7ouN5T0dvBAAAAACVi6AFAAAA7cmHZnYVk/W2GzqOf5ccVwAAAACoSAQtAAAAaG9eNLNfclTbhX81sxc6eiMAAAAAqGwELQAAAGiP/q+ZreHItmmrzeyajt4IAAAAACofQQsAAADao81mNokhxNqsncnxq+3oDQEAAACg8hG0AAAAoL2aYWZ3cHTbpKlm9lhHbwQAAAAAbQNBCwAAANqzb5rZYo5wm6Lj9Z2O3ggAAAAA2g6CFgAAALRnW83sfDPbwlFuE7Ykx2tbR28IAAAAAG0HQQsAAADauyVmdjnztVQ8HZ/LkuMFAAAAAG0GQQsAAAA6gv80sx9zpCvaj8zswY7eCAAAAADaHoIWAAAAdBTfM7PfcrQrko7L9zt6IwAAAABomwhaAAAA0FFoaKovmdlLHPGK8lJyXBjaDQAAAECbRNACAACAjkST459hZgs46hVhQXI8tnb0hgAAAADQdhG0AAAAoKN5z8xOM7OlHPk9amlyHN7rwG0AAAAAoB0gaAEAAEBHtN7MxhG27DFq91OT4wAAAAAAbRpBCwAAADqqd8zsJDN7lTNgt3o1afc1HWifAQAAALRjBC0AAADoyGrM7BQze56zYLd4Pmnvmg6wrwAAAAA6CIIWAAAAdHSbk2HE7u/oDbGLPZC08+Z2vZcAAAAAOhyCFgAAAMBsu5l9ycx+ZGY7aY9WtTNp1wuTdgYAtF1bOHYAyrCDRkN7R9ACAO3U0pVr7c7fzrGN7xW+F3rs+dfC+0p9PbZ1+w6bv2RV+GqKtkHLTG9Loded1pH+u7Zr1ivLMt+ftT16r7+/2GdbSsu94VczwjYDaLMUCFxrZufTkdRqtiTteS0BFgC0C8VvEgAgG//tQLu3N4cYACqHgoCLpjxU0vbcdMGJduZnjgqd+w8vyA8Xpk0+1+545EV7bvlaW73+/dzr1311fN77vn//7LCcoYP6hqBg3aZaO3/c6LzXY3rPK2+strdq3g/LlmvOHmMzXljcaPtO/tShNvbow8PP6zd/EJY5bXIf671fD/vNzHl24P49rbpXz7zX02bMWWA//u3c8Pe5i1faSaOG2so1623e0rftmCMH2VtrN4bfBx3cJ2zr7AVv2r0vLLUpl44LS6rbVm/3z1qU+1mfW1HzfvhZ1H5u1FVTi7b3OSMH5rWfAqDY2o214Tj0rJpthx/SJ+9vvn0A2owHzWxx8v1IDlvZXjezL5rZkja6/QCAxnQRfBjtAqCZXqbB0N4RtABABRnQt3cISWIKEhrCiPzX+/TqHr5fNv5YGz30kFw4ok79x196PQQhCkFEYYWCgiwKCFQxsnz1elu0qsZGDOkf3qXXvapF29Wtyz5W1bVzCBFq67bbSYf2tZ9d1bBNCim0fG2HKNwYnYQZ6X3RsmbM+28bO2xALvDQ684DCYU62m7tk/b16l8+asveXh/Wr0Dj4QW/CO/TerVd+tw3LjzVenbrbJPvnhn2vXvXzs06uB5epSnMSvtgW71t2VpvfXv3DH/xQKvfAT1z7/T36JgAaHOWmtkxZnaLmf2tmXXiEJZMlSv/YmbfNrNtbWSbAQClmZ6E6ADQHNNpLbR3BC0AUEEUZhSqfCj0+iEH9bZFb74TflZIoGoRVXUoCFHQ8NT85eFvR3y8OlRh6D1x5czUmQtCwLKpbrstXLvZnote15clFTJa/6gjPgprVB0SU8jiIUX8N61TIZAlFTQXv70+rEdfzv8u82+90t5+d6P95ME5uWXpa+2W7WG/zhnZEPJ875LTQhVMPMSZPnfh6WNC+OHhhgIdS6pKpH+ffVsl+FCA8tBLy+ynXzvLqrruY1MfnZcLdzwYe2Hhm6ENLz/7hBavD8AeoZDg/5jZo2Z2h7JUDkOT9D+kSUmbAQDan9/oOS5dVnNsAZToneS/HUC7RtACABVI4URzhptSmOIVK8cOH2zn/KkmDJElqmy5ctxIW/KnmlAJojBEFSQj+vYKYcfFxw8NAYZoyC0N96UKlazqjvQwZQ83MdyWqAola11P3nBJGFJMgY8HOU6B05VnjQ6/eShy5Xlj7d7H54Zhy8SHGnvg6Vdyf7/itul22IG97KZJn7cTv/OLvO3w0Cj+WaFOLB0eObXl4Op9815ToKOAStuv/VMQpAocSypjFLIoiPFhzAC0aY8mQ4ipY+l/M89hJlWx/KtGlDSz2grcPgBA69CEhN/UZTjtCaBEk82s8ZAXQDtD0AIAFShrjpS4ckMVFKpksWRCeZ8vxYMPfdaSChct6/gRQ0K44iGJhrRScKDwQ0NxqUpEf9O8J8VojpLrdGd160OhAuZfJn8xhCLF5jd5KwkptK4TRw6xmQtXhTBEQYmCliweosSVLpYME3baqEPD69qG/ao6h+3W/uozt399QghbJt54by5E8eod/a6gKK68iXmbWTJsmsIYBVSqjrlg7PAwPFlM+z154kk24NlX7YxPHxnaV1UtlgQ2448fZj26dc7NUwOgzatNhhD7NzP7ZzP7FIc0549m9nUze75CtgcAsGv9Jhla89u0M4Am3EI1CzoKghYAaCPiSfLjidlV5WFRUODhRJjHJAlAsibYV+DgwYvmedHk9QoPmjJ/yapcsPP9O34XqkeKURji66rq0tmu//Kp4Xsp4v30eVJU4aLXJ55ydPhd3z2QUviksEVDqcVDllk02b22Q6+nJ7dXkPLsH5eH1xTOKGhRQFWoqkjDlP3gridswwfbQlilZfbt0cXO/fTh4bPv1dWHdtIQYwwdBrQrLyRzt1yq//SaWWmlh+2T/mfwfTO728w+5DQHgA7lu2bWNRliEwCyTE3+WwF0CAQtANBGpIe5cq+uXJf5ugcJChg0NJdPqi/nj2sYlst/V0Ax4eb7zO6emfu8/uZ/96G9tm7fYT/8t9+HQEFVKZaELcV4cOEUsqSDn/j3eD/jsMj3yStztFyFHSvXbAh/80BEYZEqSnpWdQm/K4DSfmgIr+lzFtuA6n1zw4/FXnljdW64Nafhv+KJ+uPh3O6a8YfwXcHOg8++GrZN26VJ8TWHjAImrVMT8x/avw+VLUD7olDhTjO7TyMXmtl3zOyADnSM9R/enyQ3z1srYHsAALvf/yTVjM8mQ2seyjEAkFieBCz/SYOgIyFoAYA27u7v/nWu2iM2d8W7udfveOTFMNRXMXHAkTVHi0IWhSoHdO9q40d/Isz5okoYhQy2fG3JjaigIj2sV3qOFpdV0RJvo2h+lMs/Nyr3+bmLV4bAQxPTWzIMmChkCZU4y9eGzygIifdNQ5qNGzEwbx2ag0XBiVPViwdOqgAa37Wz1W3bEYYOsyQY0mT7J3+qT3ivQiW146CDO1L/K9ChbE2GQ7g9CVyuMrOD23EDrDGzW5OAJXvsRwBAR/OgmT2iZ7nM7K90mW5m/czsY5wJQIfx52TC+/lm9l/JUGE7OPzoaAhaAKAdUkWHAhEfsmv4wOoQGGielJZ4Y93m3NBcllTCfOPCU8ME9wo0vHJFw2a1hqyKFufhjOaoUfDh7p+1KEy63z2ZU0UT0ivs0Ou+DC03ntz+5ddXhsnstR8emsikLxyXGQC9tXZjqFTJEk+6H293PEwZgHZHocM/mNkUM/tSErgc3Y528pUkYPkPbpoBABn0/4ZpyRcAAB0SQQsAVJB4iC0PLnzoqvhvLg4B4vlIVM1y5VmjC06GXw4NyfW7v/9q+KQHLTEFDHHIoEnrW6pYRYvv+9QHZ4Xvet+sV5aFMOmaCz+bazdVqZw0amiYqF6T24f5UqJlKaT5yYNzwrpUjXL1Lx+1r3y28WT56XVnDeWWVQkEoENRR9M9yZee6P3/zOxCM9u3DTbC+8nQaL9Ink4EAHRw1d06egsAAFAYQQsAVJB4rpJ0cJE1oX3c2a8QQYGK5hXR54YP6Zf7W1NDhynESIcw8RwtpVRkxAFD1lBmblRUoZK1b+mgQhUrClMUHo0ZfFDeNltS9eLDhN35xPwwLJiCEA9aVHET2ues0WGOFX1Oy/Jhwu57cm6oZtEwaKrQ6dGts93zzGvhbz++75m8yhfx9wFAE+YnX98wszPNbKKZfUGjEFZww9Ulw788YGaPmVnxMScBAAAAAEEnmqH17Ny5s73sCoAy1DRMB7zH/0OgCg0NheWTr6sSpm57vdVsqs2bzF0ee/618FpV133CXCOF6O9xuKBl1myuzVtHn17drfd+PTKXoLBEc6eMGTbI1m8uPqy/Lydeh7ZTFB7pbxq6Kzagb+9QceNVP9pHrwZKV5f4srQtvh61z6gj8udn0UT7WW3i68ri7Zk13BjQhnWqlCdYV0/rWQFb0SJdzGysmZ2RfB1RAdu0xMweT75mtfVwpf9FtRWwFQAAAED71akTkUIWWqUVEbQAHVulBC0A0MoIWnadPmZ2nJl9Jhlq7KjktV1FpX6vJXOuzDGzF5PX2g2CFgAAAGDXImjJxtBhAAAAwJ6hkOO3yZfTGInDzEwTXanUrr+ZHZB8KYTxtEnjGu5lZh8m86lIbbLMDcnXajPTuJDLzWyxmb3LcQYAAACA1kfQAgAAAFSOd5Ov33NMAAAAAKBtoM6nFTF0GNCxMXQYgHaqYoYOAwAAAADsWQwdlm2vStwoAAAAAAAAAACAtoCgBQAAAAAAAAAAoEwELQAAAAAAAAAAAGUiaAEAAAAAAAAAACgTQQsAAAAAAAAAAECZCFoAAAAAAAAAAADKRNACAAAAAAAAAABQJoIWAAAAAAAAAACAMhG0AAAAAAAAAAAAlImgBQAAAAAAAAAAoEwELQAAAAAAAAAAAGUiaAEAAAAAAAAAACgTQQsAAAAAAAAAAECZCFoAAAAAAAAAAADKRNACAAAAAAAAAABQJoIWAAAAAAAAAACAMhG0AAAAAAAAAAAAlImgBQAAAAAAAAAAoEwELQAAAAAAAAAAAGUiaAEAlG3r9h322POvZX586cq1ub/p+8b3tuz2hp6/ZFX4Spv1yrLwVQpt+52/nVPyOrXf8c/x71nvLbQdaltte7p943ZtDrW/H4dyl1EKLVfbnqb9vOFXMwruq/6WPkfU7sWOk/6WPr5af3P27Tcz54WvpmiZb7+7sdG79HqxY5x+bynnkh8fP1ZZX8U+G/9c6rYBAAAAAIDy7U3bAUBlUafzy6+vtLpt9VbVtbMdc+Qg69ZlnxZt46irppb83vm3Xhk6Zy+a8lDm388ZOdCu++r40Ol8xW3Tw2tjhg2y3vv1yHvfj+97Jnw/8zNH2ffvn23TJvdp9J40LbNu2w4b0Ld33j6rw3n95g8avX/ooL65n70T/JCDeudeu236C+H7BZtqw3e1p9r1/lmLwu/exmOPPjy3jLtm/CFvHStq3reFazfb6vXv571+8qcOzX3OebtNuXRc+NvjL71ur65cZ3d/968z93flmvU2b+nb4b3ax4dnLQjrea+u3p5bvjbX3nH76jNqT7VrseOk4xjTsh96aZmdNGqorVyzMreM1qR9mProvPB1+9cn5B0LtfXDC1bZdRnre27+0vA37fd+VZ3Da6OHHmJTZy6wEX172bN/XJ5772Xjj80t9ycPzrGvfPYoG3XEwFygsOzt9XbvC0utev+eVtWlYVnp88kp9NA6ZMvWerv87BMyW0P7pfbSsdB2WXQuxa8POrhP7pws91zSv/+rf/mojRl8UPhdbek/i58b6eNrZZx/AAAAAACgdRC0AEAFUYfut25/xDZ8sC10rs5d8a7Zg3MadVqXY9rkc0MnsHfGTr/2wrxlxp32ep86clVloA5kdcgrrLnpghNDp793UJ90aF/73iWnNQpQ9DS+OpTV4ZvmAc31Xz41dJDHfnDXE+FzWk8cAsxd3BAMpPXt0SXXNt6prRDIkvVoWdrGp+YvD53T15w9xrp37ZxbikIO8U5uhTzq8Nf6Xf8++4bl6Hvf3j1zr1f36pm3NeogV7ik9fnyzvj0kaHTX+3RVKihIElteuW4kTb++P426Qud84IkLf+ttRtt7cba3PGq2dzwsx9bb/t0W+m9Wrba66fTngod/pKuMMkKj5pD58EDP7jYvn/H78Ix/t3ff7XJT+s4aXu137Vb60N7aX/UlgpZLhg7PPxdx27EkP65c03VLGu3bLdjhw8Ov6cDp0m3f7Rvcft4W94xfXZYl5+jk++eGdY/acKJjUIZnX9OIZ2fozG9rm319ZRzLmm71HZy5Xljw3oP6N41F+6Ijr+HcLGWnn8AAAAAAKB8BC0AUEFUdaCOWA9B1Ak94eb77Km5Swo+bd8c3hmrDmwFE/50vDqD9TR+KdT5q8qIdBjitM16Cl9P+ac77eMqmOpe+eGMhoDSvlvSaZ217Pgpfl/WlAees59ddW6j96rNRH9TMPTGus2hamHJn2pCkOX0s4aOOn/c6Nxraot0x71XPoj2Pd1xrw5yLevGyz6Xe13vUUCgoCCunEmHIQ9fNTW0lxw/Ykjesp1Clnib9LN/xqKqH4VH6myP20kVEnpt0heOC6+9sPDN0NYTTzk6bx19enVvtN7mUkhx06TPlzxUnAIJbduiVTW51x54+pWwfTpPPQx7Z0OtnT/uo/1SlYv2f9Gb74SAzjIClayKH7WHzhmdD175IVOSCpm3at63yRNPygshdT56JdelP/r38LNvlyWVKjr2el98nK0Z55La6yu3PBBe++nXzsocfq2Q5p5/AAAAAACgdRG0AEAF0ZBC6sT1Tl59Vyd0eqihcmjIKXW4Oz19r0oPdWZrOCl15JdCAYiHIN7Be9yRh4SgQr8r/FClQfwUviWd+wpoDjuwV6OObJm94M1QcfGd804I1QXqJM8KHJw+r6ofVQ2khSGsks7sEPzMXBA6tIcP6Rc69t+rezH8bfjA6tDB71URTkNNqdPeoqG6PIxKd5prXX//66dCYHXHFeMb7ZfaRSGB9ummbfW59tPXN299yDbVbbd/mfzF0P7aF7WT1hnzIakUNHlI40O8+f4rZFFAIRNOGJb7dM3mhsAjbnNffrH2ba70UFka4iuumMmqotF7tA0KgNSuqmo5bdSh4W/p86e2bnvuZ99vvV+h3rmfPjycz1nDqOk9CpB0bs6Ys8B+/Nu54fWLjx8ahv6K53MZN2JgqAB57ub7wvHWvwsN46fQZ3D1vrlKLYUZOo9E2zF22IBwHul8Gjb44Lz1l3oude3SOaxfFTWqtpm5cJVdedboEJ7EoY7C0Vg55x8AAAAAAGhdBC0AUEHU8RxTh7IPedVSmrNCHbcKG/REv1dUqNM3PVSS1qtOYe8cd97hq87auDJAnfg+7FmaVzYo7FDndtbQTHqPOrjVKa45aSwJZooFAeo41/bF1Rvu3sfn5n5+8NlXw3dtu4ZdiqsJ1LZxsOVO/M4vGi0zrkDRz1qeKhymPjgrtIH2rWZTbeZE7Icf0sfOGbk9fE7t79VKPgSUOtY1zJOow17BmoaN07BR6uBXNUK6LdRmPnSY2kpDUXk4oQDBzXhhcQik4hCk0NBh1oLhw3RMtX5vY1XLpMMShRTxa+nzwPc9TdurdnA6NxUQKrhTqHfO2JFhSLGsqiyfn0XtpZBF/5ZU2aT1xAGG0znYo1vncKyeHDYoVLk4hToKA9WWPau6hHPWogoVhUTpYfSacy5948JTw5BoWq4P05e1T5Oin8s9/wAAAAAAQOshaAGAChJ3gGoorR/+2+9DkDD+hJEt3sgF/73aZi1+K3S2qrNYHbkfbKvPTV4eT7itDnx1/vpQXs476L0zXdvmc6Qo+FBnuJ7213BnlppsvNBQYxbNgXHamCNCp7g6u9WJfuHpY/I64+NgQEGEOtmz5oE5ceSQ8F0d1kcf1j/8rrbU3BiqLrjjkYaKFh9Ky3mlx5M3XJKbfD+rCiHeF82lcXWXzmHuE7WZDyPl7enDs2m9Pn+MRUObKTBQ9cJbSdtqmxSqxPPjxHyOltOv+3XoXBe1lWidPuG6fy4ddvhrF2QeicZzz5RKAYNP0O/HPL3tqv5ojYoKLUPVJhNvvDccC607KzRyPoF+1gTyhfhQcgonVfnlPyv0CtUhF5xo0yYfmavE0ZBvVV0/OlfLOZcUsmjZvo+aF6kY7U+55x8AAAAAAGg9BC0AUGHiIY5UbXH1Rac1evK/HCM/0T90BusJf3XKqsNXHfUKSjQMksIVH4ZKFQ360twhGpJJnb7xzz+/7/e5DmJtr6oz1JGd7shV1YDep3UVmwNGc1so/NF8G/rSpOQKUTRsU1xdEYcG+llP/KcrCEST7OvpfrOloeNaYYyWp+3R8FqqALBkLhCLJtB3i1esCXOAWDRUkzrb90vNf2JJwBAvQ8OBfXLQgaE6wbwqKTWklYcRPsfK1yccbyveWR86xAvNk6JOeFVXaD8smY/EkjDJh7zSuXLfk3PzPqdjpGqOeEL3LJUwh4eG3ooniS9GVUDOQymn801t66/F/36y5m1Ji+d6UfspwNC/DX15sLfs7fW5ihgFmDq3jvh4daNqkVLPJf0b0rmqfwc6xjpmfoxjHs7o35P+7ZVz/gEAAAAAgNZF0AIAFcTnPPEJ6ltzPoWqLp1DJ/5z85fa+OOHhaf8VVWhOTwUTKQVm4zbO3F9exVc/O7vv9rofd75Gw+V5J/TnCTqzFZHsCow1OkcD+WkDufpcxbndf6X0x6qNvAqAXWEd+/aOVeZ4x3xPh+MKny0Ha+8sTq8RwGIhSHGZoQQQBU3Gi5NHeVZ26LOcR27KdEcKVkef+n1XBCgff4oGLLM4Eg094fmr1m3qTaEcN52llTwqCpGAZ2qW77y2fxtU0WFjoH2bb+qzo2WreogVUC0dtDiAVxTVAmi9lBgoXMhnuRf4Ya2W/MAOR9ey5LQQkN2aUgsDemlCg+z2aF6SQHe5Z8bldmmWSGGJUFGFm2TzgkPQzQcl2+fKrn8XNI5oPU191xSO02/9sIQNOpYKRhL/7tx/np68v9Szz8AAAAAANC6CFoAoIKoozx0lF46rmCnt6pJNBxWOZ3i6nDX0FPqgPZwQxUEPo9KbMnKNeG3QpUoPgm3QhZVxTSHwh6f0F3zi8hNkz6fV3nwm5nzQqCgzvqWUIe2qkc0RNeB+/fMm7+k0T7/qcYGVO8b5pFRZYiGG/MKEi3Dq1BUOZJF82WoE97nmZG67Q3rUyWR03wsChfUqe7U4e5DgWVR572OedYcHArRNKyVDwt3yjHZy/FhydKyht3yeXrKndNDw7Npov+7v/vXRd+n46x2b4reo+1UQKj2VcigNt22vT6EEgoNFRhdl4QqOq8VgNz5xPzMfyvF5v8pRBVdC++fHSbfL2V7m3suqZ39nFD44uGRD30mGk4sHbC4Us8/AAAAAADQughaAKCC3PNMQyd6qMBIqjAseZreq0P0JL3+fs2m2tw8EqVS56y+Lj/bcsNJqaIiK0zRJOrqtM3q0PX5Y8TnaGmKd/iKnvZX8KHKFp8kPz08msICBS3qQC91OKksK9dsCK8qWFI1iJYbT+rvtC2qTtBk6QqCVBmiyehVHaLtUIWRwhB15uvvmiPEt1mf1VBW+vwdV4zP2xfNjaN2jF/zNvVO9TC8UwsrEXzuFnXm67hmVdz4vCFpGtIqXemiqhuflL05QYsfZw8Mm6LwS1VGGopr4dpVeUN+WVIxEg8ppnZUuKJ9UZij9ehc0rwk6UoeVW5Nun1GrmIplhVYNcXbWOeGgi2dA3b/7EZz6bTkXIqp3TXp/hW3TS/676y55x8AAAAAAGhdBC0AUEF++rWzMjcmnmRbHbo+Iffgfn0yh/3KUmxeCp+bxSlI0WvqEE7zCe4Vjuhp/VI6cNXRq2DGJ+jWsr16Q0/nZ81LogoO/U37rnVMm1x4jhdLJjzPonZS5/3Jnzo0VDeoo1sd86p28EoODSmmDn9LOv41p4Y60i3qXFcY9bPPHBU66Kc+Oi8EAxpCTYHVt25/JHT0K1gY2Ld3XoWI9lXDlxWjUEPb1FSVktbtE7PHrv7loyFg0fFSiKXKFoVJ6blnfG6QNFUl+bFxOravrlxXdHuyaAg07cs1F362pKoR7bPOKQ19ps9p6K94qC/ti+YWipfl7aDhxCZPPCkEVjomCmy87fVvRP82tEyFMultmZfRDsX4vxFvY63Ph2PTsnx5Os9cc8+lLDoOCld/cNcTYe6VtNY4/wAAAAAAQMt0ov1az86dO9vLrgAoQ83W8Jnd9h8CddKWOqyT3lto4njnFS4+wb2etI+f0tcy4sqXYp3o/l5/j5atYctiGspoVz5l70NfSVwxkLUtCnq6duncaJ81F4gPNZauWFBVhbdnun3jaolik8xrG2s214b5Vyw1P4vWXd2rZ6OAQar37xlChHiS+7i9tVxVlngI5+8rdA5oXZaEHk5DeqnC6p5vTyx63pTKj0dWpY2CPbVzVjuVcu46MQenJwAAED1JREFUDTPnVUKFqkTi8zxL1vr8PEgfS62vblv+XEY+RFe551Khdir0+aw2KvX8a4ZO1d1auggAAAAAQHvQqRORQhZapRURtAAd2+4OWoBdSeFHda8eZc3PgnaHoAUAAAAAEBC0ZKNVWhFBC9CxEbQAaKcIWgAAAAAAAUFLtr0qcaMAAAAAAAAAAADaAoIWAAAAAAAAAACAMhG0AAAAAAAAAAAAlImgBQAAAAAAAAAAoEwELQAAAAAAAAAAAGUiaAEAAAAAAAAAACgTQQsAAAAAAAAAAECZCFoAAAAAAAAAAADKRNACAAAAAAAAAABQJoIWAAAAAAAAAACAMhG0AAAAAAAAAAAAlImgBQAAAAAAAAAAoEwELQAAAAAAAAAAAGUiaAEAAAAAAAAAACgTQQsAAAAAAAAAAECZCFoAAAAAAAAAAADKRNACAAAAAAAAAABQJoIWAAAAAAAAAACAMhG0AAAAAAAAAAAAlImgBQAAAAAAAAAAoEwELQAAAAAAAAAAAGUiaAGADmjr9h322POv2dvvbiy68/q73uc2vrcl/L505drwXb83Re+94Vczwjp3FW1LvJ3N8ZuZ88LXrtw2bydvu2K8jdNtW+h1S47T/CWryto+fS7+rB/zUo4tAAAAAAAAzPamDQCgsiiQePn1lVa3rT5s15hhg6z3fj1abRtnvbLMfvLgHFu7ZbtdfPxQO/yQPuH1QQf3saGD+ua996m5S+yhl5bZmZ85Kvz+9MtL7Z5nXrN7vj3RLprykN10geX+5tKBx9qNtfbwglXWs2p2bl1S1bWzjT368PCzghi9x910wYk2b+nbea+5+bdemfe7goHv3z/bTjq0b6P3Srx92ndvV/fi62/bc8vXWveunRt9Vm2/eMUae/aPywu0ZmMnf+rQ3H7d+ds5NnXmAhvRd5ENrt437M+Ivr3Czy5+v6zf/EHYn2mT+4TjrhDowP17WnWvnnmvx/6waIX9+Ldz7cpxI+34EUPCsSlk2uRz847zbdNfsE8OOtBGHTEw/D7lgedCe1x8/Hr7xoWnlrzfAAAAAAAAHRVBCwBUEIUGV9w2PWzQmMEH2dwV79rUR+fZ7V+fYIcc1LvsDVUVxco16+3+WYts4drNeQHLsrfX270vLA3hRtwBr8BHIctXPvtRUDFj3n/bAd272tzFK0NgoOVZKjRRGHDOyIE2eughISzp32ffsGxLQpfarfV5gYvTexSKKHRJv2ZJgKNlx7y9+vboYqeNOjT3lw+21YfgQa+ngyDn4Yw+py9tm0KRuG1k2OCDQ8hRzAsL37RFq2ps0heOsz69uod3KmRR+91xxXir6tIQ4ihoGTtsQAhDnL8/TcdrQN/eoc31GQ+I9Lrz43X+uNEhjJl890zr27tnCFO0XIU2Cl30e1XXfWzlmg15x1jnhc6Hyz83KtfGClnU7mqfow/rnxcCAQAAAAAAoDGCFgCoIA8++2rYGA9WNHzT6df9OlSWXH72CWVv6ANPv2Irat4PHfaqXjjv5E+G5SuoUJCjwOGkUUPzPqOqGlW9jBjS30ZdNTWEJ+qUV8CiAGXDB9vC+/TzER+vzvuswhVVyKizXlUW+tmSoOWtmvftjE8fGTr+m0Of1TY4D160PdoubceV540NFSjaJ71+42Wfy1tDHBpoeQpCfpYEMQpGFMxMmnCideuSv21NVRQp/Fi9/v1ciKEAQ6GNTLp9Rt579br/zWm/rvvq+LwwSd8vfnt92Dd9uThsiqt7tG/TDz4gbOvfTvnPRoGOql5CaBO1gc4L/6yqfbRsD7cUVim4mZJqNwAAAAAAAOQjaAGACqMKEq9eUae5AgN14reEOvEtqVL5/h2/C1UgWo+qPhSy3DTp83nhgt535xPzw7rVGa8AQtU1csHY4XmVJ77s2KzFb+W2Of5ZYY8CGi1T4UxcpaNOfg8RVA3jFD54Jc41Z4/Jva7wRr+PP2GkvbV2Y6jc8KHGFFxcfdFpjQITUWhU7PcTv/OL8D2upsn6XNZ7nAIXhSBxdU4hl40/NtcOqi7y4EiVNao0kidvuCSvOiWuStHQYkv+VBN+1jBkWpaOkcKmOGjxypi4Xb29FLIoVFEo5vujKpktWxvClms21YbfAQAAAAAA0BhBCwBUEJ8TQ5Us6lh//KXXQ6f71ycc36KN1PI03NcHyfBTqlRRx7uCinc21IagIu681/s1j8h7dfWhM15hjIaUEoUeqh7x4EVhQnqeEQ9jHr5qal5lhYbYUuiSFc5kDR2mqpORn+gflndBEq5YEgSJ5lW5Y/psm7mwITBQUKBgR9v8Xt3v7LgjD7HB/fqEobvi/VNYoWG5FDrpPccOH2wTbr4vcxtiPgeK3PHIi022u7Yj/kyagpOJpxyde1XVPmp3HfMTRw4J+3XYgb1C4KbzIYuGDFM76LiMTo7v8CH9bO2W2blhxvQ9Po90fBXEOA9ZVGmjocfUBgpidKx8GLFTjhnaqnMFAQAAAAAAtBcELQBQgTT81fQ5i0O4oQqH6l4t6+BWB7mqJXp26xzmI9FcIjWba3OT4ls094cmgFdVhMKQn9/3extRt92+d8lpdtHajWEYLAUBqjhRdYol1SfpOUyqoonl00NlxcN/NSV0/L+0LMxXo/UpLFCliIIChRQKgIYPrLbvnHdCWKe2z+cj0VBZqvTQ5P36fBzuaF8VlLyxbrNNnnhS2F8PFBTuFKIQwgOb/aoaT56fpn1VWKF16Vhqe7VOzXOjdtTf4yHUtEy1pwIahUPXf/nU3PwuhXjApfDLkhClbtuO3Lw4Tr9rWRouTufDuBEDrd8BPUNV0/RrLwxtkB7STBS6FJrnBgAAAAAAAAQtAFCR1HmuL3Waf+WWB8LcLV7tUi7Ni6JwZfnq9blqBgUQUlu3Pbym0GX6tf1MA1nNX7IqDF2lSod7H58b5nWxJFhRx7t37Med8OrEd6qISHf2Ow1VlZ73I2voMA1ZJhoG7L4n59r+VQ2/KxRQoOLhkCaKf+WN1eFnf01VHlqOKkbiahaL5jnR8FyL3nwnfImCkBDu9OiSN3xZOTSkV5oCLp8vx9014w+54cMUBml+F6dgRIFSLP49nqPFqXIpnsfFUvO6+HwwOp90jLw9AQAAAAAAUB6CFgCoIOlhuFR5oDBEgUdLgxYNQ6ahqVQBouGo1OnvAYSCD1VRaCgx73T3Sdw1FNf40Z/IDRsVByKi4cF8yC1VUjhV0Gi7FWYcfkjDkF/xa+mgJWvYLp9HZsacBWHi+ivP+mieEIVGHvZYMkyXApL4NQ1vps+kg5Ypl46zdZtqw7JvuqBh2/Q5VZ0Um1slve/FwhgNRzZiSP/ws8IfH3pN0hPVFxqSy+d6sWSC/aw5WtLiCpRSPwMAAAAAAIDyEbQAQAVRpcOKJ+bbMUcOChO5q0JEYYGCCafhvI4+rH+joKIpcVCjIOHqXz4ahqaaveDNXOVKPOG5Ouf79OoeQgDNiaLqGssIRNJDcllSkaN9UKWM5hnRfCM1m2rDelRRMWlCfqWL9jErtFBVig/pZcmwZs6rfiwKihSqNDWBvWios7pkPpP4/T45fCGFJr/PsnLNBnv2j8vDXzTXTUzhlYYUkyM+Xt1qIYiCrKnf+5Xd8+2JzZ5PxStpfB4cAAAAAAAAlIagBQAqyDUXfjYEIBNvvDdUsniVhg/bJaoO0eTl12yqzQtGSqXARFUzWraqVjQHzB1XjLdRR3w0d4pPNq9hqFTpofd62KM5TNQp7+GBd9ArLFBHv4bfEgVFGvJLE857dYz+ptf0N6ft0ZBl1fv3bHIPNHdNHDDpsw/PapgDRkFRHIL4PjSlUBiT5sFTKRrmSanPhUdqs7iixee5cVlDqTWXjoeOk4Ksrk3M65LlhYVvhnONyhcAAAAAAIDmIWgBgAqiTm5VIyhQUEe9AhGvbnEKEzTxu8KWwf365AUkhagK5tWV68Jk8pbMfaLgpFBlzFtrN+Ymmz/uyENyc4ioIsWrMXwyeM05IleeNzb8XcOPaX6SF19/OzeZv17bsrU+DP914nd+EcIABQ2qUFGYY6HKpEeYMySubvF5YxSiiAdMpxwzNMwbo/VpX7zSRAHH1Adnhff6PChxFUwsa5J3hUbadgUW6QqbdAChaiPNr2JJRY7Pd9OaskKgeI6WuMJGk+yrncsJ3zQfj8KqQnPqAAAAAAAAoLBOtE3r2blzZ3vZFQBlqNkaPrPb/kOgUGL4kH4lTWSuUMDnT/HhwMpdp4aWKlT1oL+fNGqoPTd/afg9a/sUZvgQYwoJVHny8usrQ6Dkn9My9JrCJlW6eJikQECBjJapdSlwSgdFPsG7JSFLel/196zX09umbYgDrjRtt29voX11CoAUKGm9CtE0dFmhNozfu37zBwXXbyUcy3hZxfZX277ozXfygif9TfPgtLTSBu1Cp+puHEgAAAAAgFmnTkQKWWiVVkTQAnRsuztoAYDdhKAFAAAAABAQtGTbqxI3CgAAAAAAAAAAoC0gaAEAAAAAAAAAACgTQQsAAAAAAAAAAECZCFoAAAAAAAAAAADKRNACAAAAAAAAAABQJoIWAAAAAAAAAACAMhG0AAAAAAAAAAAAlImgBQAAAAAAAAAAoEwELQAAAAAAAAAAAGUiaAEAAAAAAAAAACgTQQsAAAAAAAAAAECZCFoAAAAAAAAAAADKRNACAAAAAAAAAABQJoIWAAAAAAAAAACAMhG0AEDr2kJ7AmhHdnAwAQAAAAAojqAFAFrXWtoTQDvCf9MAAAAAAGgCQQsAtK7XaE8A7cjLHEwAAAAAAIojaAGA1jWd9gTQjvDfNAAAAAAAmtCJBmo9O3fubC+7AqAMNVvDZ/YxszfNrD9tCKCNe8fMhphZfXU3DiUAAAAAwKxTJyKFLFS0AEDr0sTR36RNAbQDkxWycCABAAAAACiOoAUAWt9vzOwW2hVAG3ZL8t8yAAAAAADQBIIWANg1vmtm/0zbAmiDpib/DQMAAAAAACUgaAGAXeN/zOzrZvZFM1tOGwNoA/TfqvPN7P8k/w0DAAAAAAAlYOaaVsRk+EDHlkyGn2WfpPPyr8xslJn1M7OPdfT2ArDH/TmZ8H6+mf1XMlTYjqyNYjJ8AAAAAIAxGT4AAAAAAAAAAAAAAAAAAAAAAAAAAAAAAAAAAAAAAAAAAAAAAAAAAAAAAAAAAAAAAAAAAAAAAAAAAAAAAAAAAAAAAAAAAAAAAAAAAAAAAAAAAAAAAAAAAAAAAAAAAAAAAAAAAAAAAAAAAAAAAAAAAAAAAAAAAAAAAAAAAAAAAAAAAAAAAAAAAAAAAAAAAAAAAAAAAAAAAAAAAAAAAAAAAAAAAAAAAAAAAAAAAAAAAAAAAAAAAAAAAAAAAAAAAAAAAAAAAAAAAAAAAAAAAAAAAAAAAAAAAAAAAAAAAAAAAAAAAAAAAAAAAAAAAAAAAAAAAAAAAAAAAAAAAAAAAAAAAAAAAAAA/P/twTEBAAAAwqD1T20NDwAAAAAAAAAAAAAAAAAAAAAAAAAAAAAAAAAAAAAAAAAAAAAAAAAAAAAAAAAAAAAAAK5UA9srwYghiID7AAAAAElFTkSuQmCC;" vertex="1" parent="1">
                    <mxGeometry x="260" y="370" width="1626" height="808" as="geometry"/>
                </mxCell>
            </root>
        </mxGraphModel>
    </diagram>
</mxfile>